<?xml version="1.0" encoding="utf-8"?>
<!-- Generator: Adobe Illustrator 23.0.1, SVG Export Plug-In . SVG Version: 6.00 Build 0)  -->
<svg version="1.1" id="Capa_1" xmlns="http://www.w3.org/2000/svg" xmlns:xlink="http://www.w3.org/1999/xlink" x="0px" y="0px"
	 viewBox="0 0 525.1 511.4" style="enable-background:new 0 0 525.1 511.4;" xml:space="preserve">
<polygon points="329.6,77.1 454.8,156.6 380,202.2 "/>
<polygon points="336.5,68.9 375.1,30 467.7,30.9 461.7,151.3 "/>
<polygon points="477.2,43.9 475,100 525.1,106.2 "/>
<polygon points="0,34 177.3,201.7 185.5,196.9 58.5,36.3 "/>
<polygon points="148.2,238.4 134.4,511.4 255.1,286.4 191.2,204.6 "/>
<polygon points="81.3,495.8 126.6,431.1 137,259.3 "/>
<path d="M320.1,78.4L126.8,4.9L48,0l7,9.2l206.5,271l110.6-72.5L320.1,78.4z M149,57l-13.6,7.8l13.6,7.8v8.6l-22.1-13.1v-6.7
	L149,48.4V57z M157.8,92.8h-7l11.1-54.9h7L157.8,92.8z M192.6,68.1l-22.1,13.1v-8.6l13.6-7.8L170.6,57v-8.6l22.1,13.1V68.1z"/>
</svg>
