<?xml version="1.0" encoding="iso-8859-1"?>
<!-- Generator: Adobe Illustrator 23.0.1, SVG Export Plug-In . SVG Version: 6.00 Build 0)  -->
<svg version="1.1" id="Capa_1" xmlns="http://www.w3.org/2000/svg" xmlns:xlink="http://www.w3.org/1999/xlink" x="0px" y="0px"
	 viewBox="0 0 339.1 272.9" enable-background="new 0 0 339.1 272.9" xml:space="preserve">
<path fill="#313332" d="M253.6,138.1c3.2-0.8,5.8-4.2,5.8-7.5V2.8c0-3.3-1.5-3.8-3.3-1L149.5,161c-1.8,2.7-0.7,4.3,2.5,3.5
	L253.6,138.1z"/>
<path fill="#313332" d="M56.9,114.6c-3.3,0-6,2.7-6,6l-0.5,145c0,3.3,1.7,3.9,3.7,1.3l72.1-89.6c2.1-2.6,3-7.3,2.1-10.4l-13.1-46.6
	c-0.9-3.2-4.3-5.8-7.6-5.8L56.9,114.6L56.9,114.6z"/>
<path fill="#313332" d="M86.3,8.5c-0.9-3.2-3.4-3.7-5.5-1.2L1.1,101.5c-2.1,2.5-1.2,4.6,2.1,4.6h104.4c3.3,0,5.3-2.6,4.4-5.8
	L86.3,8.5z"/>
<path fill="#313332" d="M335.4,130.3l-193.6,46.9c-3.2,0.8-7.5,3.5-9.6,6.1l-68,84.9c-2.1,2.6-1,4.7,2.3,4.7l195,0
	c3.3,0,7.2-2.4,8.7-5.3l68.2-133.3C340,131.3,338.6,129.6,335.4,130.3z M224.3,223.8l-7.8,7.8L197,212l19.6-19.6l7.8,7.8L212.5,212
	L224.3,223.8z M238,243.4h-11.1l12.8-68.5h11.2L238,243.4z M261.3,231.5l-7.8-7.8l11.8-11.8l-11.8-11.8l7.8-7.8l19.6,19.6
	L261.3,231.5z"/>
</svg>
