<?xml version="1.0" encoding="utf-8"?>
<!-- Generator: Adobe Illustrator 23.0.1, SVG Export Plug-In . SVG Version: 6.00 Build 0)  -->
<svg version="1.1" xmlns="http://www.w3.org/2000/svg" xmlns:xlink="http://www.w3.org/1999/xlink" x="0px" y="0px"
	 viewBox="0 0 70 82.3" style="enable-background:new 0 0 70 82.3;" xml:space="preserve">
<style type="text/css">
	.st0{display:none;}
	.st1{fill:#292223;}
	.st2{fill:#110909;}
	.st3{fill:#2A374E;}
	.st4{fill:#120A0B;}
	.st5{fill:#29364D;}
	.st6{fill:#292324;}
	.st7{fill:#2B2324;}
	.st8{fill:#180C0D;}
	.st9{fill:#1C1516;}
	.st10{fill:#241718;}
	.st11{fill:#11090A;}
	.st12{fill:#CE9D79;}
	.st13{fill:#0E0607;}
	.st14{fill:#77A6A2;}
	.st15{fill:#1B1415;}
	.st16{fill:#BC312D;}
	.st17{fill:#C7302B;}
	.st18{fill:#CF3029;}
	.st19{fill:#D03029;}
	.st20{fill:#CD302A;}
	.st21{fill:#CB302A;}
	.st22{fill:#211112;}
	.st23{fill:#292F3E;}
	.st24{fill:#612728;}
	.st25{fill:#382526;}
	.st26{fill:#9C3132;}
	.st27{fill:#472323;}
	.st28{fill:#BA312E;}
	.st29{fill:#211B1C;}
	.st30{fill:#FAF9F9;}
	.st31{fill:#6B2727;}
	.st32{fill:#6A2A29;}
	.st33{fill:#BB8E6B;}
	.st34{fill:#D5BBB6;}
	.st35{fill:#832C2C;}
	.st36{fill:#937B5D;}
	.st37{fill:#484850;}
	.st38{fill:#180A0B;}
	.st39{fill:#CE3029;}
	.st40{fill:#702C2F;}
	.st41{fill:#595046;}
	.st42{fill:#E1A87F;}
	.st43{fill:#847D55;}
	.st44{fill:#C89C75;}
	.st45{fill:#99674F;}
	.st46{fill:#AF7E5C;}
	.st47{fill:#F8F8F8;}
	.st48{fill:#C4C3C2;}
	.st49{fill:#CC302A;}
	.st50{fill:#3A2122;}
	.st51{fill:#D3B3A8;}
	.st52{fill:#CCCDCE;}
	.st53{fill:#A5AAAF;}
	.st54{fill:#D58268;}
	.st55{fill:#D0886C;}
	.st56{fill:#0C0506;}
	.st57{fill:#702D30;}
	.st58{fill:#81A6A4;}
	.st59{fill:#D37D63;}
	.st60{fill:#D38067;}
	.st61{fill:#F3F0EF;}
	.st62{fill:#82A9A6;}
	.st63{fill:#D5BDB8;}
	.st64{fill:#020101;}
	.st65{fill:#EDEDED;}
	.st66{fill:#010101;}
	.st67{fill:#F0F0F0;}
</style>
<g id="Layer_1" class="st0">
</g>
<g id="Layer_2">
	<path class="st1" d="M51.7,49.8c2-0.4,3.6,0.5,5.3,1.4c0.4,0.2,3.1,2.5,2.7,2.5c0.6,0,3.1-0.4,3.9-0.7c1.6-0.8,2.9-5.6,4.7-2.9
		c0.9,1.3,0.1,10.7-0.7,12c-2.6,3.8-1.5-3-1.3-3.9c-0.4,2-0.1,4.5-1.9,5.7c-1,0.6-5.6,0.3-6.7-0.1c-3.9-1.3-1.8-4.4-1.8-7.8
		c-0.2,1.4,0,4.6-0.6,5.6c-1.3,2.1-2.4,0.7-2.7-1.6c-0.2-1.5,0.1-3.6,0.1-5.2c0-1.8-2.1-1.5,1-1.9c-1.2,0.5-1.8,0.3-1.9-0.6
		c0.4-0.9,1.3-0.3,2-0.6C52.6,51.7,50.3,51.5,51.7,49.8z"/>
	<path class="st2" d="M51.7,49.8c0.7,3-0.2,6.5,0.8,10.2c2.1,7.6,2.4-5.7,3.8-5.7c-0.1,4.1-2.9,8.2,2.6,8.7c1.6,0.1,5,0.7,6-0.3
		c1.1-1,1.3-5.4,1.7-6.7c0.3,1-1.4,6.2-0.4,6.6c1.3,0.5,1.7-6.9,1.7-7.6c0.1-1.5,0.2-3.5-0.2-4.9c-0.2-1-0.9-0.1-1.5-0.1
		c0.4-1.2,1.3-1.4,2.3-0.8c1,0.6,0.4,2.7,0.3,3.5c-0.2,2.7-0.4,5.6-0.7,8.4c-0.7,5.3-4.6,3.7-9.2,3.9c-2.5,0.1-2,0.6-3.4,1.8
		c-1.4,1.2-1.6,2-3.2,0.6c-0.6-0.5-0.5-1.8-1.3-2.4c-0.7-0.5-1.6-0.2-2.4-0.6c-1.3-0.6-3.6-1.8-0.8-2.9c-1.3-0.3-1.6,0.8-2.5,1.1
		c-2.3,0.8-0.7,0.8-3.5,0.7c-2.4-0.1-7.5-0.8-2.7-2.1c2.2-0.6,5.6,0.1,4.6-3.9c-1.2-4.5-4.8-0.5-7-1.8c-3-1.9,3-3.9,4.4-5.2
		c2.6-2.3,2.4-2.9,2.7-6.2c0.2-2.6,0.2-6,2.5-4.6c-0.2-0.1,3.2,3.9,3.2,3.6c0,1.3-1.7,0.7-2.2,1.3c-0.9,1-1,1.9-1.2,3.3
		c-0.2,1.5-0.8,7.8,0.3,9.2c2.4,2.9,3.7-1.4,3.9-3c0.4-3.5-0.1-7.2-0.1-10.8c0-1.9,0.2-3.8,0-5.6C50,36.6,49,34.5,49.3,34
		c1.5-2.9,2.3,2.4,2.5,3.8C52.4,41.7,52.4,45.9,51.7,49.8z"/>
	<path class="st3" d="M68.5,68.4c0.2,3.3-3,4.4-4.8,6.5c-2.6,3.1-2.5,2.6-6.2,3.7c-2.9,0.8-4.6,3.2-7.7,2.9
		c-1.3-0.1-1.8-0.2-2.9-0.8c-0.1-0.8-0.5-1.5-1.1-2c-0.6-0.1-1.1,0-1.7,0.2c-1.4-0.2-3.5,1-5.1,1c-1.9,0-3.4-0.6-5.2-1.2
		c-3.3-1.2-6.3-1-9.8-1c-3.6,0-6.5,0.8-9.6-0.8c-1.8-0.9-1.3-1.4-3.4-1.3c-2.3,0.1-2.6,2.4-5.4,1c2.6-1.2,4-3.9,7.1-3.7
		c2.7,0.2,3.7,2.8,6.2,3.3c5.9,1.4,13.9,0.1,19.9-0.2c5.8-0.3,12.7,0.9,18.3-0.3C61.3,75,63.3,65.8,68.5,68.4z"/>
	<path class="st4" d="M9.2,59.6c0-3,0.1-6.2,0.7-9.1c0.4-2.1,2.1-5.6,3.1-1.7c0.1,0.4-0.9,1.7-0.9,2.3c-0.1,1.3,0.1,2.6,0.1,3.8
		c0,1.9-0.7,5.2,1,6.4c1.5,1.2,4.5,0.6,4.8-1.4c0.4-2.6-3.4-4-2.8-6.7c0.4-1.7,3.8-2.3,5.7-3.2c0.8-0.4,2.2-0.6,2.9-1.1
		c0.3-0.2,1-2.3,0.9-2.3c1.9-0.2,0.8,3.9,0.4,4.7c-1.2,2.6-2.2,2.2-1.6,5.6c0.2,1-0.3,1.5,0.1,2.4c0.2,0.4,1.7-0.1,2,0.5
		c0.4,0.7-0.9,1.3-0.7,2c0.1,0.4,0.8,1,0.7,1.4c-0.1,1.8-1.3,4.7-4.1,4.3c-1.8-0.3-1.4-2.5-3.9-3.2C13.5,63.3,8.9,65.8,9.2,59.6z"/>
	<path class="st5" d="M9.2,59.6c1,5.9,6,2.7,9.8,3.9c4.1,1.3,1,6.6-1.5,8.7c-1.2,0.9-5,3.2-6.2,1.2c-1.2-2.1,2.8-3.1-0.1-4.9
		c-2.7-1.7-4.4,2.6-4.8-2.1C6.1,63.9,7.1,61.2,9.2,59.6z"/>
	<path class="st6" d="M15.6,51.6c0.4,2.2,1,3.1,1.8,4.9c0.7,1.3,1.4,1.8,1.1,3.7c-0.3,2.2,0.5,1.7-1.6,2.4c-0.7,0.2-3.9,0.1-4.4-0.2
		c-2.8-1.6-1.2-7.2-1.3-10c-0.1-1.3-1-4,0.9-4.2C13,48,14.5,51.3,15.6,51.6z"/>
	<path class="st7" d="M50,32.9c0.8,3,2.5,16.3-4.4,11c0.6-0.2,2.8-0.4,3.2-0.8c-3.5-0.5-3.1-0.7-4-3.6c-0.9-2.8-0.4-2.8,0-5.3
		c0.5-2.6,0.6-0.3-1-2.6c-0.7-1.1-1.7-0.5-0.9-2.3c0.8-1.9,1.1-1,2.1-0.7C45.6,28.7,49.8,32.4,50,32.9z"/>
	<path class="st5" d="M66.4,69.5c-4.5-0.2-3.9,8-8,3.8c-1.1-1.1-3.8-3.6-4.2-5c0-0.1,0.7-2.4,0.7-3c-0.1-0.7-1.9-0.8-1.6-1.7
		c0.2-0.6,8.3,0.3,9.1,0.3c3.1,0,5.4,0,5.7-3.8c1.3,2.4,2.2,5.7-0.5,6.3c-2.1,0.5-6.3-2.1-8.4-0.6C55.3,68.9,66.1,67.2,66.4,69.5z"
		/>
	<path class="st8" d="M53.8,11.1c-1.9-7-7.3-9.6-13.6-10.1c-3.2-1.2-8.5,1-10.9,2.6c-2.7,1.9-4.7,4.7-5.9,7.9
		c-2.8,7.5-0.4,14.8,5.8,19.8c0.6,1,3,1.6,3.7,0.4c1-1.7-2.6-2.4-3.5-2.9c-3.7-2.4-5.7-7-5.4-11.4c0.3-4.6,2.4-9.4,6.1-12.2
		c2-1.5,4.1-2.2,6.5-2.5c1.3-0.1,3,0.3,4.1-0.4c1.4,1.2,4.3,1,5.7,1.7c1.4,0.7,2.6,2,3.5,3.2c1.7,2.4,2.4,5.4,2.6,8.2
		c0.1,3-0.5,6.1-2,8.7c-0.9,1.6-7.2,6.7-4.1,6.7c3,0,6.8-7.7,7.4-9.9C54.7,17.8,54.7,14.2,53.8,11.1z"/>
	<path class="st9" d="M6.4,68.5c5-0.8,9.1-0.5,4.8,4.8c-1,1.2-2.9,3.5-4.7,3.3c0.9,0.1-6.2-3.2-5.6-2.3c0.5,0.7,1.5-2.5,1.5-2.5
		c1.5-0.6,3.2,1.2,4,1.6c1.1,0.5-0.8,1.2,1,1.1c0.8,0,3.8-3.7,3.8-4.4c0-0.7-3.5-0.5-3.4-0.5C5.8,69.2,6.2,70.2,6.4,68.5z"/>
	<path class="st10" d="M66.4,69.5c-2.4-1.4-5.6,0.6-7.8-0.5c-2-1-1.8-3.2,0.1-4C61.5,63.7,73.1,66,66.4,69.5z"/>
	<path class="st11" d="M24.8,46.6c-1.3,0,0.1-7.3,0.3-8.3c0.6-3.3,1.4-5,4.1-7c1.2,1.4-2.3,5.5-2.6,7.3C26.4,41,27.8,45.1,24.8,46.6
		z"/>
	<path class="st12" d="M5.9,69.7c5.6-2.2,1.6,3.5-1.2,3.3c-0.6,0-2.4-0.5-2.4-1.6C2.4,70.2,4.9,70,5.9,69.7z"/>
	<path class="st13" d="M64.1,52c0.2,1.6-1.5,1.7-2.5,2.3c-0.5-0.9-1.1-1-1.6-0.3c-0.2,0.5-0.5,0.9-0.9,1.3c-0.1,0.1-0.3-2.2,0.3-2.7
		C60.4,51.6,62.7,53.6,64.1,52z"/>
	<path class="st14" d="M2.5,71.7C2.2,77.3-0.2,69.1,2.5,71.7L2.5,71.7z"/>
	<path class="st15" d="M2.6,71.7c-0.4-0.2-0.7-0.3-1.1-0.5c0.3-1.1,1.1-1.4,2.1-0.8C2.9,70.6,2.6,71.1,2.6,71.7z"/>
	<path class="st16" d="M53.3,62.4c-3,0.6-2-9.1-0.4-8.8C54.9,54.1,53.1,60.5,53.3,62.4z"/>
	<path class="st17" d="M51.7,53.1c-0.1-1.1,2.3-0.6,2.8-0.2C53.6,53.3,52.7,53.4,51.7,53.1z"/>
	<path class="st18" d="M45.6,43.9c0.7,0,4.4-0.6,4.9,0c0.7,0.6,0.6,5,0.6,5.9c0,2.4,0.6,8-1.7,9.1C42.9,61.9,45.2,46.5,45.6,43.9z"
		/>
	<path class="st19" d="M35.8,54.8c1.4,0.5,2.5,3,0,3.1c1.9,0.4,3.1,2.8,2,4c-0.9,0.9-9,1.7-9.9,0.9c-1.6-1.4,0.8-5.9,1.9-7.1
		C32,53.1,33.4,53,35.8,54.8z"/>
	<path class="st6" d="M54.9,67.3c-0.8,1.6,2.9,2.6,2.7,4.5c-1.4,0.2-3.2-1.8-4.5-2.4c-2.6-1.2-5.5-0.8-8.2-2.2
		c-2.9-1.4-2.9-1.3-1.6-3.7c0.6-1,1.8-2.6,3-3c0.6-0.2,4.4,0.1,4.1,1.1c-0.4,1.3-3.2-0.8-3.3,1.1c0,0.1,10.3,3.8,5.4,3.7
		c-0.3,0.5-0.2,0.9,0.4,1.2C53.6,67.7,54.2,67.5,54.9,67.3z"/>
	<path class="st20" d="M38,54.8c3.6-3.1,7.5,1,6.1,5c-0.8,2.2-0.8,2.6-3.9,2.1c-2.3-0.4-5.3-1.6-2.2-3.4
		C35.7,58.8,36.5,55.8,38,54.8z"/>
	<path class="st21" d="M42.4,50.4c-2.8,2.8-5.7-2.4-5.1-4.7c0.7-2.3,2.9-4,5.2-3C46.3,44.5,43,47.6,42.4,50.4z"/>
	<path class="st22" d="M32.6,53.8c0,1.3-3.2,4-4.2,3c-1.5-1.6,1.4-7.7,3.3-7.7c1.2,0,0.7,1.1,2.3,1c0.5,0,0.8-0.8,1.2-0.8
		c1.5,0,2.5-0.7,3.9,0.5c-0.2-0.1-0.1,0,0.5,0.6l0,0c0.4,0.6,1.1,1.1,0.2,1.9c-1.2,1.1-1.5-1.5-3-1.1c-2.1,0.5-0.1,2.4-0.3,2.7
		C35.7,55.3,33.5,53,32.6,53.8z"/>
	<path class="st23" d="M27.8,62.3c2,0.1,4.1,0.4,6.2,0.5c0-0.2-4.2-0.1-4.7-0.4c3.2-1.1,6.6-0.2,9.6,0.1c1.6,0.1,3.7-0.7,4.5,1
		c-1.6,2.2-8.6,1.8-11.1,1.8C30.8,65.3,23.2,63.3,27.8,62.3z"/>
	<path class="st24" d="M38,54.8c-0.9,3.9-0.3,1.4,2.2,3.5c-1.7,1.1-2.5,1.3-2.1,3.5c-2.6,0-0.4-0.6-1.2-2.1c-0.2-0.4-1.5-2.2-1.6-2
		c0.4-1.7,2.2-0.3,1-2.9C36.9,54.9,37.4,54.8,38,54.8z"/>
	<path class="st25" d="M42.4,50.4c0.4-1.8-0.7-4.3,2.1-5C44.8,47.5,44.6,49.4,42.4,50.4z"/>
	<path class="st7" d="M44.5,44.5c-0.7,0.1-1.7-0.4-2.2-0.9c-1.2-1.3-0.5-0.2-0.2-1.6c0.1-0.4,2.4-3.5,2.8-3.5
		C45.1,40.2,44.7,42.5,44.5,44.5z"/>
	<path class="st26" d="M35.3,52.5c0-3.7,4.1,0.4,0.5,0.6C36,52.9,35.8,52.7,35.3,52.5z"/>
	<path class="st27" d="M36.8,53.1c0-0.9,0.4-2-1-2.1C38.3,48.7,39.5,53,36.8,53.1z"/>
	<path class="st28" d="M37.6,53.1c-0.1-2.7,2.2-2.1,1-0.4C38.3,52.9,38,53.1,37.6,53.1z"/>
	<path class="st27" d="M38.5,52.6c0-0.6,0-1.1,0-1.7C39.9,51.8,38.6,52.5,38.5,52.6z"/>
	<path class="st27" d="M37.9,53.1c0.2-0.2,0.4-0.3,0.6-0.5C38.3,52.8,38.1,52.9,37.9,53.1z"/>
	<path class="st29" d="M57.5,71.8c1.6-0.2,3.3,4,2.6,4.7c-0.9,0.9-6.3,0.1-7.6,0.1c-2.9,0-5.8,0-8.6,0.1c-5.8,0.1-11.5,0.4-17.3,0.5
		c-2.3,0-6.5,0.8-8.6-0.1c-0.5,0.1-1.1,0.1-1.6,0.1c-0.6-0.4-0.7-0.9-0.2-1.6c-2.9-4,0.4-2.2,3-1.2c3.6,1.4,8.7,0.8,13.1,0.8
		c6,0,11.9,0,17.9,0c1.3,0,6.1,0.8,7.1-0.5C57.7,74.1,57.3,72.6,57.5,71.8z"/>
	<path class="st5" d="M15.6,74.5c0.8,0.1,1.9,0.3,0.6,1.1C16,75.2,15.8,74.8,15.6,74.5z"/>
	<path class="st30" d="M15.7,72.8c2.1-1.4,3.4-5.1,5.7-6c2.9-1.2,1.1,0.6,2.9,1.7c2.1,1.2,1.9-0.4,3.7-0.7c3.2-0.6,6,1.6,9.1,2
		c1.4,0.2,5.3-1.2,6,0.8c1.3,3.6-6.7,3-8,3.1C33.1,73.6,15.2,74.9,15.7,72.8z"/>
	<path class="st19" d="M31.4,49.4c-0.3,1.7-1.3,6-3.2,6.5c-4.4,1.2-3.9-4.1-3.6-6.2c0.4-2.9-0.5-5.9,3.2-6.4
		C31.7,42.7,33.5,46.6,31.4,49.4z"/>
	<path class="st6" d="M24.3,60.8c0.3-0.2,0.5-0.4,0.7-0.7c-0.3-1-2.3,1.2-3.1,0.4c-0.1-0.1,0.8-4.9,1.1-5.1c1.8-1.6,4.9,0.8,5.4,2.5
		c0.7,2.4-1.5,4-1.8,6c1,1.3-1.2,0.2-1.4-0.1C24.8,63.6,24.1,61.3,24.3,60.8z"/>
	<path class="st31" d="M24.4,52.1c0.1,0.9,0.6,1.7,0.3,2.4c-0.4,0.8-1.6,0.4-1.9,1.4C21,53.6,22.1,51.6,24.4,52.1z"/>
	<path class="st32" d="M25.4,64.5c1.2,0.1,3.2,1.1,1.5,2.3C25.5,67.9,24,65.6,25.4,64.5z"/>
	<path class="st33" d="M20.5,56.5c2.2-0.4,0.8,1.8,0.9,2C21.5,58.6,18.4,57.2,20.5,56.5z"/>
	<path class="st34" d="M24.9,65.8c1.4,1.9-1.9,1.2-2.8,0.4C22.9,65.2,23.9,65.6,24.9,65.8z"/>
	<path class="st35" d="M20.5,56.5C17.1,59.6,21.5,51.4,20.5,56.5z"/>
	<path class="st36" d="M24.3,60.8c0.2,0.9,1.7,1.5,0.6,2.7C25,62.5,21.9,62.3,24.3,60.8z"/>
	<path class="st37" d="M15.7,72.8c1.3,2.4,18.1,0.4,21.1,0.2c4.3-0.1,8.6-0.5,13-0.6c1.2,0,9.4-0.6,7.2,1.8
		c-1.6,1.8-10,0.6-12.1,0.6c-4.2,0-8.4,0-12.6,0c-3.4,0-7.7,0.9-11,0.3c-1.1-0.2-6.1-1.4-6.4-2.4C15.2,72.8,15.5,72.8,15.7,72.8z"/>
	<path class="st19" d="M41.8,42.8c-0.8,0-2.3,1.1-2.7,1.1c-2.2-0.3-1.4-2.3-1.4-4.5c0.1-2.8-0.3-4.9,2.1-6.7
		c1.1-0.8,4.4-1.9,5.7-1.6c3.5,0.9-0.7,3.6-1.1,5.9c-0.2,0.9,0.7,2.5,0.1,3.7C43.7,42.3,42.7,41.7,41.8,42.8z"/>
	<path class="st38" d="M44.5,31.3c-3.4,2.1-9.6,5-12.5,0.5C33.1,31.3,44,30.5,44.5,31.3z"/>
	<path class="st39" d="M43,30.4c0.2-0.2,0.3-0.5,0.5-0.7C43.3,30,43.1,30.2,43,30.4z"/>
	<path class="st6" d="M29.9,43.9c-1.6,0.2-3.4-0.7-4.9,0.7c1.6-1.1,0.6-5.6,1.2-7.5c0.9-2.7,2-5.9,4.6-5
		C34.9,33.5,33.2,43.7,29.9,43.9z"/>
	<path class="st18" d="M32.6,36.3c1.3-2.5-3.1-3-2.7-4.9c1.7,0.3,6,1.2,7.3,2.3c1.9,1.6,1,5.1,0.7,7.4
		C37.1,47.9,30.2,41.7,32.6,36.3z"/>
	<path class="st39" d="M47.8,4.1c-0.2,0.1-0.4,0.2-0.5,0.4c-0.4-0.7-1-1.2-1.9-1.6c-1.6-0.8-4-1-6.9-1.1c-4.6-0.2-8.8,1.9-11.7,5.5
		C22.2,13,21.6,24.1,28,28.9c2.5,1.9,7.7,4.2,11,3.7c1.6-0.2,6.2-1.6,7.4-2.8c4.3-0.6,6.9-9.8,7-12.9C53.6,12.3,52,6.7,47.8,4.1z"/>
	<path class="st40" d="M47,7.2c-0.2-1.2-1-2.5,0.8-3.1c-0.6-0.7-1.3-1.1-2.2-1c1,2.5,2,9.3-1.1,10.7C48.4,13.7,47.5,10.7,47,7.2z"/>
	<path class="st41" d="M5.3,72.8c0.6-0.5,4.6-3,2.7-3.9c-0.1,0,4.3,0.1,3.9-0.3c2.2,2.2-0.9,1.9-1.9,2.8c-0.3,0.3-0.9,0.4-1.2,0.7
		c-0.6,0.5,0.7,1.5,0.1,2.1C6.8,76,6.1,72.8,5.3,72.8z"/>
	<path class="st42" d="M9.1,74c-2.8,0.1-1.9-2.7,0.1-3.3C12.8,69.5,10.4,72.4,9.1,74z"/>
	<path class="st43" d="M5.9,73.9C11.9,75.4,3.4,77.1,5.9,73.9z"/>
	<path class="st14" d="M10.1,69c-0.4,0-0.8,0-1-0.5C9.6,68.4,10,68.2,10.1,69z"/>
	<path class="st44" d="M59.8,66.2c1.9-0.7,8.7-0.2,4.9,2.1C63.6,68.9,57.6,68.4,59.8,66.2z"/>
	<path class="st45" d="M59.8,66.2C57.2,69.3,57.3,65.6,59.8,66.2z"/>
	<path class="st46" d="M67.9,67.1C68.4,70.9,64.5,64,67.9,67.1z"/>
	<path class="st4" d="M22.7,55.9c0.1-2.8,3.9-1.5,5-0.4c2.8,2.5,0.7,5.9-1.2,8.6c-1-0.9,1.5-3.6,1.4-4.8
		C27.7,56.5,25.1,55.5,22.7,55.9z"/>
	<path class="st2" d="M29.3,62.4c1.7,0.1,3.7-0.3,5.4,0.4c-1.8,0.5-4.8,0.6-6.4-0.3C28.5,62.4,28.9,62.4,29.3,62.4z"/>
	<path class="st47" d="M41.8,72.7c-0.7-1.6,0.4-0.6,0.8-2.2c-0.3-0.4-0.8-0.6-1.3-0.4c-0.3-0.5,3.6-2.2,2.2,1.6
		c1.5-2.1,4.7-0.7,7.3-1.8c2.1-0.8,2.7-1.8,5,0.5c2.2,2.2,2,2.7-1.3,2.7C51.8,73.1,43.8,74.3,41.8,72.7z"/>
	<path class="st4" d="M33.1,64.6c3.1-1.6,7.3,0.7,10.3-1.1c-0.6,3.9-1.2,1.1,1.9,2.2c0.8,0.3,0.8,1.7,2.5,2c-0.2,0,3.1,0.5,2-0.4
		c2.2,1.7-2.3,2.6-4.4,1.7c-1.6-0.7-2.9-2.4-4.4-3.1C38.6,64.8,35.4,66.3,33.1,64.6z"/>
	<path class="st48" d="M47.8,69c1.9-0.2,2.4-1.3,3.9-0.1c0.9,0.7,0.9,1.2,0.1,1.9C50.9,71.5,44.4,71.6,47.8,69z"/>
	<path class="st27" d="M32.6,36.3c-0.1,2.2-0.8,7.8,3.4,7.4c2.4-0.3,2.9-8.6,0.9-10.1c0.8,0,1.6,0,2.3,0c-0.5,1.4-1.7,9.9-0.1,10.3
		c-2.5,2.1,1.8,6.3-1.8,6.4c-0.5-1.4-0.1-3.6-1.4-4.9c-0.8-0.8-2.8,0.4-3.7-0.1C30.9,44.5,31.3,37.2,32.6,36.3z"/>
	<path class="st27" d="M39.1,49.9c-0.5,0-0.9-0.1-1.1-0.6C38.5,49.3,38.9,49.4,39.1,49.9z"/>
	<path class="st27" d="M40.3,50.9c-0.2-0.2-0.4-0.3-0.6-0.5C39.9,50.6,40.1,50.7,40.3,50.9z"/>
	<path class="st27" d="M39.7,50.4c-0.2-0.2-0.4-0.4-0.6-0.6C39.3,50,39.5,50.2,39.7,50.4z"/>
	<path class="st49" d="M32.1,45.1c2.1-0.4,4.5-2.2,5.4,1c0.5,1.9,0,2.9-1.3,3.7c0.2-0.2-1,0-1.5,0.5C32.5,52.3,31.4,46.6,32.1,45.1z
		"/>
	<path class="st50" d="M32.1,45.1c0.7,1,1.2,3.1,0.9,4.4c-0.1,0.3-0.5,3.6-1.7,2.2c-1.1-1.2,0.8-0.7,0.7-1.4c0-0.6-1.4-0.8-1.7-1.6
		c-0.6-1.7,1.4-3-0.2-4.7C31.3,43.2,31.9,44.1,32.1,45.1z"/>
	<path class="st27" d="M35.2,49.8c0.2-0.1,0.4-0.3,0.6-0.4C35.6,49.6,35.4,49.7,35.2,49.8z"/>
	<path class="st27" d="M35.3,52.5c0.2,0.2,0.4,0.4,0.5,0.6C35.7,52.9,35.5,52.7,35.3,52.5z"/>
	<path class="st27" d="M34.1,50.9c0.2-0.2,0.4-0.4,0.6-0.5C34.5,50.6,34.3,50.7,34.1,50.9z"/>
	<path class="st27" d="M35.8,51c-0.2,0.2-0.3,0.4-0.5,0.6C35.5,51.4,35.6,51.2,35.8,51z"/>
	<path class="st27" d="M34.7,50.4c0.2-0.2,0.4-0.4,0.6-0.6C35,50,34.8,50.2,34.7,50.4z"/>
	<path class="st51" d="M41.7,65.4c0.2,1.5,4.8,1.7,3.7,3.3c-0.5,0.8-2.5-0.2-3.1-0.1c-1.4,0.3-2.7,1.2-4.2,1.8c0.4-0.1,0.7,0,1,0.3
		c-2.7,0-5.4-1-7.8-2.2c0.6-1,1.9-0.2,2.7-0.4c1.3-0.3,1.4-0.4,2.4-1c0.2-0.1,0.5-1.2,0.6-1.4c0.4-0.6,1.3,0.1,1.6-0.3
		c-2.5,0.5-5.2,0.7-7.7,0.5c-2.2-0.1-5.4-0.8-1.6-1.6c2-0.5,11.4-0.1,12.1,0.9C41.4,64.9,41.4,64.9,41.7,65.4z"/>
	<path class="st4" d="M30.9,64.7c-1.3,0.1-4.4,1.3-4.3-0.6C28,64.3,29.6,63.6,30.9,64.7z"/>
	<path class="st21" d="M41.8,42.8c0.2-0.2,0.5-0.3,0.7-0.5C42.3,42.5,42.1,42.6,41.8,42.8z"/>
	<path class="st52" d="M18.9,74.3c7.9-0.5,15.8-0.5,23.7-0.4c3.6,0,7.2,0,10.8,0.1c1.2,0,7.4-0.1,4.9,2c-0.9,0.8-7.3-0.1-8.6-0.1
		c-3.9,0-7.9,0-11.8,0c-1.7,0-20.2,0.6-20.2,0.3C17.7,75.4,18.2,74.7,18.9,74.3z"/>
	<path class="st53" d="M41.8,72.7c1.8,0,16.4-0.2,16.4,0.2c0.1,0.7-26.1,0.5-28.4,0.4C33.7,72.3,37.8,73.2,41.8,72.7z"/>
	<path class="st54" d="M32.6,68.4c-1.7,0.3-3.4,0.2-5.2,0.2c0.4,0.1,3.1,0.1,2.7,1.2c-0.4,1.1-1.7,0-2.4,0c-0.6,0-3.2,0-3.8-0.4
		c-0.8-0.6-0.2-2-1.1-2.5c1.6-0.4,3.6-0.7,5.1-0.8C28.6,66,34.9,65.9,32.6,68.4z"/>
	<path class="st55" d="M39.2,70.7c-0.4-0.1-0.8-0.2-1.2-0.3c0.5-0.4,2.9-1.5,3.5-0.8C41.2,70.6,40.5,70.9,39.2,70.7z"/>
	<path class="st56" d="M31.9,44.9c-0.6-0.4-1.5-0.6-2.1-1c2.5-0.7,0.8-3.3,2.1-4.8C31.9,41,31.9,43,31.9,44.9z"/>
	<path class="st51" d="M32.6,68c-1.3-2-3.1-1-4.8-1.8c-1.5-0.6-0.6-0.8,0-1c0.6-0.2,6.9-0.2,7.2,0.1C36.8,66.7,34.2,68.4,32.6,68z"
		/>
	<path class="st57" d="M30.7,7.9c0.2-0.5,0.5-1.9-0.1-2.2c-0.2,1.6-0.6,3.1-0.9,4.7c-0.4,2.1-1.3,2.9,1.3,3
		C29.9,11.6,29.9,9.7,30.7,7.9z"/>
	<path class="st58" d="M47.8,69c0.1,0.2-0.2,2.5-0.6,2.7c-0.3,0.2-2.2-0.8-2.7-0.8c-0.4,0-0.8,1.7-1.5,1.2c-0.5-0.4,0.8-2.8,1.2-3.1
		C45.8,67.9,46.1,69.1,47.8,69z"/>
	<path class="st59" d="M44,69.6c-0.7,0.2-5,0.1-4.5-1.6C39.6,67.5,45.8,67.8,44,69.6z"/>
	<path class="st60" d="M47.3,71.7c0.5-1,2.7-2.4,3.8-1.1C49.8,71.1,48.6,71.9,47.3,71.7z"/>
	<path class="st23" d="M41.7,65.4c-1.1-0.6,0,0.3-0.6-0.7C41.4,64.9,41.5,65.1,41.7,65.4z"/>
	<path class="st61" d="M34.1,67.3c0.4-0.5,0.7-0.9,1.1-1.4c-1.1-0.8-2.1,0.3-3.3,0.3c-1.5-0.1-2.8-0.6-4.2-0.9c3.7,0,8-0.7,11.6,0.2
		c-1.1,0.3-1.7,0.1-2.2,1.1C37,67,37.8,68.3,37.9,68C37.7,68.5,34.9,69.8,34.1,67.3z"/>
	<path class="st62" d="M34.1,67.3c3.1,1.3-0.1,2.4-1.6,1.1C32.6,67.6,33.1,67.3,34.1,67.3z"/>
	<path class="st63" d="M44,69.6c0-1.1,0.5-1.4,1.4-1.1C45.3,69.2,44.8,69.6,44,69.6z"/>
	<path class="st32" d="M27.6,65.1C26.4,65.1,28,64.6,27.6,65.1z"/>
	<path class="st61" d="M41.2,65.2c-0.1,0.1-0.1,0.1-0.2,0.2C41.1,65.2,41.2,65.1,41.2,65.2z"/>
	<path class="st64" d="M31,13.3c3.3,1.1,6.2,3.9,6.1,7.6c-0.1,3.4-2.9,7.2-6.6,6.8C21.4,26.6,25.7,10.5,31,13.3z"/>
	<path class="st65" d="M32.3,23.3c-2.3-0.3-5.4-2.4-1.6-2.9C33,20,35.7,22.7,32.3,23.3z"/>
	<path class="st66" d="M46.8,13.8c-0.1-1.6-6.5,2.2-7.3,3.3c-2,3-1.5,8,1.6,10.2C48.3,32.3,54.2,17.7,46.8,13.8z"/>
	<path class="st67" d="M43.7,23.8c-3.3-0.1-2.2-2.9,0.4-3C47.3,20.8,46.4,23.6,43.7,23.8z"/>
</g>
</svg>
