<?xml version="1.0" encoding="utf-8"?>
<!-- Generator: Adobe Illustrator 23.0.1, SVG Export Plug-In . SVG Version: 6.00 Build 0)  -->
<svg version="1.1" id="Layer_1" xmlns="http://www.w3.org/2000/svg" xmlns:xlink="http://www.w3.org/1999/xlink" x="0px" y="0px"
	 viewBox="0 0 383.9 437.5" style="enable-background:new 0 0 383.9 437.5;" xml:space="preserve">
<polygon points="345,429.5 274.9,387.1 220.7,429.5 "/>
<polygon points="383.9,377.8 355.1,422.5 307.2,395.7 "/>
<polygon points="192,181.8 164.8,436.5 148.6,415.8 122.4,405.6 122.4,222.2 "/>
<polygon points="110,405.6 91.4,412.5 70.8,435.5 40.4,180.3 110,222.9 "/>
<polygon points="235.9,141.8 117.5,214.2 0,141.8 48.7,77.2 117.5,207.7 190.6,77.2 "/>
<polygon points="182.8,68.7 117.9,186.4 56.8,70.2 "/>
<polygon points="205.9,0 185.7,60.3 145.6,60.3 "/>
<polygon points="207.4,26.1 195.6,68.7 214.3,98.4 "/>
<polygon points="91.4,60.3 34.9,2.9 53.3,60.3 "/>
<polygon points="31.3,31.7 41.7,68.7 25.6,91.2 "/>
<polygon points="152.6,437.5 140.7,421.8 122.4,416.9 122.4,437.5 "/>
<polygon points="111.2,416.9 111.2,437.5 82.5,437.5 96,420.4 "/>
<path d="M210.9,173.3l-8.9,3.5l-26.9,258.7h22.2l76.1-60.8l1.9-86.9L210.9,173.3z M222.8,316.6l-12.3,7.1l12.3,7v7.8l-20-11.8v-6
	l20-11.9V316.6z M230.7,348.9h-6.3l10-49.6h6.3L230.7,348.9z M262.2,326.6l-20,11.9v-7.8l12.3-7.1l-12.3-7v-7.8l20,11.8V326.6z"/>
</svg>
