<?xml version="1.0" encoding="utf-8"?>
<!-- Generator: Adobe Illustrator 23.0.1, SVG Export Plug-In . SVG Version: 6.00 Build 0)  -->
<svg version="1.1" xmlns="http://www.w3.org/2000/svg" xmlns:xlink="http://www.w3.org/1999/xlink" x="0px" y="0px"
	 viewBox="0 0 297.3 509" style="enable-background:new 0 0 297.3 509;" xml:space="preserve">
<style type="text/css">
	.st0{fill:#313332;}
</style>
<g id="Layer_1">
	<g>
		<polygon class="st0" points="151.2,67.1 73,49.2 89.4,88.4 		"/>
		<polygon class="st0" points="137.7,198.1 107.8,339.8 264.8,452.7 232,198.1 		"/>
		<polygon class="st0" points="221.2,43.5 185.1,16 149.1,47.5 185.1,56.6 		"/>
		<polygon class="st0" points="97,105.3 136.4,179.8 234,179.8 297.3,29.2 		"/>
		<path class="st0" d="M64,509h203.4v-31.9L0,284.9L64,509z M130.5,423.7l9.8-9.8l24.7,24.7l-24.7,24.7l-9.8-9.8l14.9-14.9
			L130.5,423.7z M113,391.8h14.1l-16.2,86.4h-14L113,391.8z M93.7,423.7l-14.9,14.9l14.9,14.9l-9.8,9.8l-24.7-24.7l24.7-24.7
			L93.7,423.7z"/>
	</g>
	
		<image style="overflow:visible;" width="500" height="500" xlink:href="../../../../../../../Users/sergi/Desktop/1/jugge/a8a3ccc1d2625712f13a2406dc3d1dee.jpg"  transform="matrix(1 0 0 1 -1103 251)">
	</image>
</g>
<g id="Layer_2">
	<polygon class="st0" points="-272.1,-3.7 -209.9,45.7 -252.3,65.8 	"/>
	<polygon class="st0" points="-268,-7.7 -245.2,-26.3 -196,-20.5 -205.9,43.2 	"/>
	<polygon class="st0" points="-191.6,-13 -196,16.7 -170.9,34.8 	"/>
	<polygon class="st0" points="-445.3,-45.3 -360.3,54 -355.6,51.9 -414.2,-40.8 	"/>
	<polygon class="st0" points="-377.9,72 -361.6,211.3 -323.6,103.6 -353.1,56.4 	"/>
	<polygon class="st0" points="-390.9,204.6 -372.1,170.4 -380.9,86.6 	"/>
	<path class="st0" d="M-277.2-3.5l-140.5-57.2l3.2,5.3l94.7,156l63-32.4L-277.2-3.5z M-357.3-10.5l-8.3,4.8l8.3,4.7v5.3l-13.5-8
		v-4.1l13.5-8V-10.5z M-352,11.4h-4.3l6.8-33.5h4.2L-352,11.4z M-330.7-3.7l-13.5,8V-1l8.3-4.8l-8.3-4.7v-5.3l13.5,8V-3.7z"/>
	<g>
		<path d="M-160.2-133.6l-13.5-8v-4.1l13.5-8v5.3l-8.3,4.8l8.3,4.7V-133.6z"/>
		<path d="M-148.1-160.1l-6.7,33.5h-4.3l6.8-33.5H-148.1z"/>
		<path d="M-147.1-153.7l13.5,8v4.1l-13.5,8v-5.3l8.3-4.8l-8.3-4.7V-153.7z"/>
	</g>
	
		<image style="overflow:visible;" width="450" height="308" xlink:href="../../../../../../../Users/sergi/Desktop/1/jugge/49308639.jpg"  transform="matrix(1 0 0 1 -544.0638 377.4043)">
	</image>
</g>
<g id="Layer_3">
	<polygon points="-702.6,200.2 -657.2,172.8 -622.1,200.2 	"/>
	<polygon points="-727.8,166.8 -709.2,195.7 -678.1,178.3 	"/>
	<polygon points="-603.6,39.8 -585.9,204.8 -575.4,191.4 -558.5,184.8 -558.5,66 	"/>
	<polygon points="-550.5,184.8 -538.4,189.3 -525,204.2 -505.3,38.8 -550.5,66.4 	"/>
	<polygon points="-631.9,13.9 -555.3,60.8 -479.2,13.9 -510.7,-27.9 -555.3,56.6 -602.6,-27.9 	"/>
	<polygon points="-597.6,-33.4 -555.6,42.8 -516,-32.5 	"/>
	<polygon points="-612.5,-77.9 -599.5,-38.9 -573.5,-38.9 	"/>
	<polygon points="-613.5,-61.1 -605.9,-33.4 -618,-14.2 	"/>
	<polygon points="-538.4,-38.9 -501.8,-76.1 -513.7,-38.9 	"/>
	<polygon points="-499.5,-57.4 -506.2,-33.4 -495.7,-18.9 	"/>
	<polygon points="-578,205.5 -570.3,195.3 -558.5,192.1 -558.5,205.5 	"/>
	<polygon points="-551.2,192.1 -551.2,205.5 -532.6,205.5 -541.3,194.4 	"/>
	<path d="M-610,36.6l-5.7-2.2l-41.7,74.1l1.2,56.3l49.3,39.4h14.4L-610,36.6z M-635.5,130.9l-8.3,4.8l8.3,4.7v5.3l-13.5-8v-4.1
		l13.5-8V130.9z M-630.1,152.7h-4.3l6.8-33.5h4.2L-630.1,152.7z M-608.8,137.7l-13.5,8v-5.3l8.3-4.8l-8.3-4.7v-5.3l13.5,8V137.7z"/>
</g>
</svg>
