<?xml version="1.0" encoding="utf-8"?>
<!-- Generator: Adobe Illustrator 23.0.1, SVG Export Plug-In . SVG Version: 6.00 Build 0)  -->
<svg version="1.1" id="Layer_1" xmlns="http://www.w3.org/2000/svg" xmlns:xlink="http://www.w3.org/1999/xlink" x="0px" y="0px"
	 viewBox="0 0 227.2 256" style="enable-background:new 0 0 227.2 256;" xml:space="preserve">
<style type="text/css">
	.st0{fill:#000703;}
	.st1{fill:none;}
</style>
<path class="st0" d="M149,157.1c0.2-3.5-1.2-5.2-1.2-5.2l-1.2-42c0,0-1.9-15.6-1.3-17.7c0.6-2.1,1.5-8.3-0.5-9.5
	c-2-1.1-5.6-2.4-6.8-5.3c-1.2-2.8-0.3-8.2,0.4-12.4c0.8-4.2,2.8-9-3.3-13.7c-6-4.8-13.8-10.7-22.6-10.5c-8.7,0.2-18.9,5.4-26.3,6.3
	c-7.3,0.9-15.7,0.4-19.3-0.8c-3.6-1.2-4.5-4.4-8.1-4.8c-3.7-0.3-3.4,0.2-6,4.6c-2.4,4.4-3.6,17.3-3.6,17.3
	C47.5,71.9,47,75.6,44.6,82c-2.3,6.1,1.8,11.4,3.2,17.2c1.8,7.1-1.6,13.4,0.8,20c0.2,0.5,0.4,1.1,0.6,1.6
	c5.8,17.1,26.3,59.5,23.5,56.9l0-0.1l0-0.1c-1.7,1.7-2.7,8.4,0.1,19.4c2.9,11,22.9,10.1,27.8,10.2c8.7,0.2,28.6-8.2,34-14.8
	c4.5-5.5,5-8.6,10.8-18.1C151.1,164.7,148.9,160.5,149,157.1z"/>
<path class="st0" d="M160.2,120.5c2.8,0.2,3.7-2.4,5.4-6.4c1.9-4.4,1-6.8,1-10c0-3.3,1-5.4,1.3-8.7c0.2-3.1,0-3.2-1.6-1.5
	c-1.6,1.8-2.9,3.7-3.7,5.1c-1,1.7-2.6,7.4-1.6,9.3c1.3,2.5,1.6,4.8,0.8,7.4c-0.8,2.6-3.4,3.7-3.4,3.7S157.4,120.3,160.2,120.5z"/>
<path d="M79.2,163.7c2.5,1.2,7.2,4.5,8.7,4.4c1.5-0.3,4.3-4,4.3-4c-2.8,0-10.4-0.8-10.4-0.8S76.7,162.5,79.2,163.7z"/>
<path class="st1" d="M74.4,143.4c2.4-0.7,4.7-0.7,8-1c3.3-0.3,8.9,0.5,13.3,1.5c4.3,1.1,14.3,1.7,16.6,3.3c2.3,1.5,3.9,6.2,3.9,8.9
	c0,2.7,0.2,6,1.9,7.4c1.9,1.8,3.4-1,4.9-4.2c1.4-3.1,3.9-9.1,7.5-10.8c3.5-1.8,7.9-3.2,9.2-4.9c1.3-1.7,1.7-3.1,3.6-7.9
	c1.8-4.9,3-15.4,3.4-25.7c0,0-1.9-15.6-1.3-17.7c0.6-2.1,1.5-8.3-0.5-9.5c-2-1.1-5.6-2.4-6.8-5.3c-1.2-2.8-0.3-8.2,0.4-12.4
	c0.8-4.2,2.8-9-3.3-13.7c-6-4.8-13.8-10.7-22.6-10.5c-8.7,0.2-18.9,5.4-26.3,6.3c-7.3,0.9-15.7,0.4-19.3-0.8
	c-3.6-1.2-4.5-4.4-8.1-4.8c-3.7-0.3-3.4,0.2-6,4.6c-2.4,4.4-3.6,17.3-3.6,17.3C47.5,71.9,47,75.6,44.6,82
	c-2.3,6.1,1.8,11.4,3.2,17.2c1.8,7.1-1.6,13.4,0.8,20c3.5,9.3,13.2,29.1,13.2,29.1s0,0,3.4-2C68.6,144.2,72,144.1,74.4,143.4z"/>
<path class="st1" d="M160.2,120.5c2.8,0.2,3.7-2.4,5.4-6.4c1.9-4.4,1-6.8,1-10c0-3.3,1-5.4,1.3-8.7c0.2-3.1,0-3.2-1.6-1.5
	c-1.6,1.8-2.9,3.7-3.7,5.1c-1,1.7-2.6,7.4-1.6,9.3c1.3,2.5,1.6,4.8,0.8,7.4c-0.8,2.6-3.4,3.7-3.4,3.7S157.4,120.3,160.2,120.5z"/>
<path class="st1" d="M77.4,173.3c1.6,1,5.7,1.8,9.4,2.3c3.6,0.4,10.4,1.2,14.2-0.3c3.7-1.3,5.7-7.3,6.6-10.1
	c0.8-2.8,2.2-7.1,1.7-10.1c-0.3-1.8-12.2-1.4-15.2-1.4c-3-0.1-13-0.5-16.5-0.4c-3.7,0.1-7.9-0.5-9.8,0.7c-2.2,1.2-3.8,2.1-1.6,5.2
	c2.1,3.1,5,5.7,6.8,8.1S75.6,172.3,77.4,173.3z"/>
<path d="M223,203.2c-1.4-4.2-3.7-8.5-5.4-11c-1.6-2.5-8.1-5.8-9.7-9.6c-1.7-3.8-4.8-5.4-4.8-5.4l-6.4-3.3c0,0-4.6-4.9-7.1-5.8
	c-2.5-0.9-20-4.7-20-4.7s-4.2-4.8-7.1-5.8s-5.1-1.8-5.1-1.8s-0.8-3-2.5-5.1c-1.7-2.1-2.9-3.2-4.1-3.9c-0.2-0.2-1-0.4-1.2-0.5
	c0.6-1.3,1-2.4,1.3-3.7c0.9-4.9,1.7-8.5,2.6-12.8c0,0,8.5-1.9,11.9-5.7c4.6-5,5.6-15,5.7-22.5c0.1-3.4,1.9-6.2,0.5-10.9
	c-1.3-4.7-4.1-1.8-4.7-5.2c1.9-4.2,1.3-14.7,2.1-21.5c1.1-8.6-1.3-18.2-5.7-25.1c-4.7-7.2-2.2-12.6-10.3-20.7
	c-4.2-4.2-7.8-8.3-15.5-10.9c-7.3-2.5-6-4.5-21.1-7c-15.2-1.3-26.9-0.4-36.6,2C64.1,6.2,61.6,9.1,53.1,17.4
	c-4.5,4.4-7.1,19.8-7.2,26.4c-0.1,3.9-0.2,9.3,0.5,11.1c0.7,1.7,1.6,3.6,1.2,4.7c-3.5,12.9-3.1,15.4-6.1,23.2
	c-2.4,6.2,2,11.4,3.5,17.1c1.8,7-1.3,14.2,1.1,20.8c3.2,8.6,7.8,18.4,11.8,27.2c-0.4,0.2-9.4,4.5-12.6,5.8c-3.4,1.3-10.1,5.5-14.1,7
	c-4,1.5-12.1,9.1-15.7,12.1c-3.7,3-13.9,19.5-15.5,30c-0.6,3.8,0.4,12.6,18.6,19.4c8.9,3.3,23.2,22,35.2,26.6
	c25.6,9.7,51.1,3.1,67.4,3.8c6.6,0.3,32.2,5.8,63-4.5s43-28.7,43-28.7S224.3,207.4,223,203.2z M158.4,119.3c0,0,2.6-1.1,3.4-3.7
	c0.8-2.6,0.5-4.9-0.8-7.4c-1-1.9,0.7-7.5,1.6-9.3c0.8-1.4,2.1-3.3,3.7-5.1c1.6-1.7,1.8-1.6,1.6,1.5c-0.3,3.3-1.3,5.4-1.3,8.7
	c0,3.3,1,5.6-1,10c-1.7,4-2.6,6.6-5.4,6.4C157.4,120.3,158.4,119.3,158.4,119.3z M147.9,151.8c0,0,1.3,1.7,1.2,5.2s2,7.6-3.6,17.1
	c-5.8,9.5-6.3,12.5-10.8,18.1c-5.4,6.7-25.3,15.1-34,14.8c-5-0.1-25,0.8-27.8-10.2c-2.8-11-1.8-17.8-0.1-19.4l0,0.1l0,0.1
	c3.6,3.3,8,4.3,13.8,5.6c4.3,1,9.1,1.8,14.1,0.5c5.3-1.5,11-5.3,18.1-9.1c9.4-5.1,16-9.8,21.8-16.3c2-2.3,4.3-4.8,6.2-7.3l0.1-0.1
	C147.2,151,147.9,151.8,147.9,151.8z M48.6,119.1c-2.5-6.6,1-12.9-0.8-20c-1.5-5.7-5.6-11-3.2-17.2c2.5-6.3,2.9-10.1,4.9-18.5
	c0,0,1.2-12.9,3.6-17.3c2.5-4.4,2.3-4.9,6-4.6c3.7,0.3,4.5,3.5,8.1,4.8c3.6,1.2,12,1.7,19.3,0.8c7.3-0.9,17.5-6.2,26.3-6.3
	c8.7-0.2,16.5,5.6,22.6,10.5c6.1,4.7,4.1,9.5,3.3,13.7c-0.7,4.2-1.6,9.5-0.4,12.4c1.2,2.9,4.8,4.2,6.8,5.3c2,1.1,1.1,7.4,0.5,9.5
	c-0.6,2.1,1.3,17.7,1.3,17.7c-0.5,10.3-1.6,20.9-3.4,25.7c-1.8,4.9-2.3,6.2-3.6,7.9c-1.3,1.7-5.6,3.1-9.2,4.9
	c-3.6,1.7-6,7.7-7.5,10.8c-1.4,3.2-2.9,6-4.9,4.2c-1.7-1.5-1.9-4.8-1.9-7.4c0-2.7-1.6-7.4-3.9-8.9c-2.4-1.6-12.3-2.2-16.6-3.3
	c-4.4-1-10-1.8-13.3-1.5c-3.3,0.3-5.6,0.3-8,1c-2.4,0.7-5.8,0.8-9.2,2.8c-3.4,2-3.4,2-3.4,2S52.1,128.4,48.6,119.1z M67.7,153.9
	c1.9-1.1,6.1-0.6,9.8-0.7c3.6,0,13.5,0.4,16.5,0.4c3,0.1,14.9-0.4,15.2,1.4c0.5,3-0.8,7.2-1.7,10.1c-0.9,2.8-3,8.8-6.6,10.1
	c-3.7,1.5-10.6,0.7-14.2,0.3c-3.7-0.4-7.8-1.3-9.4-2.3c-1.7-1-2.6-3.8-4.5-6.1s-4.7-5-6.8-8.1C63.9,156,65.5,155.1,67.7,153.9z"/>
<path d="M154.3,141.4c-2.3,3.2-5.5,1.3-8.6-1l4.2-19.3l10.4-0.7C159.2,126.6,160,133.9,154.3,141.4z"/>
</svg>
