<?xml version="1.0" encoding="iso-8859-1"?>
<!-- Generator: Adobe Illustrator 23.0.1, SVG Export Plug-In . SVG Version: 6.00 Build 0)  -->
<svg version="1.1" id="Layer_1" xmlns="http://www.w3.org/2000/svg" xmlns:xlink="http://www.w3.org/1999/xlink" x="0px" y="0px"
	 viewBox="0 0 500 355.2" enable-background="new 0 0 500 355.2" xml:space="preserve">
<path fill="#313332" d="M0,0l23.1,94.8l0,0L82,337.3l21.4,5.3V197.7c0-3.2,5.1-13.8,48.2-118.2L0,0z"/>
<polygon fill="#313332" points="170.7,170.9 159.1,113 130.2,182.5 "/>
<path fill="#313332" d="M269.9,83.5c-10.3-7.2-41.9-22.9-96.3,2.2l15.9,78.8C210.8,155,260,128.9,269.9,83.5z"/>
<polygon fill="#313332" points="405.3,315.9 414.1,348.1 500,279 "/>
<path fill="#313332" d="M351,194.9l-93.6-51.5c-20.8,19.8-45.5,35-72.6,44.5l-61.7,17.2v150.2h272.5L351,194.9z M252.1,264.1l-13,13
	l-32.7-32.7l32.7-32.7l13,13l-19.7,19.7L252.1,264.1z M274.9,296.8h-18.5l21.3-114.2h18.6L274.9,296.8z M313.7,277.1l-13-13
	l19.7-19.7l-19.7-19.7l13-13l32.7,32.7L313.7,277.1z"/>
</svg>
