<?xml version="1.0" encoding="utf-8"?>
<!-- Generator: Adobe Illustrator 23.0.1, SVG Export Plug-In . SVG Version: 6.00 Build 0)  -->
<svg version="1.1" id="Layer_1" xmlns="http://www.w3.org/2000/svg" xmlns:xlink="http://www.w3.org/1999/xlink" x="0px" y="0px"
	 viewBox="0 0 256 256" style="enable-background:new 0 0 256 256;" xml:space="preserve">
<style type="text/css">
	.st0{fill:#FFFFFF;}
	.st1{fill:#5C3B56;}
	.st2{fill:#C7C1CC;}
</style>
<path class="st0" d="M227.1,97.3c0,39.7-32.2,71.9-71.9,71.9S5.7,132,34.8,86.8c3.4-40.8,80.7-61.4,120.4-61.4
	S227.1,57.6,227.1,97.3z"/>
<path class="st1" d="M172.1,95.7c0,9.6-1.7,18.9-4.8,27.5c0.2-0.2,0.5-0.5,0.7-0.7c5.9-6.4,8.8-14.3,8.8-23.7
	c0-8.4-2.3-15.5-6.9-21.2C171.4,83.4,172.1,89.5,172.1,95.7z"/>
<path class="st1" d="M143.9,81.4c-4.2,0-7.7,1.7-10.6,5.1c-2.9,3.4-4.3,7.7-4.3,12.9c0,5.2,1.4,9.4,4.3,12.6
	c2.9,3.3,6.3,4.9,10.4,4.9c4.1,0,7.7-1.6,10.7-4.9c3.1-3.3,4.6-7.4,4.6-12.6c0-5.1-1.5-9.4-4.5-12.9
	C151.7,83.1,148.1,81.4,143.9,81.4z"/>
<path class="st1" d="M55.9,110.4c0,2.3,0.8,4,2.5,5.2s4.1,1.8,7.3,1.8c3.1,0,5.9-1,8.3-2.9s3.6-4.5,3.6-7.7v-3.1h-11
	C59.5,103.8,55.9,106,55.9,110.4z"/>
<path class="st1" d="M129.3,122.7v8.4h-17.7V43.5h17.7v31.1c4.9-5.4,11.2-8.1,18.9-8.1s14.4,3,20.2,9c0.6,0.6,1.2,1.3,1.7,2
	C161.9,41.2,129.4,14,90.6,14C45.5,14.1,9,50.6,9,95.7s36.5,81.6,81.6,81.6c35.4,0,65.6-22.6,76.8-54.1c-5.7,5.9-12.2,8.8-19.4,8.8
	C140.5,132,134.3,128.9,129.3,122.7z M95.5,131H78.8v-7.7c-4.6,5.7-10.2,8.6-16.9,8.6S49.5,130,45,126.2c-4.6-3.9-6.8-9.1-6.8-15.6
	s2.4-11.3,7.1-14.6c4.7-3.2,11.2-4.8,19.3-4.8h13.2v-0.4c0-6.8-3.6-10.1-10.7-10.1c-3.1,0-6.3,0.6-9.7,1.8c-3.4,1.2-6.3,2.7-8.7,4.5
	l-7.9-11.4c8.3-6.1,17.8-9.1,28.5-9.1c7.7,0,14,1.9,18.9,5.8s7.3,9.9,7.3,18.3V131z"/>
<path class="st1" d="M230.3,107.5c-4.7,5.9-10,8.8-15.9,8.8c-4.5,0-8.4-1.5-11.7-4.5c-3.3-3-5-7.2-5-12.6s1.7-9.6,5-12.6
	c3.3-3,7.3-4.5,12-4.5c2.9,0,5.8,0.7,8.8,2c2.9,1.3,5.4,3.2,7.5,5.7l9.2-12c-3.5-3.7-7.6-6.5-12.3-8.4c-4.7-1.9-9.3-2.8-13.9-2.8
	c-9.1,0-17,3-23.6,9.1s-10,14-10,23.7s3.3,17.6,9.8,23.6c6.6,6,14.6,9,24.1,9s18.4-4.2,26.5-12.7L230.3,107.5z"/>
<path class="st0" d="M74.7,231.2c-2.1,0-3.7-0.5-4.8-1.6c-1.2-1.1-1.7-2.6-1.7-4.5c0-1.3,0.4-2.5,1.2-3.5c0.8-1,1.9-1.8,3.3-2.4
	c1.4-0.6,3.1-0.8,5.1-0.8h4.5v-2.5c0-1.6-0.5-2.8-1.4-3.8s-2.3-1.4-4.2-1.4c-1.1,0-2,0.2-2.8,0.5s-1.6,0.8-2.2,1.3l-0.2,3.3h-2v-4.5
	c0.9-0.8,2-1.4,3.2-1.9s2.5-0.7,4.1-0.7c2.6,0,4.5,0.6,5.9,1.9c1.4,1.3,2.1,3.1,2.1,5.3v10.5c0,0.4,0,0.9,0,1.3
	c0,0.4,0.1,0.8,0.1,1.3l2.6,0.1v1.7h-4.7c-0.2-0.8-0.3-1.4-0.3-1.9c-0.1-0.5-0.1-1-0.1-1.6c-0.8,1.2-1.8,2.1-3.1,2.8
	C77.7,230.8,76.2,231.2,74.7,231.2z M75,229.1c1.5,0,2.9-0.4,4.2-1.2s2.3-1.8,2.9-3.1v-4.6h-4.5c-2.2,0-4,0.5-5.2,1.4
	c-1.3,1-1.9,2.1-1.9,3.5c0,1.2,0.4,2.1,1.2,2.8C72.5,228.7,73.6,229.1,75,229.1z"/>
<path class="st0" d="M91.5,239.1v-1.8l3.2-0.3v-26l-3.3-0.3V209h5.3l0.3,3.3c0.7-1.2,1.7-2.1,2.8-2.7c1.1-0.6,2.5-1,4-1
	c1.7,0,3.2,0.5,4.5,1.4s2.2,2.3,2.9,4c0.7,1.7,1,3.7,1,6v0.4c0,2.2-0.3,4-1,5.6s-1.6,2.8-2.9,3.7s-2.7,1.3-4.4,1.3
	c-1.5,0-2.9-0.3-4-0.9c-1.1-0.6-2.1-1.4-2.8-2.4v9.2l3.4,0.3v1.8L91.5,239.1L91.5,239.1z M103.4,229.2c2.1,0,3.7-0.8,4.8-2.4
	c1.1-1.6,1.6-3.7,1.6-6.3v-0.4c0-1.8-0.2-3.5-0.7-4.9s-1.2-2.5-2.2-3.3s-2.1-1.2-3.5-1.2c-1.6,0-3,0.4-4,1.2s-1.7,1.8-2.2,3.1v10.4
	c0.5,1.2,1.3,2.1,2.3,2.8C100.5,228.8,101.8,229.2,103.4,229.2z"/>
<path class="st0" d="M125.2,231.1c-1.5,0-2.7-0.5-3.6-1.4c-0.8-0.9-1.3-2.5-1.3-4.6V211h-3.8v-2h3.8v-5.6h2.4v5.6h5.1v1.9h-5.1v14.2
	c0,1.4,0.3,2.5,0.8,3.1s1.2,1,2.1,1c0.5,0,0.9,0,1.3-0.1s0.9-0.1,1.4-0.2l0.4,1.7c-0.5,0.1-1,0.3-1.6,0.3
	C126.4,231.1,125.8,231.1,125.2,231.1z"/>
<path class="st2" d="M133.4,230.7V229l3.3-0.3v-25.2l-3.3-0.3v-1.8h3.3h8.4c3,0,5.4,0.6,7.1,1.9c1.7,1.3,2.5,3.2,2.5,5.8
	c0,1.5-0.4,2.8-1.3,4s-2.1,1.9-3.6,2.3c1.2,0.2,2.3,0.6,3.2,1.3s1.6,1.5,2.1,2.5s0.8,2.1,0.8,3.3c0,2.6-0.8,4.6-2.5,6
	s-4,2.1-6.8,2.1L133.4,230.7L133.4,230.7z M139.1,214.6h6.7c2.1,0,3.7-0.5,4.8-1.4s1.7-2.3,1.7-4.1c0-1.9-0.6-3.3-1.8-4.2
	s-3-1.4-5.4-1.4h-6V214.6z M139.1,228.7h7.6c2.2,0,3.8-0.5,5.1-1.6c1.2-1.1,1.8-2.6,1.8-4.5c0-1.2-0.2-2.2-0.7-3.1s-1.2-1.6-2.2-2.1
	s-2.2-0.8-3.6-0.8h-8L139.1,228.7L139.1,228.7z"/>
<path class="st2" d="M160.9,230.7V229l3.3-0.3V211l-3.3-0.3V209h5.7v19.7l3.3,0.3v1.7H160.9z M163.8,202.9v-3.5h2.7v3.5H163.8z"/>
<path class="st2" d="M183,231.1c-1.5,0-2.7-0.5-3.6-1.4c-0.8-0.9-1.3-2.5-1.3-4.6V211h-3.8v-2h3.8v-5.6h2.4v5.6h5.1v1.9h-5.1v14.2
	c0,1.4,0.3,2.5,0.8,3.1s1.2,1,2.1,1c0.5,0,0.9,0,1.3-0.1c0.4-0.1,0.9-0.1,1.4-0.2l0.4,1.7c-0.5,0.1-1,0.3-1.6,0.3
	S183.6,231.1,183,231.1z"/>
</svg>
