<?xml version="1.0" encoding="utf-8"?>
<!-- Generator: Adobe Illustrator 23.0.1, SVG Export Plug-In . SVG Version: 6.00 Build 0)  -->
<svg version="1.1" id="Layer_1" xmlns="http://www.w3.org/2000/svg" xmlns:xlink="http://www.w3.org/1999/xlink" x="0px" y="0px"
	 viewBox="0 0 256 187.5" style="enable-background:new 0 0 256 187.5;" xml:space="preserve">
<style type="text/css">
	.st0{fill:#FFFFFF;enable-background:new    ;}
	.st1{fill:#5E1142;}
</style>
<g>
	<path class="st0" d="M230.6,95.4c0,41.1-33.3,74.5-74.5,74.5S1.4,131.4,31.5,84.6C53.7,50,115,21,156.2,21S230.6,54.3,230.6,95.4z"
		/>
	<g>
		<path class="st1" d="M173.7,93.8c0,10-1.7,19.6-4.9,28.5c0.3-0.3,0.5-0.5,0.8-0.8c6.1-6.6,9.2-14.8,9.2-24.6
			c0-8.7-2.4-16-7.1-21.9C173,81.1,173.7,87.3,173.7,93.8z"/>
		<path class="st1" d="M144.5,78.9c-4.3,0-8,1.8-10.9,5.3c-3,3.5-4.5,8-4.5,13.3s1.5,9.7,4.5,13.1s6.6,5.1,10.8,5.1
			s7.9-1.7,11.1-5.1c3.2-3.4,4.8-7.7,4.8-13s-1.5-9.7-4.6-13.3C152.5,80.8,148.8,78.9,144.5,78.9z"/>
		<path class="st1" d="M53.4,108.9c0,2.4,0.9,4.2,2.6,5.4c1.8,1.3,4.3,1.9,7.5,1.9c3.3,0,6.1-1,8.6-3s3.7-4.7,3.7-8V102H64.4
			C57.1,102.2,53.4,104.4,53.4,108.9z"/>
		<path class="st1" d="M129.4,121.7v8.7H111V39.8h18.3V72c5-5.6,11.6-8.4,19.5-8.4c8,0,14.9,3.1,20.9,9.3c0.6,0.7,1.2,1.4,1.8,2.1
			C163,37.3,129.3,9.3,89.1,9.3C42.6,9.3,4.7,47,4.7,93.8s37.8,84.5,84.5,84.5c36.7,0,67.9-23.4,79.6-56c-5.9,6.1-12.6,9.1-20.1,9.1
			C141,131.4,134.5,128.1,129.4,121.7z M94.3,130.4H77.1v-7.9c-4.7,5.9-10.6,8.9-17.5,8.9c-7,0-12.8-2-17.5-6S35,116,35,109.3
			s2.4-11.7,7.3-15.1c4.9-3.3,11.6-5,20-5H76v-0.4c0-7-3.7-10.5-11.1-10.5c-3.2,0-6.5,0.6-10.1,1.9c-3.5,1.3-6.5,2.8-9,4.7L37.6,73
			c8.6-6.3,18.5-9.4,29.6-9.4c8,0,14.5,2,19.5,6s7.6,10.3,7.6,18.9C94.3,88.5,94.3,130.4,94.3,130.4z"/>
		<path class="st1" d="M240.4,105.9c-4.9,6.1-10.4,9.2-16.5,9.2c-4.6,0-8.7-1.5-12.2-4.6s-5.2-7.4-5.2-13s1.7-9.9,5.2-13.1
			c3.5-3.1,7.6-4.7,12.4-4.7c3,0,6,0.7,9.1,2.1s5.6,3.3,7.8,5.9l9.5-12.5c-3.7-3.8-7.9-6.7-12.8-8.7c-4.8-2-9.6-2.9-14.4-2.9
			c-9.4,0-17.6,3.2-24.5,9.5s-10.3,14.5-10.3,24.6s3.4,18.2,10.2,24.4s15.1,9.3,25,9.3s19-4.4,27.5-13.2L240.4,105.9z"/>
	</g>
</g>
</svg>
