<?xml version="1.0" encoding="utf-8"?>
<!-- Generator: Adobe Illustrator 23.0.1, SVG Export Plug-In . SVG Version: 6.00 Build 0)  -->
<svg version="1.1" id="Layer_1" xmlns="http://www.w3.org/2000/svg" xmlns:xlink="http://www.w3.org/1999/xlink" x="0px" y="0px"
	 viewBox="0 0 256 256" style="enable-background:new 0 0 256 256;" xml:space="preserve">
<style type="text/css">
	.st0{fill:#FDFDFD;}
	.st1{fill:#706949;}
	.st2{fill:#DDB607;}
</style>
<path class="st0" d="M131.2,69.6c-5,0-10,0-15,0C121.3,69.6,126.3,69.6,131.2,69.6z"/>
<path class="st1" d="M255.8,213.1c0-1.2-0.2-1.9-2-1.7c-7.6,0.7-15.5-5.3-17.7-10.5c-3.5-8.2-4.8-16.8-6.6-25.4
	c-3.2-14.8-6.2-29.6-9.5-44.4c-3.4-16.3-6.9-32.6-10.5-48.9c-2.9-13.7-5.8-27.4-8.7-41.1c-0.2-1.1-0.8-1.5-1.9-1.7
	c-7.5,0.1-15.2,0-22.7,0.1c-0.5,0.1-1,0.2-1.5,0.2c-1,0.7-1,1.8-1.2,2.7c-2.1,9.6-4.3,19.1-6.7,28.7c-2.1,7.9-3.7,15.9-5.6,23.8
	c-2.4,10.2-4.5,20.4-6.9,30.6c-2.7,11.2-5.1,22.5-7.8,33.8c-3,12.4-5.5,24.8-8.8,37.1c-0.8,3-2.4,5.7-4.5,8.2
	c-2.2,2.5-5,2.6-7.3,0.2c-1.3-1.3-2.2-2.9-3-4.5c-2.1-4-3.1-8.2-4.2-12.4c-3.5-12.8-5.8-25.8-8.4-38.7c-0.9-4.8-2.4-9.1-6.9-12.6
	c-5.9-4.5-12.6-7.9-20.1-10.2c-1.1-0.3-2.4-0.6-3.4-1.3c0.4-0.5,0.8-0.6,1.2-0.7c6-2.1,11.5-5.2,16.6-8.5c3.5-2.3,4.8-4.8,3.9-8.6
	c-1.5-6.4-2.8-12.9-4.1-19.5c-1.1-5.5-2.1-11-3.5-16.5c-2-8-3.8-16-5.7-24.1c-0.4-1.6-0.4-3.5-1.8-4.9c-0.3-2.5-1.9-2.9-4.7-2.8
	c-26.5,0-52.8-0.1-79.3-0.2c-0.4,0-1.1,0-1.2,0.2c-0.8,1.4-0.5,3-0.3,4.5c0.1,1.2,1.5,0.7,2.4,0.7c6,0.2,10.9,2,13.8,6.5
	c2,3.2,1.6,6.7,1.6,10.1c0,45.7,0,91.4,0,137.2c0,7.5-6.1,12.7-15.2,12.5c-2.6-0.1-3.8,0.5-3.3,2.7c0.1,0.4,0,0.8,0,1.3
	c0,1.1,0.5,1.5,1.9,1.5c17.5-0.1,35-0.1,52.5-0.1c7,0,14-0.7,20.7-2.2c17.2-3.9,30-12,36.4-25.9c0.2-0.3,0.2-0.9,1.2-0.8
	c0.7,5.3,2.5,10.5,1.7,15.9c-0.4,3-2.3,5.2-5.7,6.4c-2.4,0.9-5,1.3-7.6,1.3c-4-0.1-2.1,2.4-2.5,3.8c-0.5,1.8,1.3,1.6,2.7,1.6
	c20.6,0.1,41.3,0.1,62,0.2c0.6,0,1.2,0,1.8,0c1.1,0.1,1.5-0.3,1.6-1.2c0.4-3.9,0.3-4-4.3-4.4c-0.4,0-0.9-0.1-1.3-0.1
	c-7-0.7-10.5-3.7-10.8-9.5c-0.1-1.3,0-2.7,0.1-4c0.8-9.9,3.7-19.5,5.4-29.3c0.2-1.2,0.8-1.5,2.2-1.5c14.4,0,28.9,0.1,43.3,0
	c1.5,0,2.2,0.4,2.4,1.6c0.4,2.4,1,4.8,1.5,7.2c2,8.7,4.3,17.4,4.2,26.4c0,5-2.8,7.8-8.8,9.1c-3.3,0.7-6.6,0.3-10,0.5
	c-0.6,0-1.6-0.2-1.8,0.4c-0.5,1.4-0.5,2.9,0,4.2c0.5,1.2,2.1,0.7,3.2,0.7c19.8,0.1,39.5,0,59.4,0
	C255.9,216.7,255.9,216.7,255.8,213.1z M46.6,44.7c7,0.2,14.2-0.2,21,1.6c9.1,2.2,14.3,7.3,16.9,14.5c1.9,5.4,2.5,10.8,2.6,16.3
	c0.2,9.4,0.4,18.8-2.6,28c-3.5,10.8-12,16.4-25.7,16.8c-4.1,0.2-8.3,0-12.3,0.2c-2,0.1-2.6-0.4-2.6-2.1c0.1-12.2,0-24.3,0-36.5
	s0-24.3,0-36.5C44,45.2,44.5,44.7,46.6,44.7z M87.7,192.1c-2,6.3-5.2,11.8-12.3,15.3c-4.7,2.4-10,3.4-15.5,3.5
	c-4.4,0.2-9,0-13.4,0.2c-2.1,0.1-2.6-0.6-2.6-2.2c0.1-13.3,0-26.5,0-39.7l0,0c0-13.1,0-26.2-0.1-39.3c0-1.9,0.6-2.5,2.9-2.4
	c6.8,0.2,13.7-0.2,20.3,1.1c9.8,1.8,15.8,6.9,18.9,14.5c3,7.4,3.7,15.2,3.9,22.9C90.5,174.7,90.4,183.5,87.7,192.1z M198.7,160.6
	c-12.8-0.2-25.6-0.2-38.3-0.2c-2,0-2.9-0.2-2.5-2.2c2.6-12.2,5.1-24.4,7.6-36.6c2.7-13.1,5.4-26.2,8-39.4c1.8-9,3.6-17.9,5.4-26.9
	c0.1-0.3,0.1-0.7,0.9-0.9c1.2,6.1,2.5,12.2,3.7,18.4c3.5,17.4,7,34.7,10.6,52.1c2.2,11,4.4,22.2,6.7,33.2
	C201.4,159.9,201.2,160.6,198.7,160.6z"/>
<path class="st2" d="M116.9,184.2c1.7,6.6,3.1,13.2,7,19.2c1.2,1.8,2.5,3.6,5.2,3.7c2.6,0.1,4-1.6,5.3-3.3c2.9-3.7,4-7.9,5-12.1
	c4-17.4,8-34.8,12.1-52.3c4-17.3,7.9-34.5,11.9-51.8c1.2-5.4,2.9-10.9,3.4-16.4c-0.9-0.1-1.7-0.3-2.6-0.3c-10.1,0-20.1-0.1-30.2,0
	c-6.6,0-6.6,0.1-6.6,5.8c0,32.4,0,64.8-0.1,97.1c0,0.6,0.3,1.3-0.6,2c-0.2-1.5-0.6-2.7-0.6-4c-0.2-5.6-0.4-11.1-0.9-16.7
	c-1.1-11.1-1.5-22.3-2.2-33.4c-0.6-9.3-1.6-18.6-1.9-28c-0.2-6.9-1.1-13.8-1.2-20.8c0-1.2-0.6-1.8-2.2-1.7c-8.1,0.1-16.8,0.1-25,0.1
	c1.1,4.5,2.2,9.2,3.1,13.9C97.8,93.5,113.6,171,116.9,184.2z"/>
<path class="st0" d="M175,39.8c-2.3,10-4.5,19.9-6.8,29.9c-0.1,0.7-0.2,1.3-1,1.6c-0.4,0.8-1.3,0.6-2,0.6c-9.3-0.2-18.5,0-27.8-0.1
	c-1.8,0-3.6,0.2-5.5,0.2c-2,0.1-2.7,0.9-2.9,2.4c-0.2,1.3-0.2,2.6-0.2,3.9c0,31.1,0,62.2,0,93.3c0,1,0.1,2-0.1,3
	c-0.1,0.7-0.2,1.4-1.1,1.5c-1.1,0.1-1.2-0.7-1.4-1.3c-0.4-1.2-0.7-2.4-0.6-3.6c0.6-8.7-1.6-17.4-2-26.1c-0.2-5.9-0.7-11.7-1.1-17.6
	c-0.7-10.3-1-20.6-2-30.8c-0.5-5,0.1-10.1-0.6-15c-0.3-2.3-0.8-4.7-0.6-7.1c0.1-1.8-0.9-2.4-3-2.3c-6.3,0.1-12.6,0.1-18.9,0
	c-1.2,0-3.2,0.2-4.1-0.8c0,0-4.7-20.1-6.8-28.9c0-0.5,0.1-1,0.1-1.5c-0.2-1.6,0.3-2.6,2.6-1.7c0.9,0.3,2.1,0.2,3.1,0.2
	c26.6,0,53.1,0,79.6,0C172.8,39.3,174,39,175,39.8z"/>
</svg>
