<?xml version="1.0" encoding="utf-8"?>
<!-- Generator: Adobe Illustrator 23.0.1, SVG Export Plug-In . SVG Version: 6.00 Build 0)  -->
<svg version="1.1" id="Layer_1" xmlns="http://www.w3.org/2000/svg" xmlns:xlink="http://www.w3.org/1999/xlink" x="0px" y="0px"
	 viewBox="0 0 256 256" style="enable-background:new 0 0 256 256;" xml:space="preserve">
<style type="text/css">
	.st0{fill:#B9EAEA;}
</style>
<g id="Layer_4">
</g>
<g>
	<g>
		<path class="st0" d="M176.1,37.8c17.2,17.4,25.6,25.9,42.8,43.3c-24.8,26-51,50.7-76.6,76c-14.9,14.8-25,24.6-44.3,32.5
			c-8.7,3.6-40.1,24.2-46.9,12.4c-6-10.4,14-41.8,18.4-52c6.6-15.5,18.3-25,30.3-36.9C125.1,88.1,149.4,61.2,176.1,37.8z M82,150.5
			c-5.9,7.7-23.3,30.7-10.3,37.8c6.1,3.3,34.4-10.9,39-16.1C110.5,171.7,84.2,143,82,150.5z"/>
		<path class="st0" d="M203.5,11.6c15.4-15.7,25.2-15.3,40.6,0.4c14.8,15,16.7,25.2,0.5,39.6C228.4,35.8,220.4,28.1,203.5,11.6z"/>
		<path class="st0" d="M238.4,62c-3.9,3.6-7.8,7.1-11.6,10.6c-17.3-17.3-25.9-25.9-43.3-43.3c3.7-3.4,7.7-7.1,11.5-10.6
			C212.4,36.1,221,44.7,238.4,62z"/>
		<path class="st0" d="M140.7,211.4h75.7v-20.6h-58.9C152.9,197.4,146.9,206.3,140.7,211.4z"/>
		<path class="st0" d="M216.4,169.5v-20.6h-22.7c-3.9,7-10,13.9-13.7,20.6H216.4z"/>
		<path class="st0" d="M43.2,148.9H27.5v20.6h10.1C39.6,163,40.6,155.3,43.2,148.9z"/>
		<path class="st0" d="M27.5,107v20.6h23.1c4-6.4,10.7-13.4,15.2-20.6H27.5z"/>
		<path class="st0" d="M27.5,65.1v20.6h55.1c9.5-6.4,15.1-13.4,25.7-20.6H27.5z"/>
	</g>
</g>
</svg>
