<?xml version="1.0" encoding="utf-8"?>
<!-- Generator: Adobe Illustrator 23.0.1, SVG Export Plug-In . SVG Version: 6.00 Build 0)  -->
<svg version="1.1" id="Layer_1" xmlns="http://www.w3.org/2000/svg" xmlns:xlink="http://www.w3.org/1999/xlink" x="0px" y="0px"
	 viewBox="0 0 451.3 217" style="enable-background:new 0 0 451.3 217;" xml:space="preserve">
<style type="text/css">
	.st0{fill:#505E3E;}
	.st1{fill:#B76C94;}
	.st2{fill:#EF835F;}
	.st3{fill:#FBB513;}
	.st4{fill:#6DBC46;}
	.st5{fill:#5774A8;}
</style>
<g>
	<g>
		<path class="st0" d="M3.6,106.5c5.6-12.6,14.6-21.6,27.6-24.3c14.1-3.1,28.4-3.1,41.3,5.9c8,5.6,11.9,13,12.4,23.1
			c-3.8,0-7.6,0-11.4,0c-1.8,0-2.5-0.6-3.1-2.5c-3.3-11-13.5-15.8-23.3-15.8c-19.7,0.2-29.8,9-32.3,28.6
			c-1.6,12.4-0.3,24.1,8.5,33.5c11.9,13,35.8,11.9,47.5-1.5c3.6-4,2.2-8.3,1.6-12.3c-0.7-4-4.9-2.2-7.7-2.4c-2.8-0.2-5.9,0-9,0
			c-7.6,0-7.4,0-7.2-7.6c0-3.6,1.3-5,4.9-5c9.5,0,19.1,0.2,28.6-0.2c3.6-0.2,4.3,1.5,4.3,4.7c0,13.5,0,27.1,0,40.7
			c0,1.9,0.7,5-2.8,4.1c-2.8-0.6-7.4,2.5-8.3-2.8c-0.7-4.7-1.5-5-5.9-2.5c-20.9,11.7-52.7,7.4-64.9-16.9C1.8,147.7,0,134.8,0,127.7
			C0,120.6,1.8,110.5,3.6,106.5z"/>
		<path class="st0" d="M259,176.1c-7.2,0-13.5,0-19.7-4.1c-4.1-2.7-6.3-6.1-7.4-10.1c-0.7-2.5-3.6-6.8,0.9-8.6
			c5.9-2.4,11.4,0.2,12.8,4.9c0.6,1.6,1.3,2.8,2.5,3.8c4,3.3,16,3.8,20.6,1.1c3.3-1.9,5.5-4.5,4.5-8.6c-0.9-4-4.5-5.2-7.7-6.1
			c-8.3-1.9-16.4-4.1-24.3-7.2c-10.2-4.1-12.3-19.7-4.5-27.4c8.9-8.6,19.3-8.6,30.2-7.4c6.1,0.7,11.4,2.8,15.3,7.7
			c2.2,2.7,2.2,5.8,2.7,8.9c0.2,1.1-0.2,1.9-1.1,2.5c-2.5,1.6-11.7-0.3-13.6-2.7c-5.6-7-13-8.6-20.3-4.1c-1.9,1.3-4.1,3.4-3.6,6.3
			c0.6,2.7,2.7,4,5.5,4.7c7.7,2.2,15.7,4.3,23.2,7c6.7,2.4,12.1,5.9,12.4,14.6c0.3,9.8-2.5,16.7-11,21.8
			C270.4,176.7,264.3,175.9,259,176.1z"/>
		<path class="st0" d="M174.3,147.2c0,8-0.2,16,0,24c0,3.4-0.6,5.8-4.3,4.7c-3.4-0.9-9.2,3.4-9.9-4.1c-0.2-1.1-2.2,0.6-3.4,1.1
			c-9.9,4.7-19.8,5-30.1,1.3c-8.3-3.1-11.5-10.2-11.5-17.8c0-8.5,4.5-15.7,13-19.1c8.3-3.3,16.7-4.5,25.6-4.7c2.4,0,6.1,2.2,6.8-2.4
			s0.2-9.2-4.5-11.1c-3.8-1.5-7.7-3.8-12.4-2.8c-3.3,0.7-5.2-0.2-4.9-4.3c0.3-3.3,0.2-5.8,4.7-5.6c7,0.3,13.9-0.2,20.6,2.8
			c6.3,2.8,9.9,7.6,10.1,14.4c0.3,8,0,15.8,0,24C174,147.2,174.3,147.2,174.3,147.2z M151.8,143.5c-10.5-0.6-14.2,1.8-18.4,4.7
			c-4,2.7-3.8,6.7-3.1,10.7c0.7,4,4,5.5,7.4,5.8c3.1,0.3,6.5,0.6,9.5-0.2c5.2-1.1,10.7-3.3,12.8-8.1c1.5-3.4,1.5-8.3-0.2-11.7
			C158.9,141.9,154.3,144.2,151.8,143.5z"/>
		<path class="st0" d="M304,128.4c0-13.2,0.2-26.3,0-39.4c0-4.3,1.5-5.5,5.6-5.5s5,1.5,4.9,5.2c-0.2,7,0,13.9,0,20.9
			c0,1.5-0.7,3.6,1.3,4.1c1.5,0.6,2.7-0.9,4-1.8c11-8.5,28-5.5,34.4,3.8c2.4,3.3,3.8,6.8,5.5,10.5c5.8,13,0.6,36-10.8,44.1
			c-9.3,6.8-16.7,7.4-27.7,2.2c-2.7-1.3-4.3-3.3-7.2,0.2c-1.6,1.9-5.8,1.3-8.5,0.3s-1.3-3.8-1.3-5.8
			C303.8,154.3,304,141.3,304,128.4C303.8,128.4,304,128.4,304,128.4z M348.7,141c0-2.7,0.2-5.6,0-8.3c-0.7-8.5-6.8-17.8-17.3-16.7
			c-8.3,0.9-15.8,9-15.8,17.8c0,5.8,0,11.5,0,17.3c0,8,1.9,10.8,9.5,13.5c8.3,3.1,13.6,1.9,18.4-3.6
			C348.5,155.2,349,148.1,348.7,141z"/>
		<path class="st0" d="M390.1,140.6c-1.1-11.5,1.9-21.5,11.5-28.4c18.9-13.9,45.8-2.4,49,20.7c1.6,11,0.6,21-5.2,30.8
			c-5.8,9.8-23.6,14.6-34.6,10.8c-9.9-3.4-15.5-9.5-19.3-18.5C389.4,150.9,390.7,145.6,390.1,140.6z M438.5,141.1
			c0-2.8,0.2-5.2,0-7.6c-0.3-9-6.3-15-13.2-17.3c-7-2.4-15.1,1.3-19.4,8.1c-5.9,9.3-5.6,19.4-1.9,29.6c5.2,14.2,20.6,15.5,28.4,7.7
			C438,155.5,438.9,148.5,438.5,141.1z"/>
		<path class="st0" d="M206,117.9c-10.8,1.3-10.8,1.3-10.7,12.3c0,8.1-0.2,16.4,0,24.6c0.2,8.3,1.8,9.9,9.9,9.3
			c3.6-0.2,3.4,1.3,3.4,3.6c0.2,8.1,0.3,8.3-7.6,8c-3.8-0.2-7.7,1.1-11.5-1.1c-6.1-3.3-8.3-8.6-8.3-14.8
			c-0.3-21.9-0.2-43.8-0.2-65.8c0-1.8-0.3-4.1,2.5-3.4c2.2,0.6,5.9-2.2,6.3,1.9c0.7,10.2,6.8,16.7,14.4,22.5
			C204.9,116.1,206.3,115.9,206,117.9z"/>
		<path class="st0" d="M93.7,141.7c0-10.1,0.2-20.3,0-30.5c0-3.1,0.7-4.5,4-4c4.1,0.7,8.9-1.8,12.3,2.5c1.1,1.5,2.7-0.2,3.6-0.9
			c2.7-1.6,5.6-2.4,8.5-2.5c2.4-0.2,6.3-1.9,6.7,2.4c0.2,2.7,2.7,7.2-3.8,8c-2.2,0.2-5.5,1.3-8,3.1c-5.6,4-9,8.3-8.5,15.8
			c0.7,11.7,0,23.4,0.3,35.4c0,3.8-0.9,5-4.9,5c-10.1,0-10.1,0.2-10.1-9.8C93.7,158,93.7,149.7,93.7,141.7z"/>
		<path class="st0" d="M226.7,118c0,10.8,0,21,0,31.4c0,5.8,0,11.5,0,17.3c0,9.3,0,9.2-9.5,9.2c-3.3,0-4.3-0.9-4.3-4.3
			c0.2-16.4,0.2-32.6,0-49c0-3.4,0.7-4.7,4.3-3.8C220.2,119.5,223,119.2,226.7,118z"/>
		<path class="st0" d="M381.2,141.1c0,9.5-0.2,19.1,0.2,28.6c0.2,5.2-3.3,4-5.8,4c-2.5,0-6.1,1.6-5.9-3.8c0.3-19.1,0.3-38.2,0-57.5
			c0-5,2.8-4.1,5.8-4.1c3,0,5.9-1.1,5.8,4C380.9,121.9,381.2,131.6,381.2,141.1L381.2,141.1z"/>
	</g>
	<circle class="st1" cx="219.3" cy="87.2" r="24"/>
	<circle class="st2" cx="263.6" cy="53.8" r="19.1"/>
	<circle class="st3" cx="309" cy="47.8" r="15.5"/>
	<circle class="st4" cx="348.5" cy="61" r="11.9"/>
	<circle class="st5" cx="375" cy="84.9" r="10.8"/>
</g>
</svg>
