<?xml version="1.0" encoding="utf-8"?>
<!-- Generator: Adobe Illustrator 23.0.1, SVG Export Plug-In . SVG Version: 6.00 Build 0)  -->
<svg version="1.1" id="Capa_1" xmlns="http://www.w3.org/2000/svg" xmlns:xlink="http://www.w3.org/1999/xlink" x="0px" y="0px"
	 viewBox="0 0 256 256" style="enable-background:new 0 0 256 256;" xml:space="preserve">
<style type="text/css">
	.st0{fill:#B9EAEA;}
</style>
<path class="st0" d="M256,168.6l-83.1-54.1L150,131.5c-1.4,1-2.9,1.4-4.5,1.5c-1.6,0.1-3.1-0.4-4.5-1.2L118,117.2L49.8,169l129.6,3
	l76.6,44.5V168.6z"/>
<polygon class="st0" points="173.5,208.3 50.1,201.2 15,216.4 15,108.7 28,108.1 28,88.6 0,90.4 0,217.3 0,243.2 53.3,221.5 
	195,232.6 195,207.9 173.5,197.6 "/>
<polygon class="st0" points="256,149.1 256,54 187.8,103.9 "/>
<polygon class="st0" points="43.4,62.9 43.4,153.9 103.1,107.8 "/>
<polygon class="st0" points="256,33.3 256,12.8 43.4,37.8 43.4,43.3 145.4,114.9 "/>
</svg>
