<?xml version="1.0" encoding="utf-8"?>
<!-- Generator: Adobe Illustrator 23.0.1, SVG Export Plug-In . SVG Version: 6.00 Build 0)  -->
<svg version="1.1" id="Layer_1" xmlns="http://www.w3.org/2000/svg" xmlns:xlink="http://www.w3.org/1999/xlink" x="0px" y="0px"
	 viewBox="0 0 256 256" style="enable-background:new 0 0 256 256;" xml:space="preserve">
<style type="text/css">
	.st0{fill:#9E005D;}
</style>
<path class="st0" d="M240.6,232l-87.2-96.1c-2.2-2.1-3.4-4.9-3.4-7.9s1.2-5.8,3.4-7.9L240.6,24c4.5-4.4,12.5-11.4,8-15.8
	c-2.3-2.2-5.2-3.3-8.2-3.3c-2.9,0-5.9,1.1-8.1,3.2l-99.3,96.1c-1.9,1.9-3.5,4-4.9,6.1c-1.4-2.2-3-4.3-4.9-6.1L23.7,8.1
	c-2.3-2.2-5.2-3.2-8.1-3.2c-3,0-5.9,1.1-8.2,3.3c-4.5,4.4,3.5,11.5,8,15.8l87.2,96.1c2.2,2.1,3.4,4.9,3.4,7.9s-1.2,5.8-3.4,7.9
	L15.4,232c-4.5,4.4-12.5,11.4-8,15.8c4.5,4.4,11.8,4.4,16.3,0.1l99.3-96.1c1.9-1.9,3.5-4,4.9-6.1c1.4,2.2,3,4.3,4.9,6.1l99.3,96.1
	c4.5,4.4,11.8,4.3,16.3-0.1C253.1,243.5,245.1,236.4,240.6,232z"/>
</svg>
