<?xml version="1.0" encoding="utf-8"?>
<!-- Generator: Adobe Illustrator 23.0.1, SVG Export Plug-In . SVG Version: 6.00 Build 0)  -->
<svg version="1.1" id="Layer_1" xmlns="http://www.w3.org/2000/svg" xmlns:xlink="http://www.w3.org/1999/xlink" x="0px" y="0px"
	 viewBox="0 0 256 256" style="enable-background:new 0 0 256 256;" xml:space="preserve">
<style type="text/css">
	.st0{fill:#FBFF00;}
</style>
<g>
	<path class="st0" d="M204,49.7c-0.8,0.9-0.6,2,0.7,3.4c0.8,0.8,1.5,1.6,2.3,2.4c0.9-0.8,1.9-1.7,2.8-2.5c-0.7-0.8-1.5-1.6-2.2-2.4
		C206,49,204.9,48.8,204,49.7z"/>
	<path class="st0" d="M109.2,154.9c-0.5,0.6-0.5,1.6,0.2,2.1l0,0c6.2,5.2,11.6,4.5,15,3.1c2.3-1,4.9-1,7.2,0c3.4,1.4,8.8,2.1,15-3.1
		l0,0c0.1-0.1,0.2-0.1,0.2-0.2c0.5-0.7,0.4-1.6-0.3-2.1c-6.9-5.3-18.5-6.4-18.5-6.4s-11.6,1.1-18.5,6.4
		C109.4,154.7,109.3,154.8,109.2,154.9z"/>
	<path class="st0" d="M232.2,86.5c-0.6-1.5-1.2-3-1.8-4.4c-2.2,2.4-3.5,3.7-4.2,4.4l0,0C227.3,86.4,229.4,86.4,232.2,86.5z"/>
	<path class="st0" d="M183.5,218.4c-0.9,0.6-1.8,1.1-2.8,1.7c1.5,2.6,3,5.1,4.5,7.7c1-0.6,2-1.2,3-1.8c3.3-2.1,3.7-4.7,2.2-6.9
		C189,217.3,186.6,216.5,183.5,218.4z"/>
	<path class="st0" d="M234.4,108c-1.2,0.2-1.7,1.3-1.4,3.1c0.2,1,0.3,2.1,0.4,3.1c1.3-0.2,2.5-0.3,3.8-0.5c-0.1-1-0.3-2-0.4-3.1
		C236.5,108.5,235.6,107.7,234.4,108z"/>
	<path class="st0" d="M234.8,156.5c-2.4-0.6-4.8,0.2-5.6,3.1c-0.9,2.9,0.5,4.9,2.9,5.8c2.4,0.9,5,0.1,5.9-3
		C239,159,237.2,157.1,234.8,156.5z"/>
	<path class="st0" d="M128,3.2C59.1,3.2,3.2,59.1,3.2,128c0,35,14.4,66.6,37.6,89.3v-92.4c0-3.1,2.5-5.6,5.6-5.6s5.6,2.5,5.6,5.6
		V227c21,16.2,47.4,25.8,76,25.8c68.9,0,124.8-55.9,124.8-124.8S196.9,3.2,128,3.2z M238.6,128.9c2.3,0,4.7-1.1,4.6-4.6
		c-0.1-2.3-1.2-3.2-2.3-3.7c0-0.7-0.1-1.5-0.1-2.2c2.1,0.5,3.8,2.4,3.9,6c0.1,4.7-2.7,7-6.1,6.8c-3.2-0.1-6-2.4-6.1-6.6
		c-0.1-3.3,1.4-5.2,3.3-5.8c0.1,0.7,0.1,1.4,0.1,2.1c-1.2,0.5-2.1,1.6-2,3.7C234,127.6,236.3,128.8,238.6,128.9z M242.7,106.4
		c-0.5,0.4-1.4,0.5-2.5,0.7c-0.1,0-0.2,0-0.2,0c-1.6,0.3-2.2,1-1.8,3.5c0.1,0.9,0.3,1.9,0.4,2.8c1.7-0.2,3.4-0.4,5.1-0.6
		c0.1,0.8,0.2,1.5,0.3,2.3c-3.9,0.4-7.9,0.8-11.8,1.2c-0.2-1.8-0.4-3.7-0.7-5.5c-0.4-2.9,0.5-4.6,2.4-5c1.5-0.3,2.6,0.6,3.2,1.9
		c0.1-1.1,0.5-2.3,2.6-2.7c0.2,0,0.3-0.1,0.5-0.1c0.8-0.2,1.8-0.3,2.2-0.7C242.5,104.9,242.6,105.7,242.7,106.4z M241.6,100.8
		c-3.8,0.9-7.7,1.8-11.5,2.7c-0.7-3-1.5-6-2.4-8.9c0.5-0.2,0.9-0.3,1.4-0.5c0.7,2.3,1.4,4.7,2,7.1c1.1-0.3,2.2-0.6,3.3-0.8
		c-0.6-2.3-1.2-4.7-2-7c0.5-0.2,0.9-0.3,1.4-0.5c0.7,2.3,1.4,4.7,2,7.1c1.3-0.3,2.6-0.6,3.8-1c-0.7-2.7-1.4-5.4-2.3-8
		c0.5-0.1,1-0.1,1.5-0.2C239.9,94.1,240.9,97.4,241.6,100.8z M234,78.1c-0.8,1-1.6,1.9-2.4,2.9c0.8,1.8,1.5,3.7,2.2,5.5
		c1.2,0.1,2.5,0.2,3.7,0.3c0.3,0.7,0.5,1.4,0.8,2.2c-4.3-0.5-8.6-0.7-12.9-0.8c-0.3-0.8-0.6-1.6-1-2.4c3-3.1,5.8-6.4,8.5-9.9
		C233.3,76.6,233.7,77.4,234,78.1z M231.3,72.5c-3.1,1.6-6.1,3.2-9.2,4.8c0.7,1.4,1.4,2.7,2,4.1c-0.4,0.2-0.9,0.4-1.3,0.6
		c-1.6-3.4-3.3-6.7-5.3-9.9c0.4-0.3,0.8-0.5,1.3-0.8c0.8,1.3,1.6,2.7,2.3,4c3-1.7,6.1-3.3,9.1-5C230.6,71.1,230.9,71.8,231.3,72.5z
		 M222.9,58.6c2,2.8,2.6,5.9-0.6,7.8c-2,1.3-4,2.6-6,3.8c-0.4-0.6-0.8-1.2-1.2-1.8c2-1.3,4-2.6,5.9-3.9c2.3-1.5,1.8-3.5,0.6-5.1
		c-1.3-1.9-3-2.6-5.1-1c-1.9,1.4-3.8,2.9-5.7,4.3c-0.4-0.6-0.9-1.1-1.3-1.7c1.8-1.5,3.7-2.9,5.5-4.4
		C218.2,54.2,220.9,55.8,222.9,58.6z M206.8,43.8c0.6-0.6,1.3-1.3,1.4-1.8c0.6,0.5,1.1,1.1,1.7,1.6c-0.1,0.6-0.8,1.2-1.6,2
		c-0.1,0.1-0.1,0.1-0.2,0.2c-1.1,1.1-1.2,2.1,0.7,4c0.7,0.7,1.4,1.5,2,2.2c1.3-1.1,2.6-2.3,3.8-3.4c0.5,0.6,1.1,1.2,1.6,1.8
		c-3,2.6-6,5.1-9,7.7c-1.3-1.5-2.6-2.9-4-4.3c-2.1-2.2-2.4-4.3-1.2-5.6c1.1-1.1,2.5-1,3.8-0.2c-0.7-1-1-2.3,0.4-3.8
		C206.5,44.1,206.7,44,206.8,43.8z M195.6,33.4c0.4-0.3,0.8-0.7,1.1-1c3.1,2.2,6,4.6,8.8,7.1c-2.6,2.9-5.3,5.9-7.9,8.8
		c-2.5-2.2-5.1-4.3-7.8-6.3c0.3-0.4,0.6-0.8,0.9-1.2c2.2,1.6,4.3,3.2,6.3,4.9c0.7-0.9,1.5-1.7,2.2-2.6c-2-1.7-4-3.3-6.2-4.9
		c0.3-0.4,0.6-0.8,0.9-1.2c2.2,1.6,4.2,3.2,6.2,4.9c0.9-1,1.7-2,2.6-3C200.4,37.1,198,35.2,195.6,33.4z M179.7,32
		c0.7,0.4,1.4,0.8,2.1,1.2c-0.3,1,0,2.1,2,3.3c1.6,1,2.7,1,3.3,0.1s0.1-1.7-2-3.6c-3.6-3.1-3.9-4.7-3.1-6c0.9-1.7,3.6-2,7.3,0.3
		s4.4,4.8,3.6,6.5c-0.7-0.5-1.4-1-2.1-1.4c0.4-1.4-0.3-2.8-2.4-4c-2.2-1.3-3.5-1.2-4-0.2c-0.6,1-0.1,1.9,2.3,4.1
		c3,2.7,3.5,4.3,2.5,5.7c-1.1,1.5-3.3,1.6-6.3-0.2C179.8,35.7,179.1,33.5,179.7,32z M127,225.8l-4.4,11.6c-0.8,2.2-2.9,3.6-5.2,3.6
		c-2.3,0-4.4-1.5-5.2-3.6l-4.4-11.6c-0.3-0.9,0.1-1.9,1-2.3c0.9-0.3,1.9,0.1,2.3,1l4.4,11.6c0.3,0.8,1.1,1.3,1.9,1.3
		c0.9,0,1.6-0.5,1.9-1.3l4.4-11.6c0.3-0.9,1.4-1.4,2.3-1C126.9,223.9,127.3,224.9,127,225.8z M147.6,237.9c0.8,0.6,0.9,1.7,0.3,2.5
		c-0.3,0.4-0.9,0.7-1.4,0.7c-0.4,0-0.8-0.1-1.1-0.4l-7.4-5.9c-0.8-0.6-1.1-1.7-0.8-2.7s1.2-1.6,2.3-1.6h3.5c1,0,1.8-0.8,1.8-1.8
		s-0.8-1.8-1.8-1.8h-8.8v12.3c0,1-0.8,1.8-1.8,1.8s-1.8-0.8-1.8-1.8v-14.1c0-1,0.8-1.8,1.8-1.8H143c2.9,0,5.3,2.4,5.3,5.3
		c0,2.9-2.4,5.3-5.3,5.3h-0.3L147.6,237.9z M159.7,157c0,9.8-6.6,13-10.5,25.1c-2.1,6.4-7.8,12.8-12.7,17.4
		c-4.8,4.5-12.1,4.5-16.8,0c-5-4.7-10.6-11.1-12.7-17.4c-4-12.2-10.5-15.3-10.5-25.1c0-6-0.8-12.9-1.5-18.7c0.9,0.4,1.7,0.7,2.4,1
		c1.2,0.4,2.9,0.9,4.6,1.4c0.5,1.7,1.4,4,2.7,8.1c0.1,0.2,0.2,0.3,0.3,0.5c0.4,0.4,1.1,0.3,1.4-0.1c2-2.5,4.5-4.6,7.2-6.2
		c0.9,0,1.8,0,2.5-0.1c1.6-0.3,3-1.2,4.1-2.3c0.1,0,0.2,0,0.3,0c4.2,0,7.5,3.5,7.5,7.7c0-0.8,0.1-1.7,0.4-2.5
		c1.1-3.3,4.2-5.4,7.4-5.3c1.1,1.1,2.5,2.1,4.1,2.3c0.7,0.1,1.6,0.2,2.5,0.1c2.7,1.6,5.2,3.7,7.2,6.2c0.1,0.1,0.3,0.3,0.5,0.3
		c0.5,0.2,1.1-0.1,1.3-0.6c1.4-4.1,2.2-6.4,2.7-8.1c1.8-0.5,3.4-1,4.6-1.4c0.7-0.2,1.5-0.5,2.4-1C160.5,144.2,159.7,151,159.7,157z
		 M170.1,125.5c0,5.9-7.1,9.6-10.7,10.7c-4.7,1.5-14.4,4.3-19.3,3.6c-2.3-0.4-4.2-2.2-5.5-3.8c-0.7-0.8-2.3-2.8-2.8-4
		c-0.3-0.5-0.8-0.9-1.4-0.9h-4.9c-0.6,0-1.1,0.3-1.4,0.9c-0.5,1.1-2.1,3.1-2.8,3.9c-1.3,1.6-3.2,3.4-5.5,3.8
		c-4.8,0.8-14.6-2.1-19.3-3.6c-3.6-1.1-10.7-4.8-10.7-10.7v-3.8c-1.3-0.3-2.2-1.4-2.2-2.8v-3.7c0-1.4,0.9-2.5,2.2-2.8V109
		c0-4.6,2.1-8.7,5.3-11.4c3.5,0.4,7.1,1.1,10.6,2.3c2.4,0.8,4.5,1.6,6.5,2.3c12.8,4.4,26.6,4.4,39.4,0c2-0.7,4.2-1.4,6.5-2.3
		c3.4-1.2,7-1.9,10.6-2.3c3.3,2.7,5.3,6.8,5.3,11.4L170.1,125.5L170.1,125.5z M154.2,96.9c-2.4,0.8-4.5,1.6-6.5,2.3
		c-12.8,4.4-26.6,4.4-39.4,0c-2-0.7-4.2-1.4-6.5-2.3C87.2,91.7,70.4,95.5,62,98c-0.5,0.2-1.1,0-1.4-0.4c-0.5-0.6-0.5-1.4,0.1-1.9
		c10.7-9.8,25-15.2,37.8-18.1h-0.1l5.4-22.7c-8.4,1.8-17.2-3-20.9-6.8c-2.6-2.6-8.2-1-13.2,1.2c-0.6,0.2-1.2,0.1-1.6-0.3
		c-0.5-0.6-0.5-1.5,0.1-2l5.5-5.2c3.2-3.1,7.9-3.8,11.9-1.9c3.2,1.7,8,1.7,14.6-5C113.3,21.7,128,22.7,128,22.7
		c9.8,0,18.4,7.3,20.6,16.8l9,38.1c12.7,2.9,27,8.3,37.7,18.1c0.4,0.4,0.6,0.9,0.4,1.4c-0.2,0.7-1,1.1-1.7,0.9
		C185.6,95.5,168.8,91.7,154.2,96.9z M175.2,120.6c0,1.6-1.3,2.9-2.9,2.9v-9.4c1.6,0,2.9,1.3,2.9,2.9V120.6z M189.1,227.2
		c-1.8,1.1-3.6,2.2-5.5,3.2c-1.9-3.5-3.8-6.9-5.7-10.4c1.7-0.9,3.4-1.9,5-2.9c3.7-2.3,7.4-2.2,9.5,0.6
		C194.5,220.5,193.4,224.4,189.1,227.2z M204,216.5c-2.7,2.3-5.9,3.3-8.2,0.3c-1.4-1.9-2.9-3.8-4.3-5.6c0.6-0.5,1.2-0.9,1.8-1.4
		c1.5,1.8,3,3.7,4.5,5.5c1.7,2.1,3.8,1.4,5.3,0.1c1.8-1.6,2.5-3.3,0.7-5.2c-1.6-1.7-3.2-3.5-4.8-5.2c0.5-0.5,1.1-1,1.6-1.5
		c1.6,1.7,3.3,3.4,4.9,5.1C208.1,211.2,206.7,214.2,204,216.5z M218.6,201.3c-3.3,0.1-11.1-0.4-12.7-0.7l0,0c1,0.8,2.6,2.2,4.1,3.7
		c1.1,1,2.2,2.1,3.3,3.1c-0.5,0.6-1,1.1-1.6,1.7c-2.8-2.7-5.7-5.5-8.5-8.2c0.7-0.7,1.3-1.4,2-2.1c3.4,0.4,10.7,0.6,12.3,0.6l0,0
		c-1.2-0.8-2.7-2-4.2-3.2c-1.2-0.9-2.3-1.8-3.5-2.8c0.4-0.5,0.8-1.1,1.2-1.6c3.1,2.4,6.3,4.8,9.4,7.2
		C219.8,199.7,219.2,200.5,218.6,201.3z M229,186.1c-0.3,0-0.7-0.2-1.4-0.6c0.4,1,0.4,2.7-1.1,5c-2.5,3.9-6.1,4.4-8.8,2.4
		c-2.9-2.1-3.6-5.6-1.3-9.2c1.8-2.9,4.1-3.9,6.2-3.3c-0.4,0.6-0.7,1.3-1.1,1.9c-1.3-0.2-2.7,0.2-3.9,2.2c-1.8,2.8-0.7,5,1.4,6.5
		c1.9,1.4,4.6,1.5,6.5-1.4c1.8-2.9,0.7-4.5-0.9-5.4c0,0-0.1,0-0.1-0.1c-0.7,1.2-1.4,2.3-2.1,3.5c-0.4-0.3-0.8-0.5-1.3-0.8
		c1.1-1.8,2.2-3.5,3.2-5.3c1.9,1,3.8,2.1,5.6,3.1C229.6,185.1,229.3,185.6,229,186.1z M231.6,181.3c-3.5-1.8-7-3.6-10.5-5.4
		c1.4-2.8,2.7-5.6,3.9-8.5c0.5,0.2,0.9,0.4,1.4,0.6c-0.9,2.3-1.9,4.5-3,6.8c1,0.5,2,1,3.1,1.5c1.1-2.2,2.1-4.4,3-6.7
		c0.5,0.2,0.9,0.4,1.4,0.6c-0.9,2.3-1.9,4.5-3,6.7c1.2,0.6,2.4,1.2,3.6,1.8c1.2-2.5,2.4-5.1,3.4-7.7c0.4,0.3,0.8,0.6,1.3,0.8
		C234.7,174.9,233.2,178.1,231.6,181.3z M239.3,162.8c-1.4,4.5-4.9,5.9-8,4.6c-3.2-1.3-4.8-4.4-3.5-8.5c1.2-3.8,4.1-5.6,7.6-4.8
		C238.5,155,240.8,158.1,239.3,162.8z M243.5,142.9c-2.7,1.7-9.6,5.2-11.1,5.7l0,0c1.3,0.2,3.3,0.6,5.4,1c1.5,0.3,3,0.6,4.4,0.9
		c-0.1,0.7-0.3,1.4-0.4,2.1c-3.9-0.9-7.7-1.7-11.6-2.6c0.2-0.9,0.4-1.8,0.5-2.6c3.1-1.3,9.3-4.8,10.7-5.5l0,0
		c-1.5,0-3.4-0.3-5.3-0.5c-1.5-0.2-2.9-0.4-4.4-0.6c0.1-0.6,0.2-1.3,0.2-1.9c3.9,0.4,7.8,0.9,11.8,1.3
		C243.8,141,243.7,142,243.5,142.9z"/>
</g>
</svg>
