<?xml version="1.0" encoding="utf-8"?>
<!-- Generator: Adobe Illustrator 23.0.1, SVG Export Plug-In . SVG Version: 6.00 Build 0)  -->
<svg version="1.1" id="Layer_1" xmlns="http://www.w3.org/2000/svg" xmlns:xlink="http://www.w3.org/1999/xlink" x="0px" y="0px"
	 viewBox="0 0 256 256" style="enable-background:new 0 0 256 256;" xml:space="preserve">
<style type="text/css">
	.st0{fill:#A02525;}
</style>
<g>
	<path class="st0" d="M204,49.7c-2.8,3.1,2.9,5.9,5.8,3.3C208.6,50.8,206.6,49.7,204,49.7z"/>
	<path class="st0" d="M109.2,154.9c0.1,0.7,0.1,1.4,0.2,2.1c6.8,5.7,30.3,5.8,37.2,0C149.1,154.5,118.3,145.8,109.2,154.9z"/>
	<path class="st0" d="M232.2,86.5c-0.6-1.5-1.2-2.9-1.8-4.4c-1.4,1.5-2.8,2.9-4.2,4.4l0,0C227.3,86.4,229.4,86.4,232.2,86.5z"/>
	<path class="st0" d="M183.5,218.4c-5,1.7-4.4,4.9,1.7,9.4C191.6,224,191.8,213.3,183.5,218.4z"/>
	<path class="st0" d="M234.4,108c-2.4,0.4-2.8,6.6,2.8,5.7C237.5,111.2,236.6,109.3,234.4,108z"/>
	<path class="st0" d="M234.8,156.5c-10-2.5-2.6,8.5-2.7,8.9C231.9,166.1,245.5,159.2,234.8,156.5z"/>
	<path class="st0" d="M128,3.2C18.6,3.2-37.7,140.5,40.8,217.3c0-20.2,0-40.4,0-60.5c0-5.6-2.2-52.1,11.2-31.9c6,9.1,0,44.3,0,54.7
		c0,24.2-7.2,43.5,14.3,56.8c69.8,43,163.9-1.3,182.9-78.4C268.3,80.5,207.8,3.2,128,3.2z M238.6,128.9c8,0,2.2-7.1,2.2-10.5
		c6.5,1.6,4.1,13.5-2.2,12.8c-5.1-0.5-10.1-10.1-2.8-12.4C236.3,122.4,230.8,128.6,238.6,128.9z M242.7,106.4
		c-3.4,2.7-8.8,7.6,1,6.4c0.8,6.4-12.8,7.7-11.8,0.8c0.1-0.9,1.7-13.5,5.2-5.8C237.3,105,242.2,102.7,242.7,106.4z M241.6,100.8
		c-4.7,1.1-21.3-3.2-12.5-6.7c5.4,17.8,2.8-0.4,4.7-1.2c3,10,7.1,8.6,3.5-1.9C241.6,89.9,243,93.2,241.6,100.8z M234,78.1
		c-6,7.4,2.7,6.5,4.3,10.9C207.2,85.4,237.3,85.9,234,78.1z M231.3,72.5c-9,0.8-11.4,3.8-7.2,8.9c-2.3,1.1-7.7-8.6-5.3-10.1
		C224.4,80.4,227.5,65.8,231.3,72.5z M222.9,58.6c3.7,5.2-4.4,14.9-7.8,9.8c10.7-6.9,6.4-13.5-4.3-5.7
		C207.3,57.4,219.2,53.5,222.9,58.6z M206.8,43.8c0.9-2.3,1.9-2.4,3.1-0.2c-0.7,3.9-3,12.1,4.7,5c4.2,5-5.9,13.5-9.4,7.3
		c-0.4-0.8-6.9-12.6,0.6-7.9C205,45.9,205.4,44.5,206.8,43.8z M195.6,33.4c3.1-3.5,6.4-1.5,9.9,6.1c-5.4,6-19.2,7.1-14.8,1.3
		c16.3,11.9,1.8-1.9,3.2-3.8c3.4,6.1,6.4,6.7,8.8,1.9C200.3,37.1,198,35.2,195.6,33.4z M179.7,32c1.1,0.6,5.7,7.1,7.4,4.6
		c1.6-2.5-9.9-8.2-3.8-10.3c3.2-1.1,12,2.5,9.6,7.5c-0.9-0.7-6.8-9-8.5-5.6c-1.9,3.2,7.5,6,4.8,9.8C183.8,39.6,180.6,37.6,179.7,32z
		 M127,225.8c-5.1,29.9-22.3-0.5-18.2-2.3c3.6-1.2,5.2,12.6,9.6,13.3C116.2,236.4,129.1,219.4,127,225.8z M147.6,237.9
		c3.3,2.4-6.4,0.2-9.6-3.1c-4.7-4.8,6.8-3.4,6.8-6.1c0-14.2-20.2,12.3-12.4,12.3c-8.1,0,1.7-16.3,5.3-17.7c9.7-3.9,12.3,5.7,5,10.6
		L147.6,237.9z M159.7,157c0,17.6-20.2,51.7-40,42.5c-18.9-8.8-22.7-44.4-24.7-61.2c0,0,19.7,7.7,9.7,10.5
		c-1.9,0.5,13.8-0.1,5.3-2.7c3.5,1.1,18-15.4,18,2.2c0-14.9,14.1-1.8,18-2.3c7.5-1,4.2-1.7,15.1-7.7
		C160.3,144.5,159.9,150.7,159.7,157z M170.1,125.5c0,10.9-22.5,15.2-30,14.3c-7.4-0.9-6.5-9-14.6-8.7c-8.1,0.3-10.5,9.9-23,6.8
		c-10.5-2.7-15.6-7.8-17.8-17.7c-0.9-4.1-0.4-6.1,1.1-10.4c6.2-17.6,12.7-8.9,28.9-6.2c13.1,2.3,43.9-9.6,51.9-3.6
		C171.8,103.9,170.5,120.1,170.1,125.5z M154.2,96.9c-20.6,6.9-32.4,3.8-52.4,0c-5.6-1.1-40.9,1.1-41.2,0.7
		c-4.8-5.8,34.7-19.3,37.9-20c1.6-7.3,3.5-15.2,5.3-22.7c-0.8,0.2-35.8-6-35.7-5.9c-4.8-5.7,31.3-13.8,32.1-14.1
		c18-7.3,30.6-22.8,46.3,0.3c7,10.4,3.3,26.1,9.7,36.4c3.7,6,41.5,20.4,39.5,25.5C196.4,94.7,156.9,95.9,154.2,96.9z M175.2,120.6
		c0,7.1-3.5-3.1-2.9-6.5C178.7,114.1,173.4,118.9,175.2,120.6z M189.1,227.2c-1.8,1.1-3.7,2.1-5.5,3.2
		C169.8,205,201.6,219.1,189.1,227.2z M204,216.5c-5.8,5-9.1-1-12.5-5.3c0,0,24.6,11.9,7.5-6.2C203.3,200.7,209,212.2,204,216.5z
		 M218.6,201.3c-3.3,0.1-11.1-0.4-12.7-0.7l0,0c2.5,2.2,5,4.5,7.4,6.8c2.7-3.2-21.1-8,4.2-8c-2.6-1.9-5.2-3.9-7.7-6
		C211.9,190.8,221.8,197,218.6,201.3z M229,186.1c-0.3,0-0.7-0.2-1.4-0.6c10,24.9-31.7-12.7-5-5.1c-7.6,11.4,1.9,14.3,1.9,3.7
		c-0.5,3.5-1.6,4.4-3.4,2.7C224.5,181.2,231.2,182.5,229,186.1z M231.6,181.3c-6.3-3.2-12.4-16.2-5.2-13.3
		c-6.8,17.4,2.2,1.3,4.5,2.2c-3.7,9.4-0.2,11.6,4,0.8C239,172.9,237.9,176.4,231.6,181.3z M239.3,162.8c-4.8,15.4-11.8-4-11.5-3.9
		C227.6,158.8,244.3,147.3,239.3,162.8z M243.5,142.9c-2.7,1.7-9.6,5.2-11.1,5.7l0,0c3.3,0.6,6.5,1.2,9.8,1.9
		c0.4-2.9-22.9,2.4-0.8-8.6c-3.2-0.2-6.5-0.6-9.7-1.1C232.2,137.9,244.7,137.7,243.5,142.9z"/>
</g>
</svg>
