<?xml version="1.0" encoding="utf-8"?>
<!-- Generator: Adobe Illustrator 23.0.1, SVG Export Plug-In . SVG Version: 6.00 Build 0)  -->
<svg version="1.1" id="Capa_1" xmlns="http://www.w3.org/2000/svg" xmlns:xlink="http://www.w3.org/1999/xlink" x="0px" y="0px"
	 viewBox="0 0 384 384" style="enable-background:new 0 0 384 384;" xml:space="preserve">
<style type="text/css">
	.st0{fill:#E05B49;}
	.st1{fill:#3A556A;}
	.st2{fill:#EBF0F3;}
	.st3{fill:#D5D6DB;}
	.st4{fill:#64798A;}
	.st5{fill:#FFFFFF;}
	.st6{fill:#E56353;}
	.st7{fill:#1A1A1A;}
	.st8{fill:#666666;}
	.st9{fill:#656565;}
	.st10{fill:#1B1C1D;}
	.st11{fill:#242424;}
	.st12{fill:#379FC4;}
	.st13{opacity:0.1;enable-background:new    ;}
	.st14{opacity:5.000000e-02;enable-background:new    ;}
</style>
<circle class="st0" cx="192" cy="192" r="192"/>
<g>
	<path class="st1" d="M309,102.2v162.9H75V102.2c0-3.4,2.7-6.1,6.1-6.1h221.7C306.2,96.1,309,98.9,309,102.2z"/>
	<rect x="62.9" y="265.2" class="st2" width="258.3" height="16.9"/>
	<g>
		<polygon class="st3" points="320.8,282 63.2,282 80.8,287.4 303.2,287.4 		"/>
		<rect x="174" y="271.6" class="st3" width="36.1" height="3.9"/>
	</g>
	<rect x="89.3" y="109.2" class="st4" width="205.5" height="24.8"/>
	<rect x="97.2" y="116" class="st2" width="128.7" height="11.3"/>
	<rect x="89.2" y="134" class="st5" width="205.5" height="115.9"/>
	<path class="st6" d="M286.3,122.8h-36.5c-1.7,0-3-1.3-3-3v-2.4c0-1.7,1.3-3,3-3h36.5c1.7,0,3,1.3,3,3v2.4
		C289.3,121.5,288,122.8,286.3,122.8z"/>
	<g>
		<path class="st7" d="M280.9,80.6c-1.8,2.5-33.5,48.3-47.6,68.6c1.5,2.1,8.6,7.2,10.5,7.3c0.3-0.4,0.6-0.7,0.8-1.1
			c8.7-12.5,39.8-57.5,46.7-67.5C290.5,86.3,283.5,81.3,280.9,80.6z"/>
		<path class="st8" d="M233.4,149.2c-2.2,2.5-3.5,6-7,7.4c0.4-0.1,0.8-0.3,1.1-0.2c0.4,0.1,0.1,0.5-0.1,0.7c-2.6,3.3-4.9,7-7.7,10.2
			c-0.1,0.2-0.2,0.5-0.4,0.7c-2.8,3.8-5.4,7.8-8.5,11.3c-0.5,1.1-6.8,9-8.7,12.4c1.8-0.8,12,7.6,12,7.6c0.6,0.4,0.8,0.9,0.5,1.5
			c0.6-0.3,0.8-0.6,1.1-1.1c9.4-14.4,18.7-28.9,28.1-43.3C241.9,156.4,234.9,151.3,233.4,149.2z"/>
		<path class="st7" d="M214.2,199.4c0,0-10.2-8.4-12-7.6c-1.1,3.8-2.2,7.6-3.4,11.4l6.7,4.6c3-2.3,6.1-4.6,9.1-6.9
			C215,200.2,214.9,199.8,214.2,199.4z"/>
		<path class="st7" d="M296.9,68.9c-1.4-1-3.3-0.9-4.6,0.5c-0.5,0.6-0.9,1.2-1.3,1.9c-1,1.5-1,1.5-2.2,0.9c-1.1-0.5-2.1,0-2.8,1
			c-0.6,0.9-1.5,1.7-1.8,2.9c2.9,1.3,9.7,6.3,10.5,6.9c0.6-0.8,1.2-1.6,1.8-2.4c0.6-0.9,0.9-2,0.2-2.8c-1.2-1.2-1-1.4,0.2-3.1
			c0.3-0.4,0.6-0.9,0.9-1.3C298.7,71.8,298.3,70,296.9,68.9z"/>
		<path class="st9" d="M284.2,76.1c-1.3,1.3-2.3,2.9-3.3,4.5c2.6,0.7,9.6,5.7,10.5,7.3c1.2-1.6,2.4-3.1,3.3-4.9
			C293.9,82.4,287.1,77.4,284.2,76.1z"/>
		<path class="st10" d="M196.4,212.1l0.1,0.1c-0.3,0.6-0.6,1.2-1,1.8c-0.2,0.3,0,0.6,0.3,0.8c0.4,0.2,0.6,0.2,0.8-0.2
			c0.4-0.5,0.8-1.1,1.1-1.6l0.2,0.1c0,0,3.9-2.5,5.9-4.1l-5.6-3.9C197.4,207.5,196.4,212.1,196.4,212.1z"/>
		<path class="st11" d="M217.6,168.9c-2.1,2.7-4.3,5.5-6.5,8.2c-0.6,0.7-0.8,1.4-0.3,2.3c3.1-3.5,5.7-7.5,8.5-11.3
			C218.6,168,218.1,168.3,217.6,168.9z"/>
		<path class="st11" d="M227.5,156.4c-0.3-0.1-0.7,0.1-1.1,0.2c-2.1,3-4.2,6-6.3,8.9c-0.4,0.6-0.8,1.1-0.4,1.9
			c2.8-3.2,5.1-6.9,7.7-10.2C227.6,157,227.9,156.5,227.5,156.4z"/>
		<path class="st12" d="M198.3,205.1l5.6,3.9l1.7-1.3l-6.7-4.6C198.7,203.8,198.5,204.4,198.3,205.1z"/>
	</g>
</g>
<g>
	<path class="st13" d="M307.3,98.5l-0.9-0.9c-1.1-0.9-2.4-1.5-3.9-1.5H80.8c-3.4,0-6.2,2.7-6.2,6.1v162.9H62.4V282h0.4l99.7,99.7
		c9.6,1.5,19.4,2.2,29.4,2.2c106,0,192-86,192-192c0-5.9-0.3-11.8-0.8-17.6l-75.6-75.6L307.3,98.5z"/>
</g>
<g>
	<path class="st14" d="M298.9,70.7l-0.9-0.9c-1.1-0.9-2.4-1.5-3.9-1.5l-98.2,146.1l122.9,121.9c40-35.2,65.3-86.8,65.3-144.3
		c0-13.6-1.4-26.9-4.1-39.7L299.1,71L298.9,70.7z"/>
</g>
</svg>
