<?xml version="1.0" encoding="iso-8859-1"?>
<!-- Generator: Adobe Illustrator 23.0.1, SVG Export Plug-In . SVG Version: 6.00 Build 0)  -->
<svg version="1.1" id="Capa_1" xmlns="http://www.w3.org/2000/svg" xmlns:xlink="http://www.w3.org/1999/xlink" x="0px" y="0px"
	 viewBox="0 0 400 400" enable-background="new 0 0 400 400" xml:space="preserve">
<g>
	<g>
		<path fill="#5E5E5E" d="M312.5,100h-300C5.6,100,0,105.6,0,112.5v13.8l162.5,72.5L325,126.3v-13.8C325,105.6,319.4,100,312.5,100z
			"/>
	</g>
</g>
<g>
	<g>
		<path fill="#5E5E5E" d="M400,325l-100-75v50h-37.5c-55.3,0-100,44.8-100,100l6-6c28.3-28.3,66.2-44,106.3-44H300v50L400,325z"/>
	</g>
</g>
<g>
	<g>
		<path fill="#5E5E5E" d="M167.6,223.9c-1.6,0.7-3.4,1.1-5.1,1.1s-3.5-0.4-5.1-1.1L0,153.6v158.9c0,6.9,5.6,12.5,12.5,12.5h150.6
			c22.8-30.2,58.7-50,99.4-50H275v-25c0-9.5,5.4-18.1,13.8-22.4c8.5-4.2,18.6-3.3,26.2,2.4l10,7.5v-83.9L167.6,223.9z"/>
	</g>
</g>
</svg>
