<?xml version="1.0" encoding="utf-8"?>
<!-- Generator: Adobe Illustrator 23.0.1, SVG Export Plug-In . SVG Version: 6.00 Build 0)  -->
<svg version="1.1" id="Capa_1" xmlns="http://www.w3.org/2000/svg" xmlns:xlink="http://www.w3.org/1999/xlink" x="0px" y="0px"
	 viewBox="0 0 197.4 399.8" style="enable-background:new 0 0 197.4 399.8;" xml:space="preserve">
<style type="text/css">
	.st0{fill:url(#SVGID_1_);}
</style>
<g>
	<linearGradient id="SVGID_1_" gradientUnits="userSpaceOnUse" x1="97.7723" y1="97.1308" x2="127.7723" y2="608.1308">
		<stop  offset="0" style="stop-color:#F1F1F1"/>
		<stop  offset="0.7963" style="stop-color:#A1A1A1"/>
	</linearGradient>
	<path class="st0" d="M190.2,0h-47.5C89.6,0,55,38.6,55,98.4v45.3H7.6c-4.2,0-7.6,3.7-7.6,8.3v65.6c0,4.6,3.4,8.3,7.6,8.3H55v165.6
		c0,4.6,3.4,8.3,7.6,8.3h62.3c4.2,0,7.6-3.7,7.6-8.3V225.4h55.8c4.2,0,7.6-3.7,7.6-8.3v-65.6c0-2.1-0.8-4.2-2.3-5.8
		c-1.5-1.7-3.4-2.5-5.3-2.5h-56.2V105c0-18.3,4.2-27.8,25.8-27.8h31.9c4.2,0,7.6-3.7,7.6-8.3V8.3C197.4,3.7,194.4,0,190.2,0z"/>
</g>
</svg>
