<?xml version="1.0" encoding="utf-8"?>
<!-- Generator: Adobe Illustrator 23.0.1, SVG Export Plug-In . SVG Version: 6.00 Build 0)  -->
<svg version="1.1" id="Layer_1" xmlns="http://www.w3.org/2000/svg" xmlns:xlink="http://www.w3.org/1999/xlink" x="0px" y="0px"
	 viewBox="0 0 256 256" style="enable-background:new 0 0 256 256;" xml:space="preserve">
<style type="text/css">
	.st0{fill:#B9EAEA;}
</style>
<g id="Layer_4">
</g>
<g>
	<path class="st0" d="M220.7,137.5c0,0,15.5,7.5,17.1,8.7c5.8,4.1,11.1,0.1,11.1-4.4c0-7.1,0-28.4,0-28.4c0-1.9-1-3.8-2.6-4.9
		l-32-25.5V47.5c0-5.2-4.2-9.4-9.4-9.4h-20c-5.2,0-9.4,4.2-9.4,9.4v7.9l-43.6-31c-2.3-1.6-5.5-1.6-7.8,0l-114.4,84
		c-1.6,1.2-2.6,3-2.6,4.9v28.4c0,5.1,6.1,7.9,10.4,4.9l17.9-9.2L35,232.9h25V138c0-3.4,2.9-6.1,6.5-6.1h43.1c3.6,0,6.5,2.8,6.5,6.1
		v94.9h104.8L220.7,137.5z M204.2,184c0,3.4-2.9,6.1-6.5,6.1h-58.9c-3.6,0-6.5-2.8-6.5-6.1v-46c0-3.4,2.9-6.1,6.5-6.1h58.9
		c3.6,0,6.5,2.8,6.5,6.1L204.2,184L204.2,184z M128,72.7L20,129.4v-13.1l108-79.5l108,79.5v13.1L128,72.7z"/>
</g>
</svg>
