<?xml version="1.0" encoding="utf-8"?>
<!-- Generator: Adobe Illustrator 23.0.1, SVG Export Plug-In . SVG Version: 6.00 Build 0)  -->
<svg version="1.1" id="Layer_1" xmlns="http://www.w3.org/2000/svg" xmlns:xlink="http://www.w3.org/1999/xlink" x="0px" y="0px"
	 viewBox="0 0 400 400" style="enable-background:new 0 0 400 400;" xml:space="preserve">
<style type="text/css">
	.st0{fill:url(#XMLID_2_);}
</style>
<g id="XMLID_504_">
	<linearGradient id="XMLID_2_" gradientUnits="userSpaceOnUse" x1="167.6183" y1="60.2595" x2="316.6183" y2="703.2595">
		<stop  offset="0" style="stop-color:#F1F1F1"/>
		<stop  offset="0.7963" style="stop-color:#A1A1A1"/>
	</linearGradient>
	<path id="XMLID_505_" class="st0" d="M51.3,0h297.3C376.9,0,400,23.1,400,51.3v297.3c0,28.3-23.1,51.3-51.3,51.3H51.3
		C23.1,400,0,376.9,0,348.7V51.3C0,23.1,23.1,0,51.3,0z M291.3,44.4c-9.9,0-18,8.1-18,18v43.1c0,9.9,8.1,18,18,18h45.2
		c9.9,0,18-8.1,18-18v-43c0-9.9-8.1-18-18-18C336.5,44.4,291.3,44.4,291.3,44.4z M354.8,169.2h-35.2c3.3,10.9,5.2,22.4,5.2,34.4
		c0,66.5-55.7,120.4-124.4,120.4S76,270,76,203.5c0-12,1.9-23.5,5.2-34.4H44.4V338c0,8.8,7.2,15.9,15.9,15.9h278.5
		c8.8,0,15.9-7.1,15.9-15.9V169.2H354.8z M200.4,121.3c-44.4,0-80.4,34.8-80.4,77.9c0,42.9,36,77.9,80.3,77.9
		c44.4,0,80.4-34.8,80.4-77.9S244.8,121.3,200.4,121.3z"/>
</g>
</svg>
