<?xml version="1.0" encoding="utf-8"?>
<!-- Generator: Adobe Illustrator 23.0.1, SVG Export Plug-In . SVG Version: 6.00 Build 0)  -->
<svg version="1.1" xmlns="http://www.w3.org/2000/svg" xmlns:xlink="http://www.w3.org/1999/xlink" x="0px" y="0px"
	 viewBox="0 0 384 384" style="enable-background:new 0 0 384 384;" xml:space="preserve">
<style type="text/css">
	.st0{fill:#45B39C;}
	.st1{opacity:0.1;}
	.st2{fill:#6FD16F;}
	.st3{fill:#1B3C4C;}
</style>
<g id="Layer_3">
	<circle class="st0" cx="192" cy="192" r="192"/>
</g>
<g id="Layer_2">
	<path class="st1" d="M192,66.6c-69.3,0-125.4,56.2-125.4,125.4c0,37.6,16.5,71.3,42.7,94.2l97.5,97.2
		c93.5-7.1,168.3-81.2,176.5-174.3l-87.2-87.2C273.5,88.5,235.3,66.6,192,66.6z"/>
</g>
<g id="Capa_1">
	<circle class="st2" cx="192" cy="192" r="125.4"/>
	<g>
		<g>
			<path class="st3" d="M296.2,122.2l-3.8,1.2l-20,1.8l-5.6,9l-4.1-1.3l-15.9-14.3l-2.3-7.5l-3.1-8l-10-9l-11.8-2.3l-0.3,5.4
				l11.6,11.3l5.7,6.7l-6.4,3.3L225,117l-7.8-3.2l0.3-6.3l-10.2-4.2L204,118l-10.3,2.3l1,8.2l13.4,2.6l2.3-13.1l11,1.6l5.1,3h8.2
				l5.6,11.3l14.9,15.1l-1.1,5.9l-12-1.5l-20.8,10.5l-15,18l-1.9,8h-5.4l-10-4.6l-9.7,4.6l2.4,10.3l4.2-4.9l7.4-0.2l-0.5,9.2
				l6.2,1.8l6.2,6.9l10.1-2.8l11.5,1.8l13.3,3.6l6.7,0.8l11.3,12.8l21.8,12.8l-14.1,26.9l-14.9,6.9l-5.6,15.4l-21.5,14.4l-2.3,8.3
				c6.9-1.7,13.5-3.9,19.9-6.6c22.6,5.9,45.9,6.7,69.6,5.6c-11.5-14.9-20-28.8-22.3-40.9c18-21.7,28.8-49.5,28.8-79.9
				C317.4,166.2,309.6,142.1,296.2,122.2z"/>
			<path class="st3" d="M206.4,257.6l-9.1-16.9l8.4-17.5l-8.4-2.5l-9.4-9.5l-20.9-4.7l-6.9-14.5v8.6H157l-18-24.4v-20l-13.2-21.4
				l-20.9,3.7H90.9l-7.1-4.6l9-7.2l-9,2.1c-10.9,18.6-17.2,40.1-17.2,63.2c0,69.3,56.1,125.4,125.4,125.4c5.3,0,10.6-0.5,15.7-1.1
				l-1.3-15.2c0,0,5.8-22.6,5.8-23.3C212.2,277,206.4,257.6,206.4,257.6z"/>
			<path class="st3" d="M113.2,107l22.3-3.1l10.3-5.6l11.6,3.3l18.5-1l6.3-9.9l9.2,1.5l22.4-2.1l6.2-6.8l8.7-5.8l12.3,1.9l4.5-0.7
				C229.2,71,211.1,66.6,192,66.6c-38.9,0-73.7,17.7-96.7,45.6h0.1L113.2,107z M197.3,79l12.8-7.1l8.2,4.8l-11.9,9.1L195,86.9
				l-5.1-3.3L197.3,79z M159.4,80.1l5.7,2.4l7.4-2.4l4,7l-17.1,4.5l-8.2-4.8C151.1,86.7,159.2,81.6,159.4,80.1z"/>
		</g>
	</g>
</g>
</svg>
