<?xml version="1.0" encoding="utf-8"?>
<!-- Generator: Adobe Illustrator 23.0.1, SVG Export Plug-In . SVG Version: 6.00 Build 0)  -->
<svg version="1.1" id="Capa_1" xmlns="http://www.w3.org/2000/svg" xmlns:xlink="http://www.w3.org/1999/xlink" x="0px" y="0px"
	 viewBox="0 0 256 256" style="enable-background:new 0 0 256 256;" xml:space="preserve">
<style type="text/css">
	.st0{fill:#B9EAEA;}
</style>
<g>
	<path class="st0" d="M232.3,178.2V39.5c0-5.6-2.3-8.4-7.7-8.4H31.4c-5.1,0-7.7,2.5-7.7,8.4v138.6L0,222.9c0,8.6-0.1,15.5,7.7,15.5
		h240.6c7.8,0,7.7-7,7.7-15.5L232.3,178.2z M147.1,231h-37.8c-1.2,0-2.4-1.3-2.4-2.7s1.2-2.7,2.4-2.7h37.8c1.1,0,2.2,1,2.4,2.2
		C149.7,229.8,148.4,231,147.1,231z M88.8,220.8l7.2-16.6h63.6l7.2,16.6H88.8z M217.2,166.8c0,4.9-0.4,5.7-5.2,5.7H44
		c-4.5,0-5.2-0.4-5.2-5.7v-119c0-4.9,0.4-5.7,5.2-5.7h168c4.5,0,5.2,0.4,5.2,5.7V166.8z"/>
</g>
</svg>
