<?xml version="1.0" encoding="iso-8859-1"?>
<!-- Generator: Adobe Illustrator 23.0.1, SVG Export Plug-In . SVG Version: 6.00 Build 0)  -->
<svg version="1.1" id="Capa_1" xmlns="http://www.w3.org/2000/svg" xmlns:xlink="http://www.w3.org/1999/xlink" x="0px" y="0px"
	 viewBox="0 0 256 256" enable-background="new 0 0 256 256" xml:space="preserve">
<g>
	<g>
		<path fill="#EEE5E5" d="M213.2,179.4v-33.6h-12.1v26.7c0,4.1-3.3,7.7-7.7,7.7H41.9c-4.1,0-7.7-3.3-7.7-7.7V81.8
			c0-4.1,3.3-7.7,7.7-7.7h86.6v-7.7H31c-4.7,0-8.8,3.8-8.8,8.8v52.3v52.3v8.8L0.4,214.1c0,7.1,5.8,13,13,13h208.8
			c7.1,0,13-5.8,13-13L213.2,188V179.4L213.2,179.4z M135.1,222.9h-34.6c-1.1,0-2.2-1.1-2.2-2.2c0-1.1,1.1-2.2,2.2-2.2h34.6
			c1.1,0,2.2,1.1,2.2,2.2C137.4,221.8,136.2,222.9,135.1,222.9z M81.8,214.1l6.6-8h58.3l6.6,8C153.6,214.1,81.8,214.1,81.8,214.1z"
			/>
		<g>
			<rect x="103.5" y="130.5" fill="#EEE5E5" width="18.1" height="18.1"/>
			<rect x="114.8" y="105.5" fill="#EEE5E5" width="18.1" height="18.1"/>
			<rect x="132.7" y="128.3" fill="#EEE5E5" width="18.1" height="18.1"/>
			<rect x="147.3" y="98" fill="#EEE5E5" width="21.4" height="21.4"/>
			<rect x="177.5" y="32" fill="#EEE5E5" width="21.4" height="21.4"/>
			<rect x="138.5" y="71.1" fill="#EEE5E5" width="21.4" height="21.4"/>
			<rect x="172.3" y="61.7" fill="#EEE5E5" width="30.8" height="30.8"/>
			<rect x="195.4" y="98.8" fill="#EEE5E5" width="37.1" height="37.1"/>
			<rect x="209.4" y="29" fill="#EEE5E5" width="46.2" height="46.2"/>
			<rect x="166.8" y="122.2" fill="#EEE5E5" width="21.4" height="21.4"/>
		</g>
	</g>
</g>
</svg>
