<?xml version="1.0" encoding="utf-8"?>
<!-- Generator: Adobe Illustrator 23.0.1, SVG Export Plug-In . SVG Version: 6.00 Build 0)  -->
<svg version="1.1" id="Layer_1" xmlns="http://www.w3.org/2000/svg" xmlns:xlink="http://www.w3.org/1999/xlink" x="0px" y="0px"
	 viewBox="0 0 256 256" style="enable-background:new 0 0 256 256;" xml:space="preserve">
<g>
	<path d="M149.6,164.4c0,0-6.9,2-9.5,2.5c0,0,3.4,3.1,4.9,3c1.5,0,5.1-4,7.2-5.6C154.3,162.7,149.6,164.4,149.6,164.4z"/>
	<path d="M231.8,202.1c-4.2-10.4-11.8-36.1-16.2-38.5s-9.3-11.7-13.7-12.5s-12.2-3.9-15.9-4.6c-3.7-0.7-14.1-3.6-14.1-3.6
		c1.9-9.6,4.2-20.6,5.3-29.9c0.9-7.1-4-13.9-3.9-21.3c0.1-6.1,3.3-12.2-0.6-18c-4.9-7.3-5.1-9.9-11.7-22.4c-0.6-1.1-0.2-3.1,0.1-5
		c0.3-2-1.2-7.5-2.2-11.4c-1.7-6.7-4.5-14.1-10.1-17.8c-20.5-13.6-40.7-22-71.2-13.7C54.1,9.2,58.5,16.7,48.7,25.5
		c-8.9,8-7.6,21.5-11.2,33.5c-3.3,11.2,3.6,23.7,9.5,37.3c2.4,5.4-2.9,3.8-3.1,8.8c-0.2,5.1,2.3,7.6,3.2,11
		c1.9,7.6,5.4,17.5,11.2,21.8c4.3,3.2,13.3,3.6,13.3,3.6c1.9,4.2,3.6,7.7,5.7,12.5c0.6,1.3,1.4,2.6,2.4,3.8c0,0-0.9,0.5-1.2,0.7
		c-1.1,0.9-2,2.3-3.2,4.7s-1.3,5.6-1.3,5.6s-2.1,1.2-4.7,2.8s-5.7,7.2-5.7,7.2s-15.8,10.3-18.1,11.7c-2.4,1.4-5.7,7.2-5.7,7.2
		l-5.6,4.5c0,0-2.7,2.1-3.5,6.3c-0.7,4.2-6.4,8.7-7.4,11.5c-1.1,2.8-2.4,7.6-2.8,12.1c-0.3,4.5-0.3,17.2-0.3,17.2s51.2-0.1,84.6,4.8
		c33.4,5,68.8-1,74.9-3.7c15.3-6.7,23.4-14,31.1-23.6C219.4,216.1,234.1,207.9,231.8,202.1z M71.5,113.6c0,0,0.3-9.8-0.8-11.8
		s-3.5-8.2-1.8-9.7s5-3.4,5.5-6.6c0.5-3.1-1.7-8.4-3.4-12.5c-1.8-4.1-5-8.6,0-14.6c4.9-6,11.3-13.3,20.1-14.7s20.3,2.1,27.9,1.7
		c7.6-0.4,13.9-0.7,17.3-2.6c3.3-1.9,3.2-5.7,5.9-7.4c3.2-1.9,4.1,0.3,7.6,4.3s2.1,8,2.8,12.5c1.5,9,5.9,16.9,9.9,23
		c3.8,5.8,0.9,11.8,0.8,17.9c-0.1,7.5,6.8,12.4,5.9,19.5c-1.2,10.1-4.7,26.5-4.7,26.5s-1.3-0.7-4.3-0.9c-3.8-0.3-3-0.1-5.6-0.4
		c-2.6-0.3-6.3,0.9-9.6,1.2s-9.8,0-13.9,1.9c-4.1,1.9-14.7,2.5-17.4,6.7c-1.5,2.3-2.1,5.6-1.5,8.3c0.6,2.7,4.6,11.7,3.3,13.6
		c-1.6,2.2-3.7-0.4-5.9-3.4c-2.2-2.9-9.4-14.7-13.3-15.9c-4-1.2-12.2-6.8-13.9-8.3c-1.7-1.5-0.4-6.5-3.4-11.2
		C75.6,125.9,74.5,124,71.5,113.6z M166.6,155.5c-1.4,3.5-3.6,6.7-4.9,9.4c-1.3,2.7-1.5,5.7-3,7c-1.4,1.3-5.3,2.9-8.9,4
		c-3.5,1.1-10.2,3.1-14.3,2.3c-4-0.7-7.5-6.4-9.1-9.1c-1.5-2.7-4.7-7.7-4.9-10.8c-0.1-1.9,1.6-4.8,4.6-5.4c3-0.6,10.2-0.3,16.4-0.6
		c10.2-1.3,19-2.6,21.2-1.9C166.2,151.3,168,151.9,166.6,155.5z M176.3,220.5c-0.2,11.7-1.7,16.1-5.8,18.9c-4,2.8-14.5,4.3-19.5,1.6
		c-3-1.6-18.6-12.5-21.5-18.8c-2.9-6.3-16.3-7.2-20-13.9c-3.7-6.6-10.8-14.4-18.9-23c-8-8.6-6.8-13.2-7.8-16.7s-0.1-5.5-0.1-5.5
		l1-1.3c3,3.1,4.5,3.6,8,6.2c7.4,5.5,15.1,9.1,25.8,12.6c8.1,2.6,14.7,5.4,20.4,6c5.3,0.5,9.9-1.2,14-3c5.5-2.4,9.7-4.2,12.5-8.2
		c1.3,2.1,4.7,6.3,7.9,14.2C175.6,197.6,176.4,208.8,176.3,220.5z"/>
</g>
</svg>
