<?xml version="1.0" encoding="utf-8"?>
<!-- Generator: Adobe Illustrator 23.0.1, SVG Export Plug-In . SVG Version: 6.00 Build 0)  -->
<svg version="1.1" id="Layer_1" xmlns="http://www.w3.org/2000/svg" xmlns:xlink="http://www.w3.org/1999/xlink" x="0px" y="0px"
	 viewBox="0 0 256 256" style="enable-background:new 0 0 256 256;" xml:space="preserve">
<style type="text/css">
	.st0{fill:#A01D1D;}
	.st1{fill:#FFFFFF;}
	.st2{fill:#D0D441;}
	.st3{fill:#B82205;}
</style>
<path d="M252.8,117.1c-1.1-2.5-3.6-3.9-5-6.2c-1.8-2.9-1.3-5.4-0.3-8.4c1.3-3.9,3.5-6.4,0.8-10.7c-3.5-5.5-6.5-4.6-7.8-10.8
	c-0.5-2.1,0.3-3.8,0.5-5.7c0.5-5.9-1.9-7.7-6.5-10.1c-4.5-2.3-6.3-4.5-6.3-9.6c-0.1-5.2-2.1-8.5-7.3-9.6c-2.3-0.4-4.1-0.8-6-2.3
	c-5.2-3.8-3.3-11.8-8.9-14.7c-4-2-8.7,0.6-12.3-2.8c-3.1-2.9-2.6-7.9-6.5-10.2c-4.1-2.4-8.7,1-12.9-0.5c-3.4-1.1-4.9-1.5-7.3-4.9
	c-2.5-3.5-5.7-4.5-10.2-3.3c-3.6,1-6.8,3.1-10.6,0.9c-3.6-2.1-4.9-5.8-9.3-5.9c-4.1-0.1-6,3.5-9.7,4.8c-4.8,1.6-7.4-2.4-11.4-3.8
	c-7.9-2.6-10.3,8.5-18.3,6.7c-2.6-0.6-5-2.3-7.5-2c-4,0.4-4.4,3.5-7.2,5.8c-9.6,8-15.3-1.8-19.5,7.7c-1.1,2.6-2.5,4.9-4.6,6.4
	c-3.8,2.5-9,1-12.6,3.1c-3.1,1.9-3.3,5.4-4,8.5c-0.6,2.3-1.6,4.5-3.8,5.9c-3,1.1-9.6,2.9-10.9,4.9c-1.3,1.9-1.4,3.1-1.5,5.4
	c-0.3,4-0.3,7.2-3.5,10.1c-2.3,1.9-6.2,1.9-8,4.6c-3.1,4.6,0.3,8.9-0.6,14.6c-0.4,2.3-3.4,4-5.4,6.7c-1.4,2.5-1.8,4.3-1,7.2
	c0.3,1,1.5,3.5,1.9,5.3c1.8,7.5-6.9,8.7-6.7,16.1c0.1,3.3,3.5,5.9,4.5,8.9c1.4,4-0.9,6.5-2.6,9.8c-1.9,3.6-1.8,6.4,0.9,9.6
	c1.8,2,3.5,2.3,4.3,5.9c0.9,4.6-2.4,4.4-1.9,10.8c0.3,3.4,2.9,5.2,4.6,6.2c2.5,1.5,2.6,5.7,1.3,8.9c-0.9,2.1,0.3,5.8,1.9,7.4
	c2.1,2.1,4.6,1.6,6.9,3.8c3.8,3.6,2.8,5.8,3.4,10.4c1.3,8.4,9.9,5.5,14.5,10.9c2.8,3.4,1.5,9.7,5.5,12.2c2,1.3,5.7,0.5,8,0.8
	c3.6,0.4,5.8,2,7.3,5.2c1.1,2.3,1.6,4.9,3.6,6.5c3.1,2.6,6.7,0.5,10.2,0.5c4.9,0,6.5,3,9.2,6.4c3.3,4.1,5.9,4.3,10.6,2.6
	c2.4-0.9,4.9-2.1,7.7-1.3c3.6,1.1,5.2,5.7,8.8,7c6.4,2.4,10.3-6.3,17-3.6c2.5,1,4.4,3.6,6.9,4.3s4.3,0.1,6.4-1.3
	c2.5-1.5,3.9-4.4,6.8-5.3c3.4-1,5.9,0.9,8.8,1.9c8.8,3.1,9.7-6.7,16.5-8.8c3-1,7,0.8,10.9,0.3c2.4-0.4,3.4-0.9,4.5-2.8
	c1.9-2.8,2.5-5,5.9-6.3c3.5-1.3,7.4,0.4,10.7-1.6c3.9-2.4,3-9.6,5.9-13.3c1.3-1.8,3.1-3.6,5-4.5c2.9-1.4,6.2-0.9,8.8-2.8
	c5.9-4.4,0.5-12.3,6.7-16.2c3.1-2,7.3-2.4,9-6c1.9-3.6-1.9-8.5,0.1-11.8c1.9-3.1,6.5-3.3,7.4-7.7c0.6-2.9-1.5-5.9-1.6-8.8
	c0-1.3-0.6-4.1-0.4-5c0.9-2.1,3.5-3.6,4.9-5.4c2.7-3.8,1.1-7.1-1.5-11.1C244.8,129.1,256,124.7,252.8,117.1z M37.9,50.2
	c-0.1,0.4,0.4,0.9-0.5,1c0,1.3,0,0.4-0.6,0.4c0.2-0.1,0.3-0.2,0.6-0.4C37.4,50.9,37.3,50.5,37.9,50.2z M37.8,53.6
	c-1,0.3-1.6-0.3-2-1.1C36.4,53,37.5,52.6,37.8,53.6z M36.9,63c-0.5-0.9-0.4-1,0.5-1.5C37.8,62.3,37.1,62.7,36.9,63z M37.3,200.9
	c0.5,0.4,0.1,0.6,0,0.9C37,201.4,37,201.2,37.3,200.9z M36.1,66.3c-0.1-0.1-0.2-0.2-0.4-0.5C36.1,65.4,36.3,66.2,36.1,66.3z
	 M36.6,190.5c-1.2-0.5-0.5,1.4-1.6,1C35.1,190.7,36,189.4,36.6,190.5z M34.6,67.5c-0.1,0.3-0.4,0.2-0.5,0.1
	C34.2,67.3,34.5,67.5,34.6,67.5z M33,53.1c0.1,0.2,0.1,0.3,0.2,0.3c0.2,0,0.4,0,0.3,0.1c-0.1,0-0.2,0-0.3-0.1
	C33,53.4,32.7,53.3,33,53.1z M33.2,68.7c-0.7,0.5-0.8-0.4-1.4-0.5C32.6,67.9,32.6,67.9,33.2,68.7z M32.1,189.1c0.4,0,0.8,0.1,1,0.5
	C32.2,189.5,32.2,189.5,32.1,189.1z M32.4,192.7c0.4,0.1,0.6,0.3,1,0.4C33.2,193.5,32.2,193.2,32.4,192.7z M32.5,187.8
	c-0.1,0.3-0.3,0.5-0.5,0.5C31.8,187.8,32.1,187.8,32.5,187.8z M31.9,69.5c0.1,0,0.3-0.3,0.3,0C32.2,69.6,32.1,69.6,31.9,69.5z
	 M32.5,185.4C32.6,185.4,32.5,185.6,32.5,185.4L32.5,185.4z M32.6,185.5c0.8-0.2,0.5,0.5,0.6,0.8C32.9,186,32.3,186.2,32.6,185.5z
	 M32.7,66.7c-0.3,1-1.1,0.3-1.5,0.6C31.3,66.2,32.1,66.8,32.7,66.7z M31.6,56.3c-0.8,0-0.5-0.5-0.9-0.9C31.6,55.4,31.3,56,31.6,56.3
	z M31.2,59.2c-0.4,0.1-0.4-0.2-0.5-0.4C31.1,58.8,31.3,58.9,31.2,59.2z M30.6,76.5c-0.1-0.1-0.3-0.4,0-0.6
	C30.6,75.9,31.2,76.9,30.6,76.5z M30.5,63.4c0.1,0.3,0.1,0.4-0.1,0.5C30.5,63.8,30.5,63.6,30.5,63.4z M30.3,63.9
	c0.1,0.3,0.6,0.8-0.3,0.8C30.1,64.4,30.1,64.2,30.3,63.9z M29.6,58.9c-0.1,0.4-0.4,0.3-0.9,0.5C29.1,59,29.1,58.7,29.6,58.9z
	 M29.6,185.6c-0.6,0-0.5-0.4-0.4-0.9C29.7,184.9,29.6,185.3,29.6,185.6z M29,74.2c-0.2-0.6-0.2-0.6,0.6-0.8
	C29.3,73.5,29.5,74.2,29,74.2z M27.9,68.1c0.1,0.2-0.6,1.2-0.8,1.5C26.2,69,27.1,68.3,27.9,68.1z M27,72.9c-0.1-0.4,0.2-0.7,0.6-1.1
	C28.2,72.6,28,72.9,27,72.9z M27.7,60.3c-0.5,0.3-0.8-0.3-1.1,0C27.1,59.9,27.1,59.9,27.7,60.3z M26.8,64.6c0.1,0.3,0.3,0.5-0.3,0.6
	C26.6,64.9,26.6,64.8,26.8,64.6z M26.3,173.8c2.5,1-1,2.1-0.9,1.6C25.6,175.1,24.9,173.1,26.3,173.8z M26.1,182.8
	c0.1-0.6,0.8-0.4,0.9-0.8C26.7,182.7,26.7,182.7,26.1,182.8z M26.4,184.2c0-0.3,0.3-0.4,0.4-0.5C26.9,183.9,26.8,184.2,26.4,184.2z
	 M26.6,178.2c0.1,0.2,0.2,0.2,0.3,0.3C26.8,178.5,26.6,178.4,26.6,178.2z M24.7,82.5c0-0.1,0.5-1.5,0.6-1.6
	C25.2,78.9,25.6,83.9,24.7,82.5z M25.3,176.3C25.6,176.3,25.4,176.4,25.3,176.3L25.3,176.3z M25.2,77c0.5-0.3,0.5-0.1,0.6,0.4
	C25.6,77.2,25.3,77.2,25.2,77z M24.7,72.9c0.1,0-1,0.6-0.6,0C26.1,69.6,26.1,76.4,24.7,72.9z M24.9,67.4c-0.3,0.1-0.6-0.1-0.9-0.1
	c-0.1,0-0.2,0.1-0.2,0.2c0.1-0.1,0.2-0.1,0.2-0.2C24.3,67.2,24.6,67.2,24.9,67.4z M24.7,78.3c-0.1,0.6-0.4,0.7-0.8,0.3
	C23.4,78,24.7,78.2,24.7,78.3z M23.8,80.5c0.3,0.4,0,2.4-0.3,2.8C22.3,82,23.6,81.3,23.8,80.5z M24.6,165.8c-0.7,0-0.9-0.2-1.3-0.5
	C24.1,165.2,24.1,165.2,24.6,165.8z M24.1,87.8c0.1-0.4,0.3-0.1,0.6,0C24.4,87.9,24.2,88.1,24.1,87.8z M23.7,70
	c-0.3,0.1-0.4,0.3-0.6,0.4C23.3,70,23.3,70,23.7,70z M23.2,71.2c0.1,0.4,0.3,0.6,0,0.8C22.9,71.7,22.8,71.5,23.2,71.2z M23.1,85.3
	c0,0.5-0.3,0.5-0.8,0.1C22.6,85.3,22.8,85.3,23.1,85.3z M22.6,92.3c-0.2,0.2-0.3,0.4-0.3,0.5C21.9,92.5,22,92.4,22.6,92.3z
	 M22.8,165c-0.8-0.3-1.1-0.4-2.1-0.8C21.3,161.7,22.7,164.8,22.8,165z M21.8,169.7c0.3,0.1,0.3,0.4,0.1,0.6
	C21.5,170.2,21.9,170,21.8,169.7z M20.5,151.9c1.4,0.8,1.5,1.3,0.4,2.6C20.7,153.7,20.9,152.8,20.5,151.9z M21.8,95.1
	c-0.6,0.1-0.8,0-1-0.4C21.2,94.6,21.6,94.6,21.8,95.1z M20.7,91c-0.3,0.1-0.4,0.2-0.5,0.1C19.9,90.8,20.8,91,20.7,91z M20.2,104.4
	c0.6-0.3,0.8-0.1,0.4,0.4C20.2,105.1,19.8,104.8,20.2,104.4z M16.5,130c2.4,0.8,0.4,0.9,0.1,1C17,130.7,16.3,130.4,16.5,130z
	 M17.4,120.7c-0.3,0.6-0.5,0.6-0.8,0C17,120.2,17.1,120.2,17.4,120.7z M17,108.4c0.6,0.6,1,1,0.1,1.8C17.1,109.6,17,109.1,17,108.4z
	 M17.7,131.2c0.2,0.8,0.2,1.7-0.1,2.6C16.2,133.7,17.3,131.8,17.7,131.2z M17.8,119.6c0.1-0.4,0.3-0.4,0.5-0.1
	C18.3,119.7,18,119.9,17.8,119.6z M18.9,126.6c-0.5,0-0.8-0.1-0.8-0.8C18.7,126,18.9,126.1,18.9,126.6z M18.9,124.6
	c0.4,0.3,0.4,0.5-0.1,0.6C18.5,125,18.5,124.8,18.9,124.6z M19.8,129.5c-0.4,0.5-1,0.3-1.6,0.4C18.7,129.3,19.3,129.5,19.8,129.5z
	 M20,146.1c0.4,0.4,0.1,0.8,0,1.4C19.4,146.9,19.4,146.5,20,146.1z M19.9,125c-0.2-0.1-0.2-0.2,0-0.5
	C20.3,124.8,20.3,124.9,19.9,125z M19.7,92.3L19.7,92.3c0.1,0.2,0.2,0.3,0.1,0.4C19.5,93.1,19.7,92.5,19.7,92.3L19.7,92.3z
	 M19.4,111.5c-0.4-0.4-0.2-0.7-0.1-1.1C19.8,110.8,19.7,111,19.4,111.5z M19.3,94.1c-0.6,0.1-0.4-0.5-0.5-0.6
	C19.2,93.3,19.3,93.7,19.3,94.1z M18.7,121.4c-0.3,0.4-0.5,0.3-0.5-0.1C18.4,121,18.5,121,18.7,121.4z M18.5,107.7
	c-0.7-0.2-0.9-0.3-0.9-0.8C18.1,106.9,18.2,107.2,18.5,107.7z M17,105.7c-0.3,0.4-0.6,0.4-1,0.4C16.1,105.3,16.4,105.3,17,105.7z
	 M16.3,121.6c0.1,0.6-0.2,0.9-0.4,1.1C15.6,122.3,15.8,121.9,16.3,121.6z M14.8,118.2c0.2-0.4,0.6-0.4,1,0.1
	C15.2,118.4,15.2,118.4,14.8,118.2z M15.4,126.3c-0.5,0.3-0.5,0.3-1.1,0C14.8,126,14.8,126,15.4,126.3z M15.6,113.2
	c-0.3,0.4-0.4,0.4-0.5,0C15.4,112.9,15.5,112.9,15.6,113.2z M15,111.8c0.5,0.1,0.5,0.4,0,0.6C14.6,112.3,14.6,112.1,15,111.8z
	 M14.9,114c0,0.7-0.5,0.9-0.5,1.6C14.1,114.3,14.1,114.3,14.9,114z M14,119.1c0.5,0.3,0.6,0.5,0.3,0.6C14,119.6,13.9,119.3,14,119.1
	z M14.1,130.8c-1.6-0.6-0.4-1.1,0.1-1.3C13.9,129.9,14.3,130.3,14.1,130.8z M13.4,132.8c-0.3,0.5-0.5,0.5-0.8,0
	C12.9,132.4,13.1,132.4,13.4,132.8z M13.4,127.3c0.1-0.3,0.4-0.4,0.5-0.1C13.8,127.6,13.6,127.6,13.4,127.3z M13.9,117.1
	c-0.5,0-0.8-0.1-0.8-0.8C13.6,116.3,13.9,116.6,13.9,117.1z M12.9,119.9c0.4,0.1,0.4,0.3,0.1,0.5C12.5,120.2,12.5,120.1,12.9,119.9z
	 M13.4,123.6c-0.5,0.1-0.8,0-0.9-0.5C12.9,123,13.1,123.1,13.4,123.6z M12.1,136.2c0.3,0.4,0.3,0.6-0.1,0.9
	C11.6,136.7,11.6,136.3,12.1,136.2z M11.2,134.8c0.3,0.4,0.3,0.5,0.1,0.9C10.9,135.3,11.1,135.1,11.2,134.8z M10.5,134.1
	c0.4,0.1,0.4,0.3,0,0.5C10.2,134.4,10.2,134.3,10.5,134.1z M9.7,138.3c0.4,0,0.4,0.3-0.1,0.6C9.5,138.6,9.5,138.4,9.7,138.3z
	 M9.6,142.7c0.3-0.2,0.4-0.2,0.5,0.1C9.8,143.1,9.7,143.1,9.6,142.7z M14.9,161.4c-0.1-0.5-0.3-0.6-0.4-0.9
	C15.1,160.6,15.1,160.8,14.9,161.4z M15,157.3c0.4-0.9,0.8-0.4,1-0.3C15.6,157.8,15.4,157,15,157.3z M15.8,163.1
	c-0.4-0.1-0.5-0.4-0.3-0.6C15.3,161.9,16.5,163.6,15.8,163.1z M16.6,163.6c1.1-0.1,1.6,0.3,1.8,1.5C18,164.2,17.3,164.1,16.6,163.6z
	 M18,153.7c-0.3-0.7-1.7,1.6-3,1.6c-0.6-1.2,3-3.2-2-6.4c-0.6,1.2,1.4,2.1,1.1,3.4c-2.1-0.2-3.6-3.6-3.6-3.6c3.4-0.3,3.4-6.5,2-7.9
	c-0.5-0.5-4.6,0.9-1.3-2c1.9-1.7,0.7,0.8,0.2,1.3c7-0.1,2.3-3,2.3-5.6c2.5,0,1,3,3.1,0.1c0.4,1.3-0.6,1.9-0.8,2.9
	c6.1-2.8-1,4.7-1.3,5c0.8,2.7,3.7-1.2,4.3,1.9c-1.5,2-6.5-0.5-4.2,4.4c0-0.1,3.4,1.9,3.4,1.9c2.6-1.4-0.5-1.2-0.7-2.2
	c1.6,0.2,2.7,1.1,3.3,2.6c-1.2,1.2-2.7,0.1-3.8-0.2c-1.9,0.5,1.7,1.5,2.4,3C20.3,156,15.9,154.8,18,153.7z M10.6,144.1
	c0.1-0.4,0.3-0.4,0.5-0.1C11,144.2,10.9,144.4,10.6,144.1z M19.1,162.2c0.3-0.3,1.2,0.5,1.1,0.9C19.9,163.7,19.1,162.5,19.1,162.2z
	 M20,165.4c-1-0.3-1-0.3-0.6-1.1C19.9,164.6,19.9,164.9,20,165.4z M18.7,163.6c0.1-0.1,0.6-0.9,0.5-0.3
	C18.9,163.7,18.9,163.6,18.7,163.6z M19.3,172c-0.5,0-0.5-0.3-0.4-0.8C19.3,171.5,19.4,171.8,19.3,172z M19.3,166.5
	c0.1-0.1,1,0.3,0.9,0.6C19.8,167.7,18.7,166.9,19.3,166.5z M20.3,165.3c0.3,0.1,0.4,0.3,0.4,0.6C20.4,165.8,20,165.8,20.3,165.3z
	 M20.6,166c0.2,0,0.2,0,0.3,0C20.8,166.1,20.8,166.1,20.6,166z M22.8,176.7c0.8,1.1,0.5,1.5-1.1,1.8C22.1,178,22.8,177.6,22.8,176.7
	z M23.3,184.2c-0.4-0.3-0.6-0.4-1-0.6C23.1,182.9,23.8,183.2,23.3,184.2z M24.1,168.1c0.7,0.6-0.2,0.5-0.3,1
	C23.5,168.8,23.5,168.1,24.1,168.1z M23.9,178.8c-0.1-0.5,0.5,0,0.5,0C24.3,179.2,24,179.2,23.9,178.8z M24.6,186.7
	c-0.4-0.3-0.3-0.4,0.1-0.5C25.1,186.3,25.1,186.5,24.6,186.7z M24.4,183.3c0.6-0.1,1.1,0.1,1.8,0.5
	C25.4,184.3,25.1,184.3,24.4,183.3z M27.3,189.1c-0.4,0.5-0.9-0.4-1.4-0.1C26.1,188,27.5,189,27.3,189.1z M27.7,77.8
	c0.3-0.1,0.5-0.1,0.8,0C28.1,78.3,28.1,78.3,27.7,77.8z M28.5,187.8c0.6,0,1,0.1,1,1.1C29.1,188.5,28.5,188.6,28.5,187.8z M29.3,191
	c-0.3-0.6-0.1-0.8,0.4-0.6C29.6,190.6,29.5,190.9,29.3,191z M29.6,75c0-0.4-0.1-0.8,0.5-1C30,74.4,30.5,75,29.6,75z M30.4,192.8
	c0.1-0.1,0.9,1.2,0.9,1.1C31.3,193.9,29.8,193.5,30.4,192.8z M31.3,73.3c0.8,0.7,0.8,0.7,0,1.1C31.2,74,31.3,73.6,31.3,73.3z
	 M31.5,182.8l0.1-0.1C31.7,182.8,31.6,182.8,31.5,182.8z M31.9,186.9c0.1,0.2-0.4-0.4-0.4-0.4C31.1,186.1,31.9,186.6,31.9,186.9z
	 M31.6,194.1c0.6-0.1,1-0.3,1.5,0.1C32.6,194.6,32.2,194.6,31.6,194.1z M33.7,199.5c-0.4-0.3-0.4-0.4,0-0.6
	C34.1,199,34.1,199.3,33.7,199.5z M33.1,196.6c0.4,0,0.6,0.1,1,0.1C33.6,197.4,33.6,197.4,33.1,196.6z M33,192.4
	c0.6-0.5,1.1-0.9,1.8-1.3C34.6,192.2,34,192.4,33,192.4z M35.9,198c0.3,1.1-0.9,1.1-0.5,1.9C34.1,198.4,35.8,199.3,35.9,198z
	 M36,204c-0.3-0.2-0.3-0.5,0-0.6C36,203.7,36,203.8,36,204z M36,203.3c0-0.4,0.1-0.6,0.6-0.5C36.6,203.4,36.4,203.4,36,203.3z
	 M36.2,201.7c-0.6-0.5-0.4-0.9,0.3-1.1C37.1,201,36.4,201.3,36.2,201.7z M36.9,204.3c0.2,0.1,0.5,0.3,0.5,0.5
	C37.3,205.4,36.8,204.4,36.9,204.3z M37.1,202.2c0.5-0.1,0.6,0.3,0.9,0.6C37.3,202.9,37.3,202.5,37.1,202.2z M57.1,34.9
	c0.3,0,0.3,1-0.5,0.6C56.7,35.3,56.9,35,57.1,34.9z M57.2,37.9c-0.5-0.3-0.5-0.4,0-0.5C57.4,37.7,57.4,37.8,57.2,37.9z M56.9,38.8
	c-0.8,0.1-1.3,0-1.5-0.6C56.2,37.7,56.2,38.5,56.9,38.8z M56.2,40.1c-0.1,0-0.3,0-0.5,0.1C55.9,39.9,56,39.8,56.2,40.1z M54.6,213.3
	c0,0-0.1,0-0.4-0.1C54.5,212.9,54.5,213.1,54.6,213.3z M54.2,214.2c0.3,0.6-1,0.1-1.1,0.3C53.5,214,53.8,214.1,54.2,214.2z
	 M53.5,38.2c0.1,0.4-0.3,0.8,0,1C53,38.8,52.6,38.5,53.5,38.2z M53.4,212c-0.4,0.1-0.7,0.1-0.9,0C53,211.6,53,211.6,53.4,212z
	 M53,212.8c0,0.2-0.3,0-0.5-0.1C52.8,212.7,52.9,212.7,53,212.8z M51.7,40.1c0.4,0.6,0.4,0.6-0.1,0.9C51.3,40.6,51.7,40.4,51.7,40.1
	z M50.7,40.8c0.3,0.3,0.1,0.4-0.1,0.5C50.7,41.1,50.7,40.9,50.7,40.8z M46.2,51c0.4-0.1,0.5,0.3,0.9,0.6C46.1,52,45.9,51.6,46.2,51z
	 M47.5,204.8c0.8,1-0.3,0.5-0.6,1C46.4,205.4,46.9,204.7,47.5,204.8z M46.1,204.7C46.1,204.7,46.1,204.6,46.1,204.7
	c0.7,0.2-0.2,0.9-0.3,0.7C46,205.3,46.1,205.1,46.1,204.7c-0.4,0-0.8,0.1-0.8-0.5C45.7,204.2,45.9,204.3,46.1,204.7z M45.9,207
	c-0.5-0.2-0.4-0.6-0.4-0.8C45.8,206.5,45.8,206.6,45.9,207z M45.7,52.1c-0.1,0.4-0.5,0.1-0.6,0.4C45,51.9,45.2,51.9,45.7,52.1z
	 M44.3,44.2c0.1,0.4,0.1,0.6-0.1,0.9C43.8,44.7,43.9,44.6,44.3,44.2z M44,45.8c-0.4,0.8-0.6,1.1-0.8,1.6
	C42.7,46.6,42.7,46.5,44,45.8z M42.5,51.4c-0.4,0.8-0.4,0.8-1.3,0.1C41.7,51.1,42,51.1,42.5,51.4z M39.4,61c0.4,0.8,0.4,0.8-0.4,1.4
	C39.1,61.8,39.3,61.5,39.4,61z M38.6,204.7c0.1-0.3,0.4-0.3,0.6-0.4C39.3,204.9,38.9,204.7,38.6,204.7z M39,194.5
	c0.5,0,0.9,0.1,0.8,0.6C39.3,195.2,39.2,195,39,194.5z M39.9,202.3c0-1.1,0.3-1.4,0.8-0.6C40.5,202,40.3,202.3,39.9,202.3z
	 M40.9,199.5c-0.5,0.9-0.5-1,0.5-0.8C41.1,199,41,199.3,40.9,199.5z M41.8,200.7c-0.6-1.3,1.3-0.8,1.6-0.1
	C42.8,200.3,42.3,200.5,41.8,200.7z M43.2,203.7L43.2,203.7C43.1,203.7,43.1,203.7,43.2,203.7c0-0.4,0.3-0.5,0.6-0.4
	C44.5,203.5,43.4,203.6,43.2,203.7z M43.8,49.5c-0.5-0.1-0.4-0.5-0.1-0.4C44.3,49.4,44,49.9,43.8,49.5z M44.2,203.2
	c0.2,0.2,0.2,0.5,0.3,0.6C44.1,203.7,44.1,203.4,44.2,203.2z M44.6,50.4c-0.1-0.2-0.1-0.3-0.1-0.3S44.8,49.8,44.6,50.4z M45.1,210.4
	c0.3,0.1,0.6,0.2,0.6,0.4C45.8,210.7,44.4,210.9,45.1,210.4z M44.9,207.9c0.8-0.6,1.3-0.4,1.9,0C46.1,208.3,45.5,208.3,44.9,207.9z
	 M46.7,213.5c0.1-0.1,0.3-0.3,0.4,0C46.9,213.7,46.8,213.7,46.7,213.5z M47.2,212.2c-0.5-0.3-0.4-0.4,0-0.6
	C47.6,211.7,47.6,212,47.2,212.2z M48.1,215.2c0-0.1-0.9-0.6-0.5-0.6C47.9,214.7,48.2,215,48.1,215.2z M47.4,51.2
	c0-0.6,0.4-0.5,0.8-0.8C48.2,51,47.8,51.1,47.4,51.2z M47.4,41.2c0.6,1.6,0.6,0.4,1.6,1.1C47.9,43.3,47.4,42.1,47.4,41.2z
	 M48.7,44.7c-0.1-0.4-0.1-0.6,0.1-0.9C49.4,43.7,48.7,44.8,48.7,44.7z M48.7,45.1c0.5,0.6,0.3,1.1,0.4,1.8
	C48.1,46.2,48.1,46,48.7,45.1z M48.8,209.1c-0.1-0.7,0-0.9,0.6-0.8C49.4,208.7,49.1,208.8,48.8,209.1z M49.9,44.7
	c0.9-0.3,2.1,0.9,1.4,1.6C51.2,46.1,48.3,45.3,49.9,44.7z M49.9,212.6c-0.4-0.1-0.4-0.3,0-0.5C50.2,212.2,50.2,212.3,49.9,212.6z
	 M50.2,216.6c0.2,0.4,0.2,0.3,0.5,0.6C50.4,218,50.1,217.1,50.2,216.6z M50.7,219c-0.3-0.3,0.6,0,0.5,0C51,219,50.8,219.1,50.7,219z
	 M51,217.4c0.3-0.1,0.6-0.3,0.8,0.1C51.3,217.9,51.2,217.6,51,217.4z M51.8,215.1c-0.3-0.5-0.3-0.9,0.1-1.3
	C52,214.4,52.8,214.9,51.8,215.1z M53.7,217.5c0,0-1.5,0.4-1.5,0.5c0-2.9,0.9-2.9,1.8-2c0-0.1,0-0.2-0.1-0.3
	c0.8,0.2,0.4,0.4,0.4,0.7C55.6,218.1,56.7,221.5,53.7,217.5z M54.8,44.8c0.1,0.1,1.1,0,1,0.5C55.6,46,54.8,45,54.8,44.8z
	 M55.8,215.5c0.4-0.4,0.7,0.2,0.9,0.1C56.4,216.2,56.4,216.2,55.8,215.5z M56.9,223c0.1-0.6,0.3-0.9,0.4-1.5
	C57.6,222.3,57.5,222.6,56.9,223z M56.6,220.9c0.3-0.6,0.8,0.4,1-0.1C57.4,221.6,57,221.4,56.6,220.9z M57.3,37.4
	c0.2-0.4,0.4-0.2,0.8,0C57.7,37.4,57.6,37.4,57.3,37.4z M59.5,223.4c-0.5-0.4,0-0.6,0.1-0.9C60.1,222.9,59.7,223.2,59.5,223.4z
	 M70.6,223.4c-0.3,0.3-0.4,0.3-0.5,0C70.2,223,70.3,223,70.6,223.4z M68.5,223.4c-0.3,0.4,0,1-0.6,1.3
	C67.9,224,67.8,223.5,68.5,223.4z M61.8,35.9c0.4,0.1,0.4,0.4,0,0.5C61.4,36.3,61.4,36,61.8,35.9z M62,217.2c-0.5,0-0.8-0.3-0.9-0.6
	C61.6,216.5,61.8,216.9,62,217.2z M60.9,34.6c0.4,0.3,0.3,0.5-0.4,0.5C60.5,34.9,60.6,34.8,60.9,34.6z M60.6,37
	c0.3,0.5,0.5,0.8,0.6,1.4C60.4,38.2,60.3,37.8,60.6,37z M60.9,222.8c0.3,0.1,0.4,0.3,0.5,0.4C61.1,223.4,60.9,223.4,60.9,222.8z
	 M60.5,221.1c0.3-0.8,0.3-0.8,1.1-0.3C61,220.9,60.9,221.3,60.5,221.1z M62.5,219.7c-0.1,0.4-0.4,0.4-0.6-0.1
	C62.2,219.5,62.3,219.5,62.5,219.7z M62,224.2c0-0.3,0.3-0.4,0.5-0.5C62.5,223.9,62.5,224.3,62,224.2z M62.7,222.6
	c-0.8-0.5-0.2-0.8-0.1-1.3C63.1,221.9,63.1,221.9,62.7,222.6z M63.5,223c-0.1,0-0.4,0-0.4,0C62.8,222.6,63.7,223,63.5,223z
	 M65.4,224.2c-0.1-0.2-0.2-0.4-0.5-0.5C64.4,223.4,65.4,223.4,65.4,224.2z M65.9,227c-0.3,0-0.4-0.3-0.8-0.4
	C65.7,226.5,66,226.4,65.9,227z M64.1,222.9c0.3-1.3,0.8-2.3,1.9-2.6C66,220.3,64.3,222.6,64.1,222.9z M67.3,219.8
	c-0.3,0.4-0.4,0.4-0.8,0C66.9,219.5,67,219.5,67.3,219.8z M67.2,226.9c-0.1,0.3,0.3,0.8-0.5,0.8C66.7,227.3,66.8,227,67.2,226.9z
	 M67.5,230.2c-0.3,0.4-0.5,0.4-0.5-0.1C67,229.8,67.7,229.6,67.5,230.2z M67.7,226.8c0.4,0.3,0.4,0.8,0.5,1.1
	C67.7,227.7,67.5,227.3,67.7,226.8z M68.3,229.3c-0.1-0.5,0.3-1.5,0.9-1.6C69.9,228.3,68.4,229.8,68.3,229.3z M69.9,221.5
	c0.3,0.5,0,0.6-0.4,0.8C69.4,221.8,69.6,221.6,69.9,221.5z M69.9,231.6c0.1-0.3,0.4-0.1,0.5-0.1C70.2,231.7,70.1,231.8,69.9,231.6z
	 M70.6,225.4c0.5,0.1,0.7,0.5,1,0.9C71.1,226.4,70.6,226,70.6,225.4z M72.6,233.8c0,0.1,0.4-1.9,0.8-0.8
	C73.3,233.6,73.1,233.8,72.6,233.8z M74,225.2c-0.7-0.2-0.8-0.5-0.4-1C73.9,224.5,74.1,224.7,74,225.2z M74.2,231.3
	c0-0.3,0-0.5,0-0.9C74.8,230.6,74.8,230.8,74.2,231.3z M82.6,28.5c-0.2-0.1-0.4-0.3-0.4-0.6C82.3,27.3,82.6,28.4,82.6,28.5z
	 M81.1,229.6c2.8-0.4,0.2,1.2-0.1,1.4l0,0l0,0C81.4,230.3,81.4,230.3,81.1,229.6z M76.1,234.1c-0.3-0.4,0-0.6,0.3-0.8
	C76.7,233.8,76.3,234,76.1,234.1z M76.1,227.6c0.1-0.3,0.2-0.4,0.6-0.4C77,227.6,76.7,227.7,76.1,227.6z M77.7,234.3
	c0.1-0.4,0.4-0.4,0.6-0.1C78.2,234.2,78,234.3,77.7,234.3z M78.2,233.8c-0.5-1,0.9-1.5,1.3-0.4C79.1,233.6,78.7,233.7,78.2,233.8z
	 M77.7,228.3c0.9,0.4,1.2,0.6,1.2,0.7c0-0.1,0-0.3,0.9-0.7C80.2,230.6,77.2,230.3,77.7,228.3z M80,233.1c0.1-0.5-0.3-0.9,0.3-1.1
	C80.2,232.3,80.7,232.7,80,233.1z M82.2,235.6c0.3-0.1,0.5-0.1,0.6,0C82.5,235.8,82.3,235.8,82.2,235.6z M80.4,235
	c1-1.9,1.5-2.1,2.8-1C81.7,233.5,81.5,235,80.4,235z M143.3,15.8c-0.3-0.1-0.5-0.3-0.5-0.9C143.2,15.3,143.6,15.4,143.3,15.8z
	 M142.7,17.8c-1.3-0.4-0.3-0.3-0.3-1.3C142.9,16.8,142.9,17.3,142.7,17.8z M142.4,14.9c-0.4-0.4-1.3,0.1-1.5-0.9
	C141.6,14.3,142.2,14,142.4,14.9z M141.7,17.4c-0.4,0.6-0.6,0.4-0.9,0C141.1,17.2,141.3,17.2,141.7,17.4z M139.5,13.3
	c0.8-0.1-0.1,0.8-0.1,0.8C139.3,13.7,139.3,13.4,139.5,13.3z M139,15.9c0,0.1,2.3-1.5,0.3,1C138.9,16.7,138.8,16.3,139,15.9z
	 M136.7,13.1c-0.4,0.2-0.5-0.2-0.8-0.3C136.3,12.4,136.4,12.9,136.7,13.1z M132.4,17.3c0.5-0.8,0.9-0.5,1.4-0.1
	C133.3,17.9,132.9,17.6,132.4,17.3z M133.8,237.6c-0.2,0.4-0.4,0.4-0.5,0C133.4,237.3,133.6,237.2,133.8,237.6z M133.4,12.4
	c0.3,0.4-0.1,0.5-0.4,0.9C132.9,12.7,133.1,12.5,133.4,12.4z M131.7,18.7c0.2,0.2,0.1,0.5-0.3,0.4C130.5,19.1,131.5,18.5,131.7,18.7
	z M130.1,15.7c-0.1-0.5-0.3-1-0.5-1.5C130.2,14.7,130.2,14.7,130.1,15.7z M130,18.2c0.4,0.4,0.4,0.4-0.4,0.9
	C129.9,18.6,130,18.3,130,18.2z M127.7,14.3c-0.3,0.4-0.5,0.6-1,0.6C126,14.2,127.7,14.3,127.7,14.3z M126.5,18.4
	c0.8,0.3,0.8,0.6,0,1.8C126.7,19.6,126.2,18.9,126.5,18.4z M123.3,12.8c0.4,0.1,0.5,0.4,0.4,0.6C123.7,13.4,122.6,12.9,123.3,12.8z
	 M123.3,13.7c0.6,0.6,0.1,0.8-0.4,1C123.1,14.3,123.2,14,123.3,13.7z M123.3,16.4c-0.3-0.4-0.6-1-0.6-1.6
	C123.5,14.8,124.8,15.9,123.3,16.4z M122.8,17.6c0.4-0.3,0.5-0.4,0.6-0.5C123.6,17.4,123.3,17.4,122.8,17.6z M122.4,12.6
	c-0.4-0.1-0.4-0.1-0.4-0.4C122.1,12.3,122.3,12.5,122.4,12.6z M118.3,9.8c-0.1,0.1-0.3,0.3-0.4,0.4C117.9,9.8,117.9,9.8,118.3,9.8z
	 M113.9,9.5c0.3,0.8-0.1,0.9-0.6,0.8C113.4,9.9,113.7,9.6,113.9,9.5z M108.4,10.6c-0.3,0.4-0.3,0.6-0.5,1
	C107.9,11.1,107.6,10.9,108.4,10.6z M105.4,15.3c-0.4,0.6-0.6,0-1.1,0C104.7,14.8,104.7,14.8,105.4,15.3z M101.2,13.5
	c0.3,0.3,0.1,0.5,0,0.6C101.1,13.9,101,13.8,101.2,13.5z M100.8,16.8c0.1-0.4,4-1.7,5.8-0.3c-1-1.3-0.7-1.9,0.8-2
	c-0.8,0-1.5-0.4-2-1.1c2.7-0.9,5.7-3.6,5.7-0.6c3.1-0.6,3.1,0.5,4,1c1.1-0.2,1.4-1.7,0.6-2.7c1.2,0.7,1.3,2.3,0.5,3.5
	c5.4,0.8-0.9-3.7,6-1.2c-1.5,0.2-1.8,1.8-0.5,3.8c-0.7-0.7-2.6-1.9-3.6-2c-1,1.7-2.5,5.1-4.4-1c-1.9-0.8-4.3,4,0.1,4.2
	c-3.5,3.5-3.3-3.7-4.4-4c-2.6,2.6-2.6,3.3-1.9,5.5c-1.1-0.9-1.1,0.4-1.9,1.3c0.5-2.1,0.5-6.8-2.8-2.2
	C105.4,15.1,100.2,17.7,100.8,16.8z M120.8,237.4c-0.1-0.3-0.1-0.5,0-0.8C121.2,236.8,121.5,237,120.8,237.4z M120.2,238.7
	c-0.5-0.4-0.6-0.6-0.5-1.1C120.1,237.9,120.1,237.9,120.2,238.7z M119.3,237.5c-0.3,0.3-0.6,0.1-1,0.1
	C118.6,237.2,118.9,236.8,119.3,237.5z M107.6,18.8c0.4-0.5,1.1,0.4,1,0.8C108,19.7,107.6,19.4,107.6,18.8z M108,237.8
	c-1-0.6,0-1,0.3-1.5C108.3,236.8,108.4,237.3,108,237.8z M108.1,17.8c0.3,0.3,0.3,0.5,0,0.8C108,18.3,107.8,18.2,108.1,17.8z
	 M102.9,236.1c-0.1,0.4-0.3,0.8-0.6,0.9C102.5,236.7,101.8,235.8,102.9,236.1z M101.9,20.7c1.1,0.4,2,0.4,2.8,0.1
	C103.1,22.1,102.4,22.1,101.9,20.7z M102,19.2c0.4-0.1,1.5,0.4,0.6,1C102.2,19.9,102,19.6,102,19.2z M96.7,14.7
	c-0.4,0.6-0.9,0.3-1.3,0.8C95.7,14.5,95.7,14.5,96.7,14.7z M96.3,18.9c-0.1,0.8-0.1,0.8-1,0.9C95.6,19.1,95.8,18.8,96.3,18.9z
	 M96.2,233.5c-0.3-0.1-0.5-0.3-0.6-0.4C95.7,233.1,96.1,233,96.2,233.5z M94.6,16.7c0.1,0.4-0.1,0.5-0.4,0.8
	C93.9,17.1,94.3,16.8,94.6,16.7z M92.8,20.7c0.4,0.6-0.1,0.6-0.5,0.8C92.4,21.2,92,20.6,92.8,20.7z M91.7,21.6
	c0.4-0.4,0.9,0.4,0.1,0.8C91.5,22.1,91.5,21.8,91.7,21.6z M91.5,24c-0.6,0.1-1-0.1-1.4-0.4C90.8,23.2,90.8,23.2,91.5,24z M90.2,22.1
	c0.4,0.1,0.5,0.3,0.3,0.5C89.9,22.5,89.9,22.3,90.2,22.1z M89.4,18.3c-0.8-0.1-0.8-0.5-0.9-1.1C89.3,17.4,89.5,17.7,89.4,18.3z
	 M89.3,20.7c-0.3,0.4-0.5,0.4-0.6,0C88.9,20.3,89.2,20.3,89.3,20.7z M85.8,23.8c-0.3-0.1-0.3-0.1-0.5-0.5
	C85.8,23.5,85.8,23.5,85.8,23.8z M85,26.4c0.3,0.6,0,0.6-0.1,0.8C84.5,26.9,84.9,26.7,85,26.4z M83.4,236.3c0.5-0.1,0.6-0.4,0.6-1
	C85.5,236,83.8,237.7,83.4,236.3z M84,232.9c-0.3-0.8,1,0.4,1,0.4C84.6,233.1,84.3,233,84,232.9z M85,231.6c0-0.1,0.1-0.3,0.3-0.3
	C85.4,231.6,85.3,231.7,85,231.6z M84.8,28c0.5-0.9,0.8-1,1.1-0.1C85.5,28.2,85.1,28.2,84.8,28z M89,240.7c0.1-0.3,0.4-0.1,0.5-0.1
	C89.4,240.7,89.3,240.9,89,240.7z M94.2,238.9c0.3,0,0.4,0.3,0.5,0.5C94.3,239.2,93.9,239.2,94.2,238.9z M95.2,241
	c0.5,0.3,1,0.3,1.4,0C95.9,241.6,95.4,241.6,95.2,241z M100.5,243.4c-0.1-0.1-0.3-0.3-0.5-0.5C100.5,242.8,100.6,242.9,100.5,243.4z
	 M102.7,242.2c-0.3-0.5,0-1-0.1-1.5C103.7,241.3,102.9,241.7,102.7,242.2z M104.5,242.8c-0.3-0.3-0.1-0.5-0.1-0.8
	C104.7,242.3,104.6,242.5,104.5,242.8z M113.2,245.9c0.5-0.1,0.6,0.1,0.8,0.4C113.5,246.4,113.4,246,113.2,245.9z M116.6,244.9
	c-0.7-0.4-0.7-0.8,0-1C116.9,244,116.6,244.5,116.6,244.9z M117.6,246.1c0.3-0.1,0.4-0.1,0.8,0C117.9,246.7,117.8,246.5,117.6,246.1
	z M119.8,244.5c-0.4,0-0.3-0.9,0.5-0.6C120.1,244.1,119.9,244.4,119.8,244.5z M118,240.6c-0.7,0.6,0.5,2.5,1,3.4
	c-10.9-5.9-5.6-2.7-13,1.2c2.2-2.2-0.5-0.6-1.1-1.2c0-1,0.5-1.4,1.6-1.1c0.9-1.1-7.2-4.8-5.5-0.5c-2.3-1.2-1.7-7.1-2.4,0.6
	c-1.9-1.9,0.3-6.5-3.6-3.4c0.8-1.2,0.5-1.7-0.9-1.7c0.3-0.2-1.7,3.4-1.2,4c0,0,0.1,0,0.1,0.1c0,0,0,0,0.1,0H93c0,0-0.1,0-0.1-0.1
	c-0.5-0.4-1.5-1.5-2.4,1.3c-0.1,0.4,0.7-7.6-2.8-5.6c1.6,0.1,2.1,1.2,2.5,2.4c-2.6,0.5-0.8-1.4-4.4-0.6c2-0.4,2.3-4.4,0.1-4.6
	c0.7-0.1,1.6-0.7,2.7-1.2c0,3.2,1.9-2.8,5.4,0.8c-1.7-1.7-3.2,1.6-5.1,1.4c1.3,1.3,3.4,0.9,2,3.1c3.1-3.6,6.4-2.1,6.1-4
	c1,4.3,3.4-1.4,4.2-1c-1.9,1.9-1.1,3.3-0.2,5.5c0.9,0.4,3.4,0.7,3.7-0.2c-0.3,0-2.7-0.6-2.7-1c0.1-1.3,4.6-0.1,5,3.3
	c2.4-1.1-0.5-2.7,2.6-4c-1.9,4.7,3.6,0.2,3.9,0.3c-1.5,1.1,0,2.6,1.5,3.2c0.6-0.9,0.3-1.6,3.9-1.1c-2.1-1.1-4.4-1.1-5.1-1.4
	c0.5-0.4,3.9,0.5,1.1-1.4c1.3,0,1.6,2.5,6.6,2.4c-4.7,2.3,0,3.4-0.7,3.7C119.8,243.5,117.4,241.3,118,240.6z M86.4,236.2
	c0.2,0.4,0.1,0.6-0.3,0.6C85.7,236.4,85.8,236.3,86.4,236.2z M120.8,244.8c0.3-0.1,0.4-0.3,0.8-0.4
	C121.6,245.1,121.1,244.8,120.8,244.8z M121.6,240.5c0.5,0.1,0.8,0.2,0.5,0.8C121.6,241.2,121.5,240.9,121.6,240.5z M122,244.1
	c-0.3-0.5,0-0.6,0.4-0.6C122.5,243.9,122.2,243.9,122,244.1z M125.1,238.4c-0.1,0.5-2.1,0.6-2.5,0.5
	C123.5,238.5,124.2,237.9,125.1,238.4z M124,17.9c0.5-0.3,1-0.6,1.1,0.3C124.6,18.3,124.3,17.9,124,17.9z M124.8,237
	c0.1-0.1,0.3-0.3,0.4-0.4C125.2,237,125.2,237,124.8,237z M123.6,242.5c0,0.4,0.1,0.8,0.1,1C122.7,243.1,122.7,242.7,123.6,242.5z
	 M125,240.4c-0.1-0.6,0-0.9,0.4-0.6C125.3,240,125.2,240.2,125,240.4z M124.7,19.7c0.1-0.6,0.5-0.5,0.9-0.4
	C125.3,19.4,125.1,19.4,124.7,19.7z M125.7,17.4c-0.7-0.3-1.7-2.1-1.1-3C125.1,15.5,126.1,16.5,125.7,17.4z M125.4,14.2
	c0.5-0.5,1-0.5,1.6-0.8C126.5,14.3,126.5,14.3,125.4,14.2z M126.7,236.3c0.4,0.5,0.5,1.1,0.1,1.8C126,237.7,126.6,237.4,126.7,236.3
	z M126.5,241.6c0,0.1,1.4-1.3,1.5-1.5C128,241.9,127.7,242.1,126.5,241.6z M127.7,17.9c-0.8-1-0.8-1-0.3-1.4
	C127.4,17.1,128.6,17.3,127.7,17.9z M127.5,15.6c0.5-0.6,0.6,0.2,1.1,0.1C127.8,16.5,127.6,16.1,127.5,15.6z M128.7,17.4
	c-0.4-0.1-0.5-0.3-0.1-0.5C128.9,17.1,129,17.3,128.7,17.4z M129.1,242.6c0.1-0.1,0.3-0.3,0.4-0.4
	C129.9,242.6,129.6,242.8,129.1,242.6z M130.1,241.6c-0.4-0.3-0.4-0.5,0-0.6C130.6,241.4,130.6,241.5,130.1,241.6z M129.7,237.5
	c0.3-0.3,0.5-0.1,0.8,0.1C130.6,238.4,129.7,237.5,129.7,237.5z M131,235.8c0.6-0.1,0.6,0.2,0.5,0.4
	C131.2,236.2,131.2,235.9,131,235.8z M131.4,237.8c-0.1-0.4-0.1-0.7,0-0.8C131.8,237.1,132,237.4,131.4,237.8z M131.8,20.4
	c-0.3-0.3-0.1-0.5,0-0.8C131.9,19.9,131.9,20.2,131.8,20.4z M132.1,14.2c0.3-0.3,0.4-0.1,0.5,0.1C132.4,14.7,132.3,14.5,132.1,14.2z
	 M133.1,242.5c0.1,0.4,0.1,0.8,0.3,1.1C133,243.3,132.4,243.1,133.1,242.5z M132.4,240.7c0.8-0.8,1.1,0.4,1.3,0.6
	C133.1,241.4,132.8,241.2,132.4,240.7z M133.5,240.6c0.1-0.6,0.9-0.6,1.1-1.3C134.6,240.5,134,240.5,133.5,240.6z M133.9,17
	c0.6-0.2,0.6,1.2,0.5,1.3C133.9,18.9,133.8,17,133.9,17z M133.8,15.9c0.3-0.6,0.6,0,1-0.3C134.5,16.2,134.4,16.2,133.8,15.9z
	 M135.3,15.2c0.1,0.6-0.1,0.5-0.5,0.5C134.9,15.3,135,15.3,135.3,15.2z M135,237.1c0.5,0,0.3,0.5,0.5,0.6
	C135,237.9,135,237.9,135,237.1z M135.5,239.2c-0.5,0-0.5-0.1-0.1-0.4S136.2,239.2,135.5,239.2z M135.4,17.3
	c0.3-0.6,0.5-0.6,0.6-0.1C135.7,17.7,135.5,17.7,135.4,17.3z M136.4,241.9c0.4-0.1,0.8-0.3,0.9,0.4
	C136.9,242.1,136.7,242,136.4,241.9z M137.4,18.4c-0.5,0.6-0.4-0.6-0.4-0.6C137.4,17.9,137.5,18.2,137.4,18.4z M137.3,13.4
	c0-0.2,0.2-0.2,0.4-0.5C137.8,13.5,137.7,13.5,137.3,13.4z M138.3,239.4c-0.4-0.5,0.1-0.8,0.3-1
	C138.8,238.9,138.7,239.1,138.3,239.4z M139.2,242.2c0.2-0.3,1,0.7,1,0.8C140.2,243,139.2,242.5,139.2,242.2z M138.5,17.7
	c0.9,0,1.4-0.5,1.8-1.3C141.6,17,138.9,19.2,138.5,17.7z M140.7,241.9c0.3-0.3,0.4-0.5,0.9-0.4C141.3,241.7,141.3,242,140.7,241.9z
	 M142.4,241.9c-0.5-0.4-0.5-0.4,0.1-0.6C142.7,241.5,142.1,241.6,142.4,241.9z M142.4,239.7c-0.5-0.3-0.6-1-1.4-0.9
	C142.1,238.1,143.4,239,142.4,239.7z M142.8,240.9c0.4-0.3,0.4-0.4,0.5-0.5C143.6,240.9,143.3,240.9,142.8,240.9z M144.4,241.2
	c-0.4-0.3-0.4-0.3,0-0.8C144.4,241,144.4,241.1,144.4,241.2z M144.3,15.7c-0.1-0.4-0.3-0.8,0.5-0.9
	C144.6,15.2,144.6,15.3,144.3,15.7z M145.7,240.4c-0.6-0.1,0.5-0.5,0.6-0.5C146.2,240,146,240.2,145.7,240.4z M145.5,236.7
	c0.4-0.3,0.5-0.3,0.8,0.1C146.1,237.2,145.5,236.7,145.5,236.7z M147.6,239c-0.4,0.1-0.8,0.1-1,0C146,238,148.1,239.2,147.6,239z
	 M146.4,17.3c0.4-0.1,0.8-0.1,1.3,0C147.3,17.6,146.9,18.2,146.4,17.3z M149.2,237.8c0.3,0.1,0.4,0.3,0.4,0.6
	C149.2,238.3,149.1,238,149.2,237.8z M149,18.3c-0.1-0.4,0-0.4,0.6-0.5C149.5,18.2,149,18.1,149,18.3z M155.4,235.6
	c-0.1,0.1-0.4,0.3-0.5,0.1C155,235.3,155.3,235.3,155.4,235.6z M150.1,16c1,0.3,1,0.3,0.4,1.4C150.4,16.9,150.9,16.4,150.1,16z
	 M150.8,236.9c0.3,0.2,0.4,1.1,0.3,1.3C151.1,238.2,150.2,236.7,150.8,236.9z M150.6,240.1c-0.1-0.8-0.1-0.8,0.6-0.8
	C151.2,239.9,151,240,150.6,240.1z M150.8,19.1c0.1-0.4,0.1-0.7,0.3-0.9C151.5,18.5,151.4,18.7,150.8,19.1z M151.6,235.7
	c0.3-0.4,0.4-0.1,0.8-0.1C152.1,236,151.9,236,151.6,235.7z M151.9,20.1c0.3,0.3,0.4,0.4,0.5,0.5C151.9,20.8,151.9,20.7,151.9,20.1z
	 M153.5,237.4c0.2-0.3,0.4-0.3,0.5,0.1C153.7,237.9,153.6,237.8,153.5,237.4z M153.9,18.5c-0.4-0.2-0.5-0.4-0.4-0.9
	C153.9,17.9,154.6,17.9,153.9,18.5z M154.5,236.5c0.6,0,0.6,0,1,1.3C154.9,237.5,154.9,237.5,154.5,236.5z M156.1,238.5
	c-0.4-0.3,0.1-0.5-0.1-0.8C156.6,238,156.6,238.2,156.1,238.5z M156.5,236.7c0.4-0.3,0.4-0.3,0.6,0.1
	C156.9,236.8,156.8,237,156.5,236.7z M163.9,19.8c-0.4,0-0.4-0.3-0.5-0.4C163.8,19.3,163.9,19.6,163.9,19.8z M157.9,239.5
	c0.1,0.1,0.2,0.2,0.4,0.5C157.9,240.3,157.8,240,157.9,239.5z M159,237.7c-0.3-0.6,1.3-0.8,1.4,0.5C160,237.5,159.4,238.7,159,237.7
	z M161.2,232.6c0.1,0.3,0.4,0.4,0.3,0.5C161.2,233,161,232.7,161.2,232.6z M161.5,235.6c-0.3-0.4-0.2-0.8,0-1.3
	C161.8,234.8,161.9,235.1,161.5,235.6z M161.3,236.7c0.3,0,0.4,0.3,0.5,0.4C161.5,237.1,161.3,237.2,161.3,236.7z M163,233.6
	c0.5,0.1,0.9-0.5,1.4,0.3C163.9,234.3,163.6,234.2,163,233.6z M164.6,237c0.1-0.9,0.4-1.4,0.8-1.6C165.4,236,165.4,236,164.6,237z
	 M185.8,226.7c0.4,0.6,0.4,0.6-0.1,1C185.7,227.3,185.7,226.9,185.8,226.7z M185.9,228.9c-0.8,0.1-0.6,0.5-1,1.1
	C184.2,229.3,185.5,228.9,185.9,228.9z M181.9,226.5c0.1,0.5,0,0.5-0.6,0.3C181.4,226.4,181.6,226.4,181.9,226.5z M176,229.7
	c0,0.3-0.1,0.4-0.4,0.4C175.5,229.7,175.6,229.6,176,229.7z M171.2,233.6c-0.3,0-0.3-0.1-0.5-0.4
	C171.1,233.1,171.3,233.1,171.2,233.6z M172.3,234.5c-0.1-0.5,0.1-0.5,0.4-0.5C172.7,234.2,172.6,234.2,172.3,234.5z M173.1,234.2
	c0.4,0,0.4,0.3,0.5,0.4C173.1,234.8,173.2,234.5,173.1,234.2z M173.7,231.6c0,0,0.3-1,0.5-1C175,230.7,173.9,231.8,173.7,231.6z
	 M175.4,235.5c-0.8-1.1,1-1,1.4-0.9C176.2,234.8,175.9,235.2,175.4,235.5z M177.2,229.6c0.3,0.3,0.5,0.4,0.8,0.6
	C177.4,230.3,177.4,230.3,177.2,229.6z M179.4,233c-0.9-0.3,0.3-1,1.1-0.5C180,232.2,180,233.2,179.4,233z M180.9,230.9
	c-0.4-0.4-0.3-1.1,0.4-1.3C181.4,230.2,181.3,230.7,180.9,230.9z M181.5,230.7c0.3,0,0.4,0,0.8-0.1
	C182,231.2,181.8,231.4,181.5,230.7z M182.1,225.1c0,0.1-0.1-1.1-0.1-1.3l0,0l0,0C182.1,224,183.2,224.5,182.1,225.1z M183.6,232.2
	C183.4,232.1,183.5,232.1,183.6,232.2C183.7,232.1,183.7,232.2,183.6,232.2z M183.7,231.9c0-0.1,0-0.4,0.1-0.5
	C184,231.8,183.9,231.8,183.7,231.9z M184,231.2c-0.5-0.3-1-0.3-1.1,0.6C181.9,229.8,184.5,230.1,184,231.2z M183.7,229.1
	c0-0.6,0.5-2.1,1.5-1.9C185,228.1,184.7,228.9,183.7,229.1z M184.7,230.7c0.8-0.8,1.4-1.1,2.3-0.5
	C186.3,230.2,185.7,230.8,184.7,230.7z M185.2,234c0.3,0,0.4-0.1,0.6-0.1C185.5,234.5,185.3,234,185.2,234z M186.2,233.3
	c0.3-0.3,0.5-0.5,0.9-0.4C186.9,233.3,186.5,233.1,186.2,233.3z M187.2,222.5c0.4,0.3,0.6,0.4,0.6,0.8
	C187.3,223.3,187.2,223,187.2,222.5z M188.9,225.2c-0.4,0.4,0.3-1.5,0.5-1.8C189.8,224.2,189.6,224.7,188.9,225.2z M190.9,220.6
	c0,0.2,0.5,0.8,0.4,0.8C191,221.3,190.9,221,190.9,220.6z M192.3,219.5c-0.1,0.1-0.1,0.3-0.1,0.5c0,0.8,0.3,0.8-0.5,1.1
	c0.3-0.5,0-0.8,0.5-1.1C192.2,219.6,191.4,219.6,192.3,219.5z M191.8,227.3c-0.3,0.3,0.9-1.5,0.6-1C192.6,227,192.1,227,191.8,227.3
	z M204.8,42.3c0.3-0.3,0.5-0.3,0.8-0.1C205.5,42.3,204.5,42.8,204.8,42.3z M203.8,44.5c0.3,0.3,0.7,0.6,1.1,0.8
	c0,0.4-0.3,0.5-0.5,0.5c0.4,0.2,0.7,0.3,0.8,0.4c-0.4,0.5-0.8,0.3-1-0.4C203.5,45.7,203,45,203.8,44.5z M205.4,209.7
	c-0.5,0.8-0.5,0.3-0.9-0.4C204.9,209.4,205.1,209.6,205.4,209.7z M203.5,44.2c-0.5-0.3-0.5-0.6-0.8-1
	C203.5,43.2,203.6,43.6,203.5,44.2z M203.3,216.2c-0.3,0.8-0.8,0.8-1.3,0.8C202.3,216.6,202.5,216.1,203.3,216.2z M201.6,36
	c0.4,0.4,0,0.6,0,1.1C201.1,36.4,201.1,36.2,201.6,36z M199.2,34.4c1.3,0.8,0.4,1.4,0.1,2.1C198.9,35.8,198.2,35.1,199.2,34.4z
	 M199.5,38.9c-0.1,0-0.1-0.1-0.1-0.1C199.4,38.7,199.7,38.5,199.5,38.9z M195.6,34.6c0.4,0.1,0.4,0.3,0,0.5
	C195.3,35,195.3,34.8,195.6,34.6z M195.1,36.5c0.4-0.3,0.6-0.3,0.9,0.1C195.8,36.8,194.3,37.3,195.1,36.5z M194.2,35.9
	c0.4,0.1,0.4,0.4,0,0.6C194,36.3,194,36.2,194.2,35.9z M194,217.2c0.3-0.5,0.5-0.6,0.8-0.8C195.1,217.3,194.5,217.2,194,217.2z
	 M194.5,218.5c0-0.3,0.3-0.4,0.5-0.4C195,218.6,194.7,218.5,194.5,218.5z M195.1,41.7c-0.3,0.8-0.4-0.4-0.4-0.6l0,0l0,0
	C195.1,41.1,195.2,41.4,195.1,41.7z M195.5,224.7c1.1-0.8,0.6,0.9,0.1,1.3C195.1,225.5,195.1,225.2,195.5,224.7z M196,229.9
	c-0.1-0.1-0.5-1.4-0.5-1.4C196,228.6,196.5,229.6,196,229.9z M196.1,42.6c0-0.3,0.3-0.4,0.4-0.5C196.6,42.7,196.4,42.6,196.1,42.6z
	 M196.7,217.5c0.3,0.1,0.4,0.2,0.4,0.6C196.7,218.6,196.7,217.7,196.7,217.5L196.7,217.5L196.7,217.5z M196.9,227.8
	c-0.3-0.6,0.1-0.9,0.5-1.3C197.5,227.2,197.2,227.4,196.9,227.8z M198.1,213.1c-0.1-0.1-0.1-0.3,0-0.4
	C198.2,212.7,198.2,212.8,198.1,213.1z M198.5,43.3c0.4-1.2,0.6-1.4,1.9-0.6C199.4,42.4,199.3,43.5,198.5,43.3z M200.4,213.5
	c-0.3,0.1-0.4,0.3-0.4,0.5C199.6,213.6,200.4,213.5,200.4,213.5z M199.9,215.5c0,0,0.5-1,0.5-0.4C200.4,216,199.4,215.6,199.9,215.5
	z M200.2,217.5c-0.5-0.3-0.5-0.5,0-0.8C200.2,216.7,201.2,217.5,200.2,217.5z M201.3,41.3c0.2,0.4,0.1,0.5-0.6,0.5
	C201.1,41.5,201.2,41.4,201.3,41.3z M201.3,223.5c-0.9-0.9,0.1-1.9,1.1-1.3C201.6,222.4,201.4,222.8,201.3,223.5z M202.5,219.3
	c0.3-0.3,0.4-0.3,0.6,0.1C202.8,219.7,202.7,219.7,202.5,219.3z M203,218.8c-0.6-0.3-0.1-0.4,0.1-0.5C203,218.4,203,218.5,203,218.8
	z M203.1,218.2c0.1-0.5,0.3-0.5,0.6-0.1C203.6,218.4,203.3,218.1,203.1,218.2z M204,210.8c0.3-0.5,0.5-0.5,0.6,0
	C204.6,211.2,204,211.1,204,210.8z M204.3,220.6c0.4,0,0.6,0.1,0.8,0.5C204.4,221.6,204.5,220.9,204.3,220.6z M204.9,219.1
	c0.5-0.5,0.5-0.5,1-0.1C205.5,219.3,205.3,218.9,204.9,219.1z M206.2,209.3c-0.5-0.3-0.6-0.4-0.3-0.6
	C206.4,208.8,206.5,208.9,206.2,209.3z M206.3,206.6l0.1-0.1C206.5,206.7,206.4,206.6,206.3,206.6z M206.6,198.2
	c0.3,0.3,0.3,0.4-0.1,0.6C206.2,198.5,206.2,198.3,206.6,198.2z M207,212.5c-0.6-0.1-0.6-0.4-0.1-0.8
	C207.4,212.1,207.4,212.3,207,212.5z M207,208.8c-0.4-0.3-0.4-0.4,0.1-0.5C207.4,208.6,207.4,208.7,207,208.8z M221.5,60.4
	c0.3,0.3,0.1,0.6,0.1,0.9C221.4,61,221.4,60.8,221.5,60.4z M221.1,58.4c-0.5,0.6-0.9,0.5-1.1-0.1C220.4,58.3,220.8,57.8,221.1,58.4z
	 M220.2,62.3c-0.4-0.5,0.1-0.5,0.3-0.8C220.7,61.9,220.4,62,220.2,62.3z M218,53c0.9-0.4,0,0.6,0,0.6C217.6,53.4,217.6,53.2,218,53z
	 M215.8,46.5c-0.5,0-0.3-0.3-0.4-0.5C215.8,46.1,215.6,46.3,215.8,46.5z M213.7,54.8c-0.1-0.4-0.4-0.6-0.6-1.1
	C214.1,53.7,214.3,54,213.7,54.8z M212.8,57.8c-0.1,0.1-0.1,0.4-0.4,0.4C212.2,57.6,212.6,57.8,212.8,57.8z M211.7,59.7
	c-0.1,0.4-0.3,0.6-0.5,0.6C211.2,59.9,211.2,59.9,211.7,59.7z M211.2,55c0.3-0.3,0.4-0.3,0.5,0.1C211.4,55.5,211.2,55.5,211.2,55z
	 M211.4,200.8c0-0.3,0-0.5-0.1-0.8C212.3,200.3,211.8,200.4,211.4,200.8c-0.2,0.2,0.4,0.6-0.1,0.9
	C209.8,201.8,211.4,200.8,211.4,200.8z M208,212.5c0.1-0.3,0.5-1.4,1-1C209.8,212,208.5,212.7,208,212.5z M209.3,213.3
	c-0.1-0.8,0.5-0.6,0.9-0.8C210,213,209.8,213.2,209.3,213.3z M210.2,209.7C210.3,209.7,210.3,209.8,210.2,209.7L210.2,209.7z
	 M209.2,207.7c1-0.4,2.1,0.1,2.9-0.8C211.8,207.7,210.8,209.3,209.2,207.7z M211.3,50.5c-0.1-0.9,0.3-0.8,0.8-0.8
	C211.8,50,211.6,50.2,211.3,50.5z M212.8,60.5c-0.6-0.6-0.9-1.6,0.1-1.3C213.2,59.7,213.2,60.1,212.8,60.5z M212.8,57.6
	c0.3-0.5,0.5-0.9,0.9-1.4C214.1,57.3,213.9,57.5,212.8,57.6z M213.6,60.1c-0.2-0.6,0.5-0.7,0.6-1.1
	C214.3,59.5,213.8,59.8,213.6,60.1z M216.3,55.5c-0.6,0-1.1-0.1-1.6-0.1C214.8,54.6,216.2,54.6,216.3,55.5z M216.1,58.9
	c0.5,0.1,0.5,0.4,0.1,0.5C215.8,59.3,215.7,59,216.1,58.9z M216.1,197.2c-0.1-0.3-0.4-0.6-0.6-0.8
	C215.8,196.4,216.4,196.9,216.1,197.2z M215,61.5c-0.1,0.2-0.1,0-0.1,0H215z M214.9,205.8c0-0.8,0.5-0.5,0.9-0.5
	C215.8,205.9,215.3,205.8,214.9,205.8z M215.7,209.1c0.3,0,0.4,0.3,0.5,0.4C215.8,209.7,215.7,209.6,215.7,209.1z M215.6,204.2
	c0.3-0.3,0.5-0.5,1-0.4C216.5,204.6,216.1,204.6,215.6,204.2z M216.3,198.9c0.3-0.1,0.4-0.1,0.6,0
	C216.8,199.1,216.6,199,216.3,198.9z M216.1,53.6c0.4,0,0.8-0.1,0.9,0.4C216.3,54.3,216.3,54.3,216.1,53.6z M217.7,55.9
	c0.5-0.8,0.8-0.9,1.8-0.8C219.3,55.1,216.6,57.6,217.7,55.9z M217.8,198c-0.3-0.3-0.1-0.4,0.1-0.5
	C218.2,197.8,218.2,197.9,217.8,198z M218.2,56.6c0.5-0.1,0.8,0.4,1,0.8C218.2,57.9,218.1,57.3,218.2,56.6z M218.6,198.8
	C219.4,199.7,218.6,199.2,218.6,198.8L218.6,198.8z M218.6,201.7c-0.1-0.3-0.3-0.6,0.3-0.8C219.1,201.2,219.1,201.4,218.6,201.7z
	 M219.1,200.2c-0.3-0.3-0.1-0.5-0.1-0.8C219.5,199.5,219.2,199.8,219.1,200.2z M219.2,57.3c0.4,0.2,0.3,0.7,0.5,0.8
	C219.1,58.1,219.3,57.7,219.2,57.3z M220.1,201.9c-0.3-0.3-0.3-0.4,0-0.6C220.5,201.5,220.4,201.7,220.1,201.9z M220.5,194.7
	c-0.1-0.3-0.5-0.3-0.4-0.6C220.5,194.1,220.7,194.4,220.5,194.7z M220.9,199.9c-0.4-0.5-0.3-0.8,0.1-1.1
	C221.5,199.3,221.4,199.7,220.9,199.9z M221.6,195.5c-0.3-0.4-0.3-0.6,0.1-0.8C221.7,195.1,221.6,195.3,221.6,195.5z M223,52.7
	c-0.1,0.3-0.4,0.3-0.9,0.3C222.5,52.5,222.7,52.6,223,52.7z M223.1,192.4c-0.5,0.4,0-0.6,0-0.5C223.4,192,223.2,192.2,223.1,192.4z
	 M223.7,60.7c-0.1-0.3-0.5-0.3-0.3-0.8C223.6,60.2,224,60.2,223.7,60.7z M244.7,134.8c0.4,0.4,0.3,0.6,0,0.9
	C244.4,135.3,244.4,135.1,244.7,134.8z M244.1,137.1c-0.4-0.4-0.4-0.7,0-1C244.6,136.5,244.5,136.7,244.1,137.1z M243.1,134.3
	c0.3-0.2,0.5-0.2,0.8-0.1C244,134.8,243.1,134.6,243.1,134.3z M242.7,132.8c0.1-0.3,0.4-0.4,0.8-0.3
	C243.1,133.4,243,133.4,242.7,132.8z M242.7,123.6c0.1-0.5,0.4-0.6,0.9-0.5C243.5,123.6,243.2,123.7,242.7,123.6z M243.4,120
	c0.3,0.4,0.1,0.5-0.3,0.4C242.8,120,243,119.9,243.4,120z M242.7,116.3c0.4,0.4-0.1,0.6-0.6,0.8
	C242.1,116.7,242.3,116.5,242.7,116.3z M243,119.1c-0.5-0.1-1,0.1-1.3,0.9C241.4,119.5,242.3,117.7,243,119.1z M241.8,126.4
	c-0.4,0.4-0.8,0.3-1.4,0.1C241.2,126,241.2,126,241.8,126.4z M241.7,115.8c-0.3-0.8-0.4-1.3-0.6-1.8
	C242.1,114.1,242.1,114.1,241.7,115.8z M241,111.8c0.4,0.3,0.4,0.4,0,0.5C240.6,112.2,240.6,112.1,241,111.8z M240.6,112.9
	c0.3,0.1,0.4,0.3,0,0.5C240.3,113.4,240.3,113.2,240.6,112.9z M241.3,118.2c-0.3,0.4-0.6,0.5-1,0.1
	C240.6,117.8,240.9,117.8,241.3,118.2z M240.8,121.1c0.2,0.5-0.3,0.4-0.5,0.5c-0.1,0.4,0.1,0.8-0.1,1.1c-0.9-1.2-0.7-0.6,0.1-1.1
	C240.4,121.3,240.3,121,240.8,121.1z M240.2,106.3c-0.5-0.3-0.9-0.4-1.1-0.5C239.7,105.5,239.7,105.5,240.2,106.3z M235.9,129.4
	c0.9-0.1,1.5-0.3,2.3,0.4C236.8,130,236.8,130,235.9,129.4z M236.2,147.4c-0.3-0.4-0.3-0.8-0.1-1.1
	C236.6,146.5,236.7,146.9,236.2,147.4z M237.9,121.4c-0.1,0.4-0.4,0.4-0.6,0C237.4,121,237.7,121,237.9,121.4z M237.7,119.3
	c0.4-0.2,0.5-0.1,0.5,0.3C237.9,119.9,237.8,119.7,237.7,119.3z M237.9,126c0,0.5-0.4,0.6-0.8,0.6C237.2,126.1,237.4,126,237.9,126z
	 M237.4,125c-0.1,0.4-0.3,0.4-0.4,0C237.2,124.6,237.3,124.6,237.4,125z M238.3,131.4c0,0.8,1.1,1.4,0.4,2.3
	C238.1,132,238.1,132,238.3,131.4z M238.8,131c-0.3-0.3,0.5-1,0.6-0.9C239.7,130.3,239.1,131.3,238.8,131z M239.1,127.4
	c0.4,0.4,0,0.5-0.3,0.8C238.8,127.9,238.6,127.6,239.1,127.4z M238.1,122.1c1.3-0.3,1.3,1.1,1.4,2
	C239,123.9,238.2,122.7,238.1,122.1z M238.7,120.7c0.1-0.5,0.4-0.5,0.6-0.1C239.2,121.1,238.9,121.2,238.7,120.7z M238.3,117.1
	c0.1,0.5,0.6,0.6,0.8,1.1C238.3,118,238.3,118,238.3,117.1z M239,108.4c0.1,0.6,0.1,1-0.1,1.6C238.1,109.4,238.6,109,239,108.4z
	 M238.3,107.1c-0.1,0.1-0.2,0.3-0.5,0.6C237.3,107.3,238.2,106.9,238.3,107.1z M237.2,93.4c0.1,0.3,0.2,0.7,0.5,1.1
	C237.2,95.1,235.4,93.9,237.2,93.4z M236.4,124.8c-0.2,0.3-0.3,0.5-0.6,0.1C235.9,124.5,236.2,124.4,236.4,124.8z M236.2,104.8
	c-0.4,0.3-0.8,0-0.8-0.5C235.7,104.4,235.9,104.6,236.2,104.8z M232.2,168.7c0.1,0.1-0.6-0.9-0.1-0.6
	C232.3,168.4,232.3,168.6,232.2,168.7z M232.9,163c-0.3,0.1,0.3-0.5,0.3-0.5C233.2,162.6,233,162.8,232.9,163z M233.9,166.2
	c0-0.4,0.3-0.4,0.4-0.6C234.4,166.1,234.2,166.1,233.9,166.2z M234.8,154.2c-0.6-1.3-0.5-1.7,0.9-2.6
	C235.1,152.5,235.4,153.4,234.8,154.2z M235.9,153.7c0.5-0.3,1.3,0.4,1.1,0.9C236.4,154.4,236.1,154.2,235.9,153.7z M236.8,163.6
	c-0.6-0.5-0.5-1,0.1-1.8C237.1,162.1,237.4,163.8,236.8,163.6z M236.8,160.4c0.1-0.3,0.3-0.5,0.4-0.8
	C237.8,160.3,237.7,160.6,236.8,160.4z M238.1,164.8c-0.3-0.4-0.4-0.5-0.5-0.9C238.2,164.1,238.1,164.3,238.1,164.8z M239.7,164.5
	c-0.4-0.1-0.5-0.4-0.5-0.8c-0.2,0.1-0.4,0.1-0.1-0.2c0.3-0.3,0.1-0.1,0.3,0.1c0.1,0,0,0.1-0.2,0.1
	C239.7,163.8,239.8,164.1,239.7,164.5z M239.1,162.1c0,0.1,0.1,0.1,0.1,0.2C239.1,162.3,239.1,162.2,239.1,162.1L239.1,162.1
	L239.1,162.1L239.1,162.1C239.1,162,239.1,162.1,239.1,162.1c0.5-0.4,0.2-0.7,0-0.9C239.7,160.7,240.1,162.2,239.1,162.1z
	 M240.2,154.5c-0.3-0.1-0.1-0.3,0-0.4C240.3,154.3,240.3,154.4,240.2,154.5z M240.3,153.2c0.8-0.4,1.1-1,1.6-0.1
	C241.5,153.3,241.1,153.4,240.3,153.2z M240.5,152.1c0-0.7,0.3-1,0.8-1C241.4,151.7,241.2,152,240.5,152.1z M244.5,139.4
	c-2,1.6-1.1,6-0.1,6.3c-1.3,1-1.9,2.3,0.3,2.3c-0.7,3-3.4-2.1-2.6,2.5c-1.8-0.1-0.2-1-1.3-1.8c-1.6,1.2-2.3,2.2-2.3,5.1
	c-0.7-0.2-1.4-0.3-2.1-0.3c0.1-0.4,1.9-2.5,1.8-2.9c-0.2,0.3-4.1,0-4.1,0s1.6-2,1.5-2c0.9,0,3.5,2.3,4.9-0.5
	c-1.2-0.3-2.2-1.5-3.5-0.8c0.1-1-0.8-3.2-0.5-3.9c0.8-2.4,2.1,1.7,3-0.9c-1.3-1.5-2.5-0.4-3-2.5c-0.1-0.5,0.6-4.3,1.5-3.9
	c-0.2,1.1-0.7,1.8,1.3,0.9c0.7-0.3-1-2.1-0.8-2.6c2.4,1.9,1.5-1.4,3.5,0.1c1.4,1-1.4,1.3-0.8,2.3c2-0.5,0.7,1.8,0.2,2.8
	c0.5,0.6,2.9-0.4,2.4-0.8c-0.3,0-0.6-0.1-0.9-0.3C242.9,136.2,246,139.1,244.5,139.4z M244.9,138.1c0.3-0.3,0.4-0.8,0.8-0.1
	C245.5,138.2,245.1,137.9,244.9,138.1z M245.6,134.6c-0.5-0.1-0.5-0.3,0-0.5C245.9,134.3,245.9,134.4,245.6,134.6z M246.5,138.8
	c-0.4,0-0.5-0.3-0.4-0.6C246.5,138.3,246.6,138.4,246.5,138.8z"/>
<path class="st0" d="M127.7,23.6c-57.9,0-104.9,47-104.9,104.9s47,104.9,104.9,104.9s104.9-47,104.9-104.9S185.6,23.6,127.7,23.6z
	 M127.7,227.6c-54.7,0-99-44.4-99-99s44.4-99,99-99s99,44.4,99,99S182.4,227.6,127.7,227.6z"/>
<path class="st1" d="M154.5,48.4c0.3,2.8-0.3,5.5-0.3,8.2c1,0.3,1.8,0.8,2.8,0.9c2.5-4.1,5.2-8.2,7.7-12.3c-1-0.4-1.9-0.6-2.8-0.9
	c-1.6,2.4-2.9,5.2-4.8,7.4c0.3-2.9,0.5-5.8,0.8-8.7c-0.9-0.3-1.6-0.5-2.5-0.9c-1.6,2.6-3.1,5.2-4.6,7.7c-0.1,0-0.1-0.1-0.3-0.1
	c0.4-2.9,0.6-5.8,1-8.8c-1-0.3-2-0.8-3.1-0.9c-0.4,4.8-0.8,9.6-1.1,14.5c1,0.3,1.8,0.8,2.8,0.8C151.6,52.9,152.9,50.6,154.5,48.4z"
	/>
<path class="st1" d="M77.4,57c-2-2.4-4.8-2.4-7.3-0.4c-2.3,1.8-2.8,4.5-1.1,6.9c1,1.4,2,2.8,3,4.1c1.4,1.9,3.5,2.4,5.7,1.6
	c2.3-0.8,3.9-2.9,3.9-5.2c0-0.9-0.3-1.8-0.8-2.5C79.7,60.2,78.7,58.5,77.4,57z M78.2,65.7c-0.6,0.9-1.4,1.3-2.6,0.9
	c-1.3-0.9-1.9-2.3-2.9-3.5c-0.5-0.5-0.9-1.1-1.3-1.8c-0.6-1-0.4-2,0.6-2.6c0.9-0.6,1.9-0.6,2.6,0.3c1.3,1.5,2.4,3.1,3.5,4.8
	C78.7,64.3,78.7,65.1,78.2,65.7z"/>
<path class="st1" d="M127.1,45.1c1.9-1.1,1.8-2.6,1.5-4.3c-0.3-1.6-1.1-2.6-2.8-2.9c-2.4-0.4-4.6,0.1-7.2,0.1
	c0.3,4.9,0.4,9.4,0.6,14.2c1.1,0,2.1,0.1,3-0.1c0-1,0-1.9,0-2.8c0-0.9,0-1.9,0-2.9c1,0,2-0.3,2.9,0.1c0.5,0.4,0.5,0.9,0.6,1.4
	c0,0.8,0,1.4,0.1,2.1c0.1,0.8,0.3,1.4,1.1,1.9c0.3,0,0.5,0,0.9,0c0.6,0,1.1,0,1.8,0c0.1-0.1,0.3-0.3,0.4-0.3c-1-1-1-2.3-1-3.4
	C128.9,46.9,128.7,45.6,127.1,45.1z M125.6,43.5c-0.9,1.1-2.1,0.6-3.3,0.8c-0.3-1.3-0.1-2.4-0.3-3.6c1-0.1,2-0.3,3,0
	C125.8,41.5,125.4,42.5,125.6,43.5z"/>
<path class="st1" d="M172.6,59.6c0.8,1.3,0.6,1.8-0.6,2.6c-1,0.1-1.6-0.3-2.3-1c-0.8-0.9-0.3-1.8,0-2.6c-0.8-0.5-1.5-1-2.4-1.4
	c-1.5,2-1.5,3.6-0.1,5.4c1,1.3,2.3,2,3.6,2.3c1.9,0.4,3.4-0.3,4.4-1.8c1-1.4,0.9-2.9,0.1-4.3c-0.4-0.6-0.9-1.4-1.4-2
	c-0.4-0.5-0.8-0.9-1-1.5c-0.5-1-0.1-1.8,0.8-2c0.8-0.3,1.4,0.1,1.9,0.6s0.6,1,0.5,1.8c-0.1,0.4-0.5,0.6-0.4,1c0.8,0.4,1.4,1,2.3,1.3
	c1.4-1.6,1.5-3.4,0.3-5c-0.6-0.9-1.5-1.5-2.5-2c-2-0.9-4-0.5-5.3,0.9c-1.3,1.5-1.4,3.3,0,5.2C171.3,58,172,58.8,172.6,59.6z"/>
<path class="st1" d="M111.9,50.5c-0.3-1.1-0.5-2.1-0.5-3.1c1.3-0.5,2.5-0.4,3.8-0.9c0-0.8-0.1-1.4-0.4-2c-1.3,0-2.5,0.5-3.9,0.5
	c-0.3-1-0.5-1.9-0.4-2.9c1.9-0.4,3.6-0.6,5.4-1c0-1-0.3-1.8-0.5-2.6c-2.9,0.5-5.8,0.9-8.8,1.5c0.9,4.6,1.6,9.3,2.5,13.9
	c3-0.5,5.8-1,8.7-1.5c0-1-0.3-1.9-0.4-2.8C115.5,49.9,113.7,50.3,111.9,50.5z"/>
<path class="st1" d="M104.1,55.4c0-5,0-9.9,0-15c-1.1,0.4-2.1,0.5-2.9,1c0,3.1,0.5,6.2,0.1,9.3c-1.8-2.6-3.4-5.2-5.2-7.8
	C95,43.3,94,43.4,93,44c2.8,4,5.7,8,8.4,12.1C102.3,56,103.2,55.8,104.1,55.4z"/>
<path class="st1" d="M182.7,55.7c-0.6,0.8-1.1,1.4-1.8,2c0.8,1,1.9,1.4,2.6,2.4c-2.4,2.9-4.6,5.8-7,8.8c1,0.6,1.6,1.4,2.5,1.9
	c2.4-3,4.6-5.9,7-8.8c1.1,0.6,1.8,1.6,2.9,2c0.5-0.8,1.3-1.3,1.6-2.1C188,59.8,185.4,57.8,182.7,55.7z"/>
<path class="st1" d="M142.3,42c1.1-0.1,2.3,0.4,3.4,0.4c0.3-1,0.6-1.9,0.3-2.8c-3.4-0.5-6.5-0.9-9.9-1.4c0.1,1-0.4,1.8-0.3,2.6
	c1.1,0.5,2.3,0.3,3.4,0.8c-0.5,3.8-1.1,7.4-1.6,11.2c1.1,0.1,2.1,0.5,3.1,0.3C141.3,49.2,141.8,45.6,142.3,42z"/>
<path class="st1" d="M92.5,59.8c-0.6-0.9-0.9-1.8-1.5-2.4c-1.6,0.9-3.3,1.8-4.9,2.8c-1.9-3.3-3.6-6.5-5.5-9.9c-1,0.5-1.8,1-2.8,1.5
	c2.4,4.1,4.6,8.3,6.9,12.4C87.3,62.7,89.9,61.3,92.5,59.8z"/>
<path class="st1" d="M163.6,60.7c2.1-4.3,4.1-8.5,6.2-12.8c-1-0.5-1.9-1-2.9-1.3c-2,4.3-4.1,8.4-6.2,12.7
	C161.7,59.8,162.6,60.3,163.6,60.7z"/>
<path class="st1" d="M96.4,58c-1.9-4.3-3.8-8.5-5.7-12.8c-0.6,0-1.1,0.4-1.5,0.5c-0.5,0.3-1,0.3-1.4,0.9c1.9,4.3,3.8,8.5,5.7,12.8
	C94.6,58.9,95.6,58.7,96.4,58z"/>
<path class="st1" d="M93.3,207.8c0.4-0.8,0.8-1.4,0.9-2.1c-1.4-0.8-2.8-1.1-4-2c0.4-1,0.8-1.9,1.4-2.8c2,0.9,3.9,1.8,5.9,2.6
	c0.4-1,0.9-1.8,1.1-2.6c-3.1-1.4-6.2-2.8-9.3-4.3c-2.1,4.6-4.1,9.2-6.3,13.8c3.1,1.4,6.2,2.8,9.2,4.1c0.6-0.9,0.9-1.8,1.4-2.8
	c-2-0.9-3.9-1.8-5.9-2.8c0.5-1.1,0.9-2.1,1.5-3.1C90.6,206.7,91.9,207.2,93.3,207.8z"/>
<path class="st1" d="M151.2,207.1c-0.6-2.3-2.4-3.4-4.8-3.4c-0.9,0-1.6,0.1-2.5,0.5c-2.5,0.9-3.6,2.8-3.3,5.4c0,0.4,0.1,0.8,0.3,1.1
	c0.5,2.4,2.3,3.5,4.6,3.1c1.4-0.3,2.4-0.9,3.3-2c0.3,0.9,0.4,1.5,0.5,2.3c0.4,1.6-0.5,2.6-2.3,2.8c-1.3,0-1.8-0.6-2.1-1.8
	c-1,0.3-1.9,0.4-2.9,0.6c0.1,2.1,1.3,3.5,3.1,3.8c1.6,0.3,3.3,0.1,4.6-0.6c1.9-1,2.9-2.8,2.6-4.9
	C152.4,211.7,151.9,209.3,151.2,207.1z M147.7,211c-1.3,1.3-3.1,0.9-3.6-0.9c-0.1-0.3-0.1-0.6-0.3-0.9c-0.3-1.4,0.3-2.4,1.5-2.6
	c1.3-0.3,2.4,0.4,2.8,1.8c0.1,0.5,0.1,1,0.3,1.5C148.3,210.2,148,210.6,147.7,211z"/>
<path class="st1" d="M100.3,206c-1.4,0-2.5,0.8-3,2c-0.5,1.4,0.1,2.5,1.3,3.4c0.4,0.3,0.8,0.6,1.1,0.9c0.6,0.4,1.1,0.8,1.6,1.4
	c0.1,0.6,0,1-0.5,1.3c-1,0.1-1.9-0.1-2.5-1.1c-0.1-0.4,0.1-0.9-0.3-1.3c-0.8-0.1-1.4-0.6-2.3-0.6c-0.3,0.9-0.4,1.8,0.1,2.6
	c1,2,4.4,3.1,6.4,2.3c2-0.9,2.5-3.3,1-4.9c-0.8-0.8-1.8-1.3-2.5-2c-0.4-0.4-1-0.8-0.6-1.5c1.4-0.9,2.5-0.3,2.9,1.8
	c0.6,0.3,1.4,0.4,2.1,0.6c0.5-0.8,0.4-1.4,0.1-2.1C104.8,207.3,102.8,205.8,100.3,206z"/>
<path class="st1" d="M173.6,200.9c0.8-0.9,1.1-1.8,0.9-2.9c-0.4-1.4-1.8-3.4-4-3.4c-2.3,0-4,1-5.4,2.8c-0.9,1.1-1.1,3.8,0.5,5
	c0.8-0.5,1.8-0.8,2.4-1.5c-0.9-2.1-0.5-2.8,1.6-3.4c1.4,0.5,1.9,1.4,1.9,2.8c-0.4,0.9-1.5,1.1-2.3,1.8c0.4,0.6,0.6,1.4,1.1,1.9
	c0.9-0.4,1.6-1.1,2.9-0.8c1.4,1.4,1.8,2.8,0.8,3.6c-1.1,1-2.3,0.8-3.6-1c-0.9,0.5-1.6,1-2.5,1.4c0.8,2.5,2.9,3.4,4.5,3.1
	c1.5-0.3,2.8-0.9,3.9-1.9c1.4-1.3,1.9-3,1.4-4.6C176.9,201.7,175.9,201.1,173.6,200.9z"/>
<path class="st1" d="M135.9,205.7c-0.1,0.9-0.6,1.5-1.5,1.8c0.4,4.5,0.9,8.9,1.3,13.4c1.1,0,2.3,0,3.4-0.4c-0.5-5-1-9.9-1.4-14.8
	C136.9,205.6,136.4,205.5,135.9,205.7z"/>
<path class="st1" d="M113.6,209.5c-0.6-0.4-1.3-0.3-1.8-0.6c0.1-0.8,0.3-1.6,0.5-2.4c-1-0.1-2-0.1-2.8,0c-0.6,0.5-0.3,1.4-0.6,1.8
	c-0.6,0.3-1-0.3-1.6,0c-0.4,0.6-0.4,1.3-0.4,2c0.4,0.3,0.9,0.4,1.4,0.5c-0.3,2.9-1.5,5.5-1,8.4c1.1,0.4,2.1,0.6,3.1,0.6
	c-0.8-3,0.5-5.7,0.9-8.2c0.8-0.4,1.4,0.3,2.1-0.1C113.2,210.7,114,210.1,113.6,209.5z"/>
<path class="st1" d="M163.6,203.3c-1.1-2.8-3.1-3.9-6-3.1c-2.1,0.5-4,1.6-4.5,4c-0.4,2.1,0.5,3.9,1.8,5.5c0.4,0.4,1,0.8,1.5,0.8
	c1.9,0.3,3.5-0.3,4.8-1.9c0.1-0.3,0.1-0.6,0.6-0.5c0.3,0.8,0.6,1.5,0.9,2.4c0.3,1.1-0.1,1.9-1.1,2.3c-1.1,0.6-2,0.5-2.8-0.5
	c-0.1-0.3-0.1-0.5-0.6-0.6c-0.8,0.3-1.6,0.6-2.5,0.9c0.5,2.3,1.9,3.4,4.4,3.3c3.6-0.3,7.2-2.9,5.3-7.8
	C164.8,206.6,164.3,205,163.6,203.3z M158.2,208.1L158.2,208.1L158.2,208.1L158.2,208.1c-1.3,0-1.9-1.8-2.1-3c-0.1-1,0.5-1.8,1.8-2
	c1.3-0.4,2,0.1,2.6,1.5C161.2,206.5,160.2,208.1,158.2,208.1z"/>
<path class="st1" d="M113.7,217.3c0,1-0.4,1.9-0.3,3c0.9,0,1.8,0.4,2.6,0.3c0.1-1,0.5-2,0.4-3C115.5,217.3,114.6,217,113.7,217.3z"
	/>
<g>
	<path class="st2" d="M148.4,159.3c0.1-0.3-0.1-0.5-0.1-0.8c2.4-0.6,2.6-1.1,1.4-2.8c0.2-2.1,0.8-4,1.9-5.8c0.3-1.3,1.1-5.1,1.7-6.9
		c0.6,0.1,1.3,0,1.8-0.3c0.3-0.6-0.4-0.8-0.5-1.3c1.7-3.5,2.1-7.9,4.2-10.8c-0.3-2.8,2.1-7.7,2.8-10.3c2.3-1.7,4-14.4,2.1-15.5
		c-1.6,4.8-17.2,3.5-19.1,5.8c1.3,1.3,2.9,1,4.4,0.9c0,0.1,0,0.3,0,0.4c-5.1,0.4-9.8,0.4-14.8-0.1c-0.9-1.5-0.3-2.2-2.8-2.7
		c-0.2-0.1-2.1-6.9-2.1-2.1c-2-1.5-0.8-3.8-1.5-5.5c2,0.4,2.6-1,3.1-2.5c-0.3-0.4-0.6,0-0.9-0.4c1.3-1.9,1.3-1.9,0.6-2.9
		c1.9,1,3,0.5,3.3-1.5c3-3.2,7.6-0.4,10-2.8c-0.9-1-2-0.8-3.3-0.4c0.5-1.2,9.8-2.4,9.5-2.2c-0.8-1.4-2,0.1-2.9-0.5
		c2.7-2.2,9.1-0.1,12.5-1.5c2.9-2.9,10.6-0.4,12.5-4.2c0.5,0.3,0.6,0.9,1.3,0.9c0.6-0.3,0.6-0.9,0.9-1.5c0.7,0.7,7.3,0.7,7.8-0.5
		c0.4,0,0.4,0.5,0.6,0.8c3.7-2.9,11.8-1.7,16.3-1.7c3.9,2.2,11.6-2.3,15.2,0.6c0.1,0.4-0.8,0.9,0.1,1.3c0.6-0.4,0.5-1,0.6-1.5
		c-0.3,0,3.7,3.7,2.5,0.7c-0.1-0.1,0-0.4-0.1-0.5c0.4,0,8.2,1.3,8.7,1.8c-0.6,0.8-1.6,0-2.1,0.5c-0.5,2,2,1.6,3,2.1
		c0.6-1,1.5-0.6,2.4-0.3c0.4,0.4,0,0.9,0.4,1c-0.2,0.2-3,1.2-3.4,1.2c-0.1-0.1-0.3-0.3-0.1-0.3c-0.5-1.8-1.3-2.2-2.4-1.4
		c-1,0.1-0.9,1.6-2,1.5c1.4,1.3,1.4,0.9,0.9,2.3c1.6,1,3.9,0,5.5,1c-1.2,3.3-4.5,0-5.6,2.6c0.9,0.4,1.1,1.1,1.6,1.8
		c-0.9,0-1.8,0.1-2.8,0c-0.2-0.9,0-1.6,0.6-2.2c0.3-0.5,0-0.8-0.7-0.9c-0.5,0.4-1,0.9-1.3,1.5c0.1,0.6,0.9,0.8,0.8,1.5
		c-1.1,0.6-1.1,0.6-0.6,1.9c-0.8-0.1-1,0.5-1,1c-0.8,0.1-1.4,0.3-2.1,0.3c-0.3-1.4-0.1-1-1.8-1c0,0.4,0.1,0.7,0.4,1
		c-0.3,0-0.6,0-0.9,0c-0.6-1.6-1.1-1.9-2.6-1.4c-0.5-0.1-0.4-0.9-1-0.8c-0.6,1.6-0.5,1.9,1.6,2.3c0.4-0.1-10-1.3-6.8,1.9
		c-0.6,0.1-1.1,0.4-1.6,0.3c-0.5-0.5,0.1-0.8,0-1.3c-2-0.8-16.4-1.7-16.8,0.2c0,0.7,14.3,1.1,13.5,0.9c-5.2,0.1-10.3,0-15.6,0.8
		c2.6,4.9-2.2,12.2-0.1,16.1c0,0,0,0.1,0,0.3c-0.2,1.9-0.7,3.7-1.4,5.4c2.2,2.4-2.3,8.5-2.3,11.1c-2.8,0.3-1.3,9.6-3.3,9.6
		c-0.6,0.9-1.1,1.9-1.6,2.9c0.3,0.6-2.1,2-1.8,3.2c-0.3,0.4-0.6,0.4-1.1,0.6c-0.4,1.5-0.8,3.1-1.1,4.6c-0.6,0.5-1.5,0.8-1.9,1.5
		c0,0.6,0.8,0.5,0.9,1c-0.3,0-0.5,0.1-0.9,0.1c-1.6,5.4-3.9,10.6-6.3,15.3c-0.6,0.4-0.8-0.3-1.1-0.1c-0.5-1.3-0.3-2.6-0.3-3.9
		c0.9-0.8,1.6-1.7,1.9-2.9c1.2-1.2-3,0.3-2.7,0.5c0.3-1,0.9-1.6,1.6-2.1c-0.1-0.3-0.4-0.4-0.3-0.6c7-5.6,0.6-2.9,1.4-4.2
		c-0.1,0.5,0.5,0.6,0.6,1c-0.4,0.4-0.6,0.6-1.3,0.4c0.6-1.6,0.4-3.2-0.6-4.7c-2.3-2.3-1.2,2.8-1.1,2.5c-0.6-0.1-0.6-0.1-1.4,0.3
		c0.4,0.4,0.1,1,0.3,1.4c0.4,0.3,0.8,0,1.1,0.4c-2.1,3.3-0.3,8.1-1.8,10.9c0.9,0.5,1.4,1.5,2.5,1.3c-0.9,1.2-1.6,2.5-2.1,3.9
		c-1.3-1-0.6-2.4-0.9-3.5c0.5-0.5,1.3-3.9-0.2-4.7c0-1.7,0.3-2.2-2.1-1.2c-0.5,2.4-0.4,4.6,0.4,6.8c-0.3,0.6-1.3,1-0.8,2.1
		c-0.1,0.1-0.5,0.4-1.1,0.6c0.8-1.9,0.4-3.8,1.1-5.7c-0.9,0.1-1.8,0.4-2.5-0.1c-0.3,0.4-0.4,0.8-0.5,1c0.3,0.5,0.6,0.3,1,0.5
		c0,0.5-0.1,1.3,0.8,1.8c-1,1-1.7,2.2-2,3.5c-1.8-0.7,1.6-3.9-1.5-3.9c0.1,3.4-1.1,5.4-3.7,5.9c0.9-1,1.4-2,0.1-3l0,0
		c0-1.5,2.1-2.3-1-2.7c0.1,3.2-0.7,4.5-2.5,4c0-0.6,0-1.4,0-2.1c1.2,0.3,1.3-0.2,0.3-1.5c0-0.5,0.6-1.1-0.3-1.6
		c-1.4,2.2-1.5,2.4-2.5,4.8c-1.6-2.2,2.7-7.1,0.7-8.5c-1.7,0.2-1.7,4.1-2.8,5c0.7-3.5,1.9-6.9,3.5-10.2c-0.3,1-0.4,2-0.2,3
		c2.1-1.1,4.3-9.7,2.3-8.4C148.7,159.2,148.5,159.2,148.4,159.3L148.4,159.3z M169.8,145.1c-0.4,1.1-0.4,2.1,0.1,3.3
		C171.7,148.4,172.9,143.8,169.8,145.1z M183.4,101.1c0-0.2,2.3,4.3,2.3,1.8C185.8,101.1,185,100.5,183.4,101.1z M216.9,95.9
		c1.1,2.1,3.7,0.3,2.2-0.8C218.8,96.1,217.7,95,216.9,95.9z M135.5,111.1c0.8,0.3,0.8,0.3,1.5-0.6
		C136.1,110.1,136.1,110.1,135.5,111.1z M213,93.6c0.5,0.3,0.9,0.3,1.1-0.3C213.8,93.1,213.4,93,213,93.6z M130.8,103.7
		c-1.2-1.2-0.8,0.3-0.4,0.3C130.6,103.9,130.7,103.8,130.8,103.7z"/>
	<path class="st2" d="M137.7,89.7c-0.1-0.5,0-0.9-0.3-1.3c0.8-0.5,1.6-0.3,2.6-0.3C139.2,88.8,139,90,137.7,89.7z"/>
	<path class="st2" d="M140.6,114c1.3-0.4,2.5-0.3,3.6-0.1C143.1,114.3,141.9,114.7,140.6,114z"/>
	<path class="st2" d="M225.8,95.1c-0.6-0.5-0.4-0.9,0-1.4C226.2,92.5,227.7,95.4,225.8,95.1z"/>
	<path class="st2" d="M195.9,79.5c0.8-0.3,1.3-0.5,1.9-0.1C197.4,80,197.4,80,195.9,79.5z"/>
	<path class="st2" d="M130.3,91.5c0.5-1.3,0.5-1.4,1.3-0.6C131.1,91.5,131.1,91.5,130.3,91.5z"/>
	<path class="st2" d="M204.5,79.2c0.9,0,1.5-0.1,2.1,0.4C205.9,79.8,205.2,79.9,204.5,79.2z"/>
	<path class="st2" d="M225.6,89.3c-1,0-1-0.1-0.5-1C225.8,88.5,225.5,89.1,225.6,89.3z"/>
	<path class="st2" d="M127.9,97.3c0.4,0.4,0.1,0.6-0.1,0.9c-0.1,0-0.3-0.1-0.3-0.1C127.4,97.6,127.6,97.4,127.9,97.3z"/>
	<path class="st2" d="M131.6,93.5c-0.1,0.5-0.4,0.6-0.9,0.8C130.6,93.6,131,93.4,131.6,93.5z"/>
	<path class="st2" d="M224.5,81.7c0.5-0.4,0.9-0.4,1.1,0.1C225.2,82,224.8,81.9,224.5,81.7z"/>
	<path class="st2" d="M156.1,179.9c-0.1-0.3-0.1-0.6,0-0.9C156.7,179.4,156.5,179.7,156.1,179.9z"/>
	<path class="st2" d="M159.7,86.3c-0.5,0.3-0.9,0.1-1.3,0.1C158.9,86.1,159.2,86.2,159.7,86.3z"/>
	<path class="st2" d="M129.9,98.8c-0.3,0.1-0.5,0.3-0.8,0C129.6,98.5,129.7,98.5,129.9,98.8z"/>
	<path class="st2" d="M128.2,96.1c0.1-0.3,0.4-0.3,0.6-0.1C128.7,96.2,128.4,96.2,128.2,96.1z"/>
</g>
<g>
	<path class="st3" d="M113.6,107.6c3.9,0,2.2,2.5,4.2,5c0.7-0.7,3.3-0.7,1.5,1.3c1.3,1,2.3,2.1,2,3.8c1.3,0.1,2.4-0.3,3.4-1.1
		c-2.3,0.2-3.1-0.8-3.5-4.2c4-1.4,3.6,7,11.5,9.2c4.5,10.9,6.8,1.6,6.6,12.5c-0.4,2.3,0.4,3.9,2.5,4.9c0.1,0.4,0,0.8,0,1.1
		c-0.1-0.1-0.3-0.1-0.4-0.3c-1.3-0.8-4.5,5.7-5,6.3c0.3-1.8,1.5-3,2.1-4.6c-0.4-0.5-0.8-0.1-1.4-0.1c0-0.4,0.1-6-2.3-5.5
		c-0.6,0.1,0.8,7.7-0.6,9.1c1.3,0.8,0.9,1.8,0.6,2.8c0.5,0.4,1,0.8,0.5,1.5c0.9,1,0.1,2.3,0.9,3.3l-0.1,0.1c-0.3,0-3.9,2-3.8,2
		c1.1-1.3,1.3-2.9,2.4-4c-0.3-0.5-0.8-0.3-1.1-0.6c1-1.6,0.6-2.8-1.1-3.6c-0.7,0.4-1,5.4-0.8,6.2c-2.3-0.2,0.8-3.8-1.4-3.8
		c-2.5,0,0.8,3.5-2.7,2.5c-1.6,1.3-2.6,3.8-5.4,2.8c-0.4,0.5-0.3,0.9,0.3,1.1c-2.8,3.1-22,16.6-25.4,13.2c3.5-2.7,12.1-2.4,14.4-6.6
		c-1.3-0.9-3.8-0.2-5,0.7c-0.3-0.2-2.6-2.4-2.9-1c0.1,1.1,0.8,1.6,2,1.4l0.1,0.1c-1.1,1-2.5,1-3.8,1.6c-1.3-1.7-4.3-1.4-4.5,1.6
		c-0.4,0.1-0.8,0.1-1.1,0.3c-0.2,1-2.4,2.4-3.6,2.2c0-0.8,1.5-2.2-0.5-2.2c0.9-0.6,1.9-0.6,2.4-1.5c-0.1-0.9-0.8-0.4-1.3-0.5
		c-0.3-0.5-0.1-0.9-0.1-1.6c0.6,1.1,1.6,0.5,2.4,1c1.2-0.7,4-1.7,4.3-2.8c1.6,1.3,1.6,1.3,2.3,1c0-0.6-0.6-0.4-0.9-0.6
		c-0.7-2.8,2.1-1.5,3.1-2c0.1,0.1,0.1,0.1,0.3,0.3c-0.2,1,2.8,1.3,1.2-0.7c1.1-0.1,3.8-2.5,3.9-3.1c1.9-0.2,4.4-2.3,2.1-3.7
		c1-0.8,6.9-5.2,7.6-4.3c0.9-0.8,0.9-1.1-0.1-2.8c1.6-1.3-0.4-6.6-1.9-7.3c3.9-7-12.7-6.8-14.3-7.4c-0.6,0.5,0.1,0.8,0,1.4
		c-1.5,1.3-3.5,1.8-5.7,2.3c-0.1,0.4-0.4,0.8-0.6,1.1c-2.6-0.9-4.5,4.7-6.9,3.5c-1.8-5.4,12.4-9.2,10.1-12.6c-1-1.3-3.8,1.4-4.4,1.4
		l0,0c0-0.4,0.1-0.9-0.3-1.3c-1.4-0.1-1.3,1.9-2.5,2c-2.5-2.5-1.6-1.8-5.6,0.2c-0.3-0.1-0.1-0.5-0.5-0.8c-2.4,3.3-6,7-6.9,11.1
		c-1-0.6-1-0.6,0.3-1.8c0.3-1.4,4.6-8,4.1-8.7c-1.5,0.5-2.5,1.3-2.6,3c-2-0.6-1.4,2.5-3.4,2.2l0,0c0.4-1.3,0.6-3.5,2.2-2.8
		c0.4-1.3,0.3-2.8,1.6-3.4c-0.3-1.1-0.5-2.2-0.5-3.4c-1.3-0.8-3.6-0.2-4.7,0.9c-2.6-3.2-16.6,23-14.7,31.5c1.8-1,3.6,1.3,4.4,2.9
		c1.8,0.9,3.9,0,5.3,1.3c2.1-0.8,4-0.5,5.9,0c0,6.3,1.2,3.7,4.5,4.5c0.5,0.5-0.2,6.3,2.2,2.3c-1.4-0.5-1.8-3.5-0.8-4.6
		c1,0,2.1-0.5,3.3,0.1c0.1,0.4,0,0.9,0.4,1.3c-0.2,0.4-5.6,6.7,2,1.9c0-0.8,0.6-1.3,1.1-1.8c3.9,0-3.9,4.9-4.1,4.9
		c-2.1,1.5-4.8-0.3-5.2,0.3c0.8,0.6,1.1,1.3,0.9,2.3c-2.1,0.3-3-3.1-4.1,1.7c1.8,2.3-0.8,3.2,4.4,2.5c0.9-1.6-2.3-1.7-2-3.8
		c0.8,1.1,2,0.8,3,0.9c0.3,0.5-0.4,0.6-0.3,1.1c1.1,0.2,3.7,4.7,3.7,0.4c0.4-0.1,0.9-0.2,1.3-0.3c-0.4,0.4-0.6,0.9-0.4,1.5
		c0.5,0.4,1.4,0.3,2,0.4c0.2,1.7-0.5,2.2-2.2,1.6c0.4-0.3,0.7-0.6,1.1-0.9c0-1.2-4.2,1-4.8,0.9c-0.3-0.3-3-2.4-2.2,0.2
		c-1.6,0.4-3.3,0.4-5,0.3c0.3-0.8,1-0.4,1.3-0.8c-0.4-1.1-1-1.4-2.3-1.1c-0.3,0.5,0.4,1,0.3,1.5c-0.8,0.3-4.5-3.7-4.5,0.2
		c0.4,0.1,0.7,0.1,1.1,0.1c0.3,0.3,0.3,0.5,0.1,0.6c0,0.1-0.1,0.3-0.3,0.5c-1.6-1.6-3.2-2.1-4.7-3.6c-1.3,0,0,3.2-1.9,3.2
		c-1.4,0,0.6-1.9,0.6-2c-3.5-3-4.5,0.1-6.1,1.4c-0.3-0.1-0.6-0.1-1.1-0.3c1.3-2.6-6.1-1.3-4.8-3.3c-0.5-0.6-4.5-3.8-5.1-3.8
		c-0.2-2.5-3.3-1.3-3.1-3.3c0,0-0.1-0.1-0.1-0.3c-1.4-1.1-1.8-2.9-2.8-4.3c-0.6,0-0.9,0.9-1.6,1c0.1-1.6,1.4-3.3,0.1-4.9
		c0.9-1.5,0.8-1.8-0.8-2c-1.2,1.2,1.5,3.8-0.7,4.3c-0.1-0.9-0.5-1.7-1.2-2.3c0.7-1.8-1-5.7-1-7.6c0-4.5,1.1-12.7,2.5-12.2
		c-0.9-1.6,7-19,16.5-25c0-2.1,3.1-2.1,3.9-3.4c-0.3-0.6-0.8-1-1.4-0.9c2.6-1.1,2.3,0.7,3.8-3.1c5.1,1,12.1-6.3,17.7-7.7
		c0.9,2.4-1.6,1.7-1.6,3.7c1.3,0.5,3-0.1,4,1.3c0.6-0.1,0.3-0.8,0.6-1c0.9,0,1.9-0.5,2.9,0.5c0.1-0.3-0.1-6.5,2.5-3.9
		c0.8,1.4-1.1-0.2,0.5,2c-0.4,0.6-1.1,0.5-1.5,0.9c-0.3,2.4,4.2,0.9,5.1,1.6c0.6-1.1,3.7,10.2,3.6,10.1c0.6-0.1,0.8-0.6,1-1
		c1,0.4,1.8,0.1,2.3-0.8c-0.4-0.9-1.1-1.2-2.1-0.9c0.4-0.9,1.1-1.1,2-1.6c0.1,1.4,0.4,2.8,1.9,3.3c0.8-0.3,0.6-1,0.8-1.5
		c0.6,0.1,0.3,0.8,0.8,0.9c0.8-0.4-0.2-3,0-3.5c1.1,1.3,2.3,2.3,3.3,3.6c3.2-2,3.4,1.5,4.7-2.4c0.6-0.1,1.3-0.3,1.8-0.8
		c1.4,0.8,3.5,1.4,2.3,3.4c1,1.5,2.5,2.4,4.4,2.9c0-0.9,0.5-1.6,0.4-2.5c-0.9-0.4-1.3,0.5-2,0.6
		C117.2,110.1,117.3,109.9,113.6,107.6L113.6,107.6z M69.6,122.9L69.6,122.9c0-0.6-0.9-3-1.7-1.3c0.6,1.1,0.3,2.3-1.1,2.6
		c-0.4,0.9-0.1,2-1,2.6c0.1-0.9-0.3-1.5-1.1-2c-0.5,0.7-0.9,1.4-1.3,2.2c-2.4-1.3-2.3,2.3-3.4,3.3c-0.4,2.1-0.7,0.7-1.2,2.3
		c0.5,0.8,1.4,1.5,1.3,2.6c-0.6-0.3-1-0.8-1.6-0.9c-1,1,1.1,2.2-0.9,2.9c0.3-0.5-2.8,5.3-0.6,5.7c1.2-0.3,1.7-1.1,1.7-2.3
		c2.2,0.6,3.7-5.4,4.7-6.9c-0.4-1.3,0.9-1.6,1.3-2.8c0.7,1.9,1.4,2.1,2.3,0.6c-0.5-0.5-1-0.8-1.6-1.1c1.6-1,3-2.6,4.4-3.5
		c-0.9-1.3,3.5-4.2,4.2-4.2c1.2-1.3,5.3-6.8,7.7-5.3c0.5-0.9,1.5-0.9,2-1.5c-0.9-4.3-9.7,4.1-10.7,4C72.1,121,71,122,69.6,122.9z
		 M39.3,153.4c0,0.3,0.9-3.2-0.6-2.5C37.9,152,38.1,152.8,39.3,153.4z M75.4,173.5c0.9,1,0.9,1,1.8,0
		C76.5,172.9,76,172.9,75.4,173.5z M69.3,129c0.6,0.8,0.6,0.8,1.8,0.1C70.5,128,70.5,128,69.3,129z M58.7,174.8
		c0.3,0.3,1.5,1,1.5,0.1C59.6,174.1,59.1,174,58.7,174.8z M57.3,145.4c0-1.4-1.9,0.5-0.5,0.5C56.9,145.8,57.2,145.8,57.3,145.4z
		 M69.6,130.6c-0.3-0.6-0.6-0.6-1.1-0.5c-0.3,0.6,0,0.9,0.9,0.8C69.5,130.7,69.5,130.6,69.6,130.6z M114.4,115.2
		c-0.8-0.5-0.8-0.5-1.1,0.3C113.6,115.6,114,115.6,114.4,115.2z M54.8,116.9c-0.8-0.5-0.8-0.5-1,0.1
		C54.2,117.2,54.4,117.2,54.8,116.9z M46.6,166.7c-0.3-0.5-0.5-0.6-0.6-0.1C46.3,166.9,46.4,166.9,46.6,166.7z M44.2,162.5
		c0-1.8-0.9,1.4-0.3,0.2C44.1,162.7,44.2,162.7,44.2,162.5z"/>
	<path class="st3" d="M87.2,173.3c0.9-0.6,5.6-1.7,6.6-0.8c0.9-0.1,0.9-1,1.3-1.5c0,0,2.5,0.6,2.6,0.6c0,0.8-6.5,2.5-3.5,4
		c-0.5,0.3-1,0.9-1.6,0.3c1.2-2-1.9-3.8-3.2-1.8C88.6,173.8,88,173.3,87.2,173.3L87.2,173.3z"/>
	<path class="st3" d="M138.2,153.8c2.1-2.1,3.4-10.9,3.7-13.8c0.6,0.3,0.9,0.6,1.4,1.1c-3.2,1.3-1.3,8.6-2.1,9
		C141,152.4,140,153.7,138.2,153.8z"/>
	<path class="st3" d="M122.3,160.7c0-1.4,7.2-7.6,7.8-6.9c-2.3,2.3-5.8,4.6-7.6,6.6C122.5,160.6,122.4,160.6,122.3,160.7
		L122.3,160.7z"/>
	<path class="st3" d="M127.9,162.9c0-1.3,0.8-2.3,1.1-3.4c2,0.1,6-6.4,6.4-4.9C132.5,156.7,131,160.5,127.9,162.9L127.9,162.9z"/>
	<path class="st3" d="M73.8,128.9c0.4,0.3,0.6,0.5,0.8,1c-2.6,2.6-3.4,6.2-4.9,9.6C67.9,138,73,129.7,73.8,128.9z"/>
	<path class="st3" d="M77.9,128c-2.3,2.1,0.1-2.2-2.5,1c-0.1-0.6-0.5-0.8-1.1-0.6c-2.6,3.5,5.5-7.7,4.5-4.8
		C78.8,125.3,78.6,126.5,77.9,128z"/>
	<path class="st3" d="M107.6,169.9c0.4-1.9,1.6-2.6,3.5-2.3c1.1-1.5,2.4-2.4,4.5-2.9c-1.9,0.6-2.4,1.6-1.5,2.8
		c-0.3,0.2-1.1-0.5-1.3-0.6C111.2,168,109.4,169,107.6,169.9z"/>
	<path class="st3" d="M77.5,132.8c0,0.8,0.1,1.6-0.4,2.4c-2.1-0.6-1.6,2.7-3.5,2.7C74,136.6,75.8,133.1,77.5,132.8z"/>
	<path class="st3" d="M88,129.9c0.5-1.1,1.1-1.4,2.1-0.6c0.4-0.3,0.4-0.8,0.6-1.1c0.4-0.1,0.8,0,1.1,0c0,0.1,0.1,0.3,0,0.4
		c-0.5,1.7-1.4,2.4-2.8,2C89.1,129.8,88.6,129.9,88,129.9L88,129.9z"/>
	<path class="st3" d="M101.3,101.3c-0.3,1.4,1.5,2,0.9,3.4c-1,0.1-1.9-0.3-2.3-1.4c0.8-0.5,0.4-1.1,0.3-1.8
		C100.5,101.3,100.8,101.4,101.3,101.3z"/>
	<path class="st3" d="M87.7,130.2c0.1,0.9,1,1.3,1.4,1.9c-0.4,0.7-2.4,0.8-3.3,1.7C85.3,132.5,86.7,130.9,87.7,130.2L87.7,130.2z"/>
	<path class="st3" d="M99.7,172.3c0.8-2.7,1.1-3.2,2.9-1.8c-0.3,0.5-0.6,1-0.6,1.5C101.2,172.5,100.4,171.5,99.7,172.3z"/>
	<path class="st3" d="M116.6,163.1c-0.6-0.3-1.3,0.4-2,0.3c0.5-1,3.9-3.3,5.2-3.4C118.9,161.2,117.8,162.2,116.6,163.1L116.6,163.1z
		"/>
	<path class="st3" d="M95.6,159.6c-0.5,1-0.8,2.3-2.3,2C91.8,159.7,94.5,159.4,95.6,159.6z"/>
	<path class="st3" d="M141.9,145c0.9,0.1,1.1,0.6,1.4,1c0,0.4-0.4,0.4-0.4,0.8c1.3,1,0.8,1.9-0.4,2.8
		C141.5,148.1,142.9,146.5,141.9,145z"/>
	<path class="st3" d="M124.4,163.9c0.6-0.8,0.8-1.7,0.8-2.7c0.5-0.4,0.9-0.9,1.6-1.1C126.4,161.3,126.7,164.3,124.4,163.9
		L124.4,163.9z"/>
	<path class="st3" d="M134.5,158.7c0.4-2.5,1.4-3.6,3-3.3C136.5,156.3,135.7,157.8,134.5,158.7z"/>
	<path class="st3" d="M117.4,165.4c1.4,0.1,1.9-0.9,2.8-1.4c0.9,0.9-0.3,1.3-0.5,1.9c0.8,0.6,0.3,1.1-0.1,1.8
		C119.5,167.6,117.6,165.5,117.4,165.4z"/>
	<path class="st3" d="M107,169.9c-0.8,0.3-1.4,0.5-1.9,1.1c-0.5-0.6-1.8,0-1.9-1.4c4.1,1.5,0.9,0.5,1.9-0.5
		C105.6,169,106.3,169,107,169.9z"/>
	<path class="st3" d="M93.1,170.6c-0.5,0-0.8-0.3-1.1-0.4c0.1-0.1,0.1-0.4,0.3-0.4c1.8-2.1,3-2.2,3.6-0.2
		C94.6,169.1,93.6,169.4,93.1,170.6z"/>
	<path class="st3" d="M90.2,170.5c-0.8,0.1-1.5,0.4-2.1-0.3c0.6-1.4,1.5-2,2.9-2C90.1,168.9,89.5,169.4,90.2,170.5z"/>
	<path class="st3" d="M69.4,100.8c2,0-0.5-2.9,2.4-2.7c-1.1,0.6-0.8,1.4-0.5,2.1C70.7,101.3,70.1,101.5,69.4,100.8L69.4,100.8z"/>
	<path class="st3" d="M78.7,162.9c-0.1-0.5,0.1-1,0.4-1.4c0.6,0.8,1.4,0.3,2.1,0C80.6,163,80.2,163.2,78.7,162.9z"/>
	<path class="st3" d="M98.5,105.2c0.1,0.6,0,1-0.1,1.5c-1,0-1.5-0.9-2.4-1.5C97,105,97.8,105,98.5,105.2z"/>
	<path class="st3" d="M141.1,137.1c0.3-1.3-0.1-2.4-0.8-3.4C142.7,135.3,142.9,136.4,141.1,137.1z"/>
	<path class="st3" d="M84.7,101.1c-0.5,0.2-3.5-0.4-3.7-0.9C82.2,99.5,83.6,99.9,84.7,101.1z"/>
	<path class="st3" d="M93.8,102c-1.2-1-1.1-2.1,0.3-3.1C94.4,100,94.1,101,93.8,102z"/>
	<path class="st3" d="M90.1,95.9c1.9-0.4,2.5,0.2,1.9,1.9C91.5,97.7,90.4,96,90.1,95.9z"/>
	<path class="st3" d="M100.5,106.7c-2,0,0-1.1,0.5-1.4C102.2,105.8,102.1,106.3,100.5,106.7z"/>
	<path class="st3" d="M82.3,160c-1.2,0.7-1.5,1.7-1.9-0.5C81.3,159.2,81.8,159.3,82.3,160z"/>
	<path class="st3" d="M87,97.8c-0.5-0.3-0.5-0.8-0.6-1c-0.4,0-1,0.4-1.1-0.5c0.9-0.4,1.6,0.1,2.5,0.1C87.6,97.1,87.2,97.4,87,97.8z"
		/>
	<path class="st3" d="M96.8,103.3c-0.1,0.7-1.8,1.8-1.8,0.7C95.4,103.3,96,103,96.8,103.3z"/>
	<path class="st3" d="M125,155.4c0.1,1.1-0.8,1.4-1.6,1.6C123.8,156.2,124.3,155.7,125,155.4z"/>
	<path class="st3" d="M95.3,127.2c0.1,0.8-0.4,1.4-0.3,2.1C94,128.5,94,128.3,95.3,127.2L95.3,127.2z"/>
	<path class="st3" d="M107.8,107.6c0.8-0.4,1.3-0.1,1.9,0.5C108.1,108.6,108.1,108.6,107.8,107.6z"/>
	<path class="st3" d="M107.6,166.2c-0.5,0.5-0.3,1-0.6,1.4c-0.5,0.1-0.8-0.1-1.1-0.4C106.2,166.6,106.7,166.5,107.6,166.2z"/>
	<path class="st3" d="M89.7,101.7c0.4-1,1-0.5,1.9-0.5C91,102,90.4,101.8,89.7,101.7z"/>
	<path class="st3" d="M128.6,118.2c0.8-1.5,0.8-1.5,1.5-0.6C129.7,117.9,129.2,118.1,128.6,118.2z"/>
	<path class="st3" d="M108,171.4c-0.3,0.6-0.6,1.1-1.3,0.8C107.1,170.9,107.1,170.9,108,171.4z"/>
	<path class="st3" d="M87,169.3c-0.3,0.9-0.8,1.1-1.5,0.9C85.8,169.5,85.8,169.5,87,169.3z"/>
	<path class="st3" d="M90.2,176.7c0.3-0.5,0.6-0.9,1.1-1.1C91.5,176.6,91.4,176.8,90.2,176.7z"/>
	<path class="st3" d="M83.6,98.5c0.5-0.1,1.1-0.9,1.6,0.1C84.7,99,84.2,98.9,83.6,98.5z"/>
	<path class="st3" d="M107.8,110.3c-0.9,0.3-1.1-0.4-1.8-0.6C107,109.2,107.3,109.6,107.8,110.3z"/>
	<path class="st3" d="M112.9,164.1c-0.3,0.5-0.5,0.8-1,0.9C111.6,163.6,111.9,163.3,112.9,164.1z"/>
	<path class="st3" d="M120,110.7c0.8,0.3,1.6,0.3,1.1,1.5c-0.6-0.3-0.9-0.9-1.3-1.3C119.9,110.7,119.9,110.7,120,110.7z"/>
	<path class="st3" d="M74.2,98.4c0.5-0.1,0.9-0.5,1.4-0.3C75.4,99.3,74.9,99.4,74.2,98.4z"/>
	<path class="st3" d="M86.8,171.6c-0.5,0.1-1-0.4-1.6-0.1C86.1,170.6,86.3,170.8,86.8,171.6z"/>
	<path class="st3" d="M77.4,97.4c0.4-0.9,1-1.1,1.8-0.9C78.6,96.8,78.3,97.5,77.4,97.4z"/>
	<path class="st3" d="M140.3,133.4c-0.6-1.1-0.5-1.6,0.4-1.8C140.4,132.2,140,132.8,140.3,133.4z"/>
	<path class="st3" d="M127.6,115c0.4-0.3,0.8-0.3,1.1,0c0.1,0.5-0.1,0.6-0.5,0.8C127.7,115.6,127.4,115.3,127.6,115z"/>
	<path class="st3" d="M98.8,174.7c-0.6,0.6-1.4,0.5-2.1,0.5C97.4,175,98.1,174.8,98.8,174.7z"/>
	<path class="st3" d="M124.4,163.9c0.1,0.8,0,1.3-1,1C123.7,164.5,124.1,164.2,124.4,163.9z"/>
	<path class="st3" d="M112.4,170.1c0.3-0.4,0.6-0.5,1-0.5C113.6,170.3,113.3,170.5,112.4,170.1z"/>
	<path class="st3" d="M104.8,171.8c0.4,0.5,0.8,1-0.3,1.3C104.4,172.5,104.3,172.2,104.8,171.8z"/>
	<path class="st3" d="M65.2,103.4c0.8-0.4,1-0.3,1.3,0.4C66,104.2,65.7,103.7,65.2,103.4z"/>
	<path class="st3" d="M76.3,96.2c0.1,0.4,0.3,0.8,0.4,1.5c-0.8-0.5-0.6-1-0.8-1.4C76,96.2,76.2,96.2,76.3,96.2z"/>
	<path class="st3" d="M80.8,137.1c-0.1-0.6,0.1-0.8,0.6-0.6C81.6,137,81.3,137.1,80.8,137.1z"/>
	<path class="st3" d="M83.5,94.2c-0.4,0.4-0.6,0.4-1,0.1C82.7,93.9,82.9,94,83.5,94.2z"/>
	<path class="st3" d="M104.2,106.7c-0.5-0.4-0.3-0.8-0.3-1.1C104.6,105.9,104.6,106.3,104.2,106.7z"/>
	<path class="st3" d="M105.2,107.8c0.4-0.4,0.8-0.4,1-0.1C105.9,108.1,105.7,108.2,105.2,107.8z"/>
	<path class="st3" d="M116.6,163.1c0.6,0.6,0.6,0.6,0.1,1C116.5,163.7,116.8,163.4,116.6,163.1L116.6,163.1z"/>
	<path class="st3" d="M87.1,163.7c0.4,0.5,0.5,0.8-0.3,0.9C86.6,164.2,87,164.1,87.1,163.7z"/>
	<path class="st3" d="M103.3,173.2c-0.4,0.5-0.6,0.5-1,0.4C102.6,172.9,102.9,173.2,103.3,173.2z"/>
	<path class="st3" d="M88.2,95.5c-0.6,0,0.2-1.3,0.2-0.3C88.6,95.4,88.5,95.5,88.2,95.5z"/>
	<path class="st3" d="M113.4,107.2c-0.5-0.1-0.8-0.3-0.4-0.8C113.1,106.6,113.3,106.9,113.4,107.2z"/>
	<path class="st3" d="M110.6,170.8c-0.4,0.3-0.8,0.3-1.1,0.1C109.8,170.5,110.2,170.6,110.6,170.8z"/>
	<path class="st3" d="M141.5,153.3c-0.1-0.6,0-0.7,0.4-0.5C141.9,152.9,141.9,153.2,141.5,153.3z"/>
	<path class="st3" d="M106.4,162.1c-0.1,0.4-0.5,0.5-0.9,0.5l-0.1-0.1C105.7,161.9,106.1,161.8,106.4,162.1z"/>
	<path class="st3" d="M83.2,170.9c0-0.1,0.1-0.3,0.3-0.1c0.4,0.2,0.4,0.4,0,0.6C83.3,171.1,83.2,171,83.2,170.9z"/>
	<path class="st3" d="M94.8,130.3c-0.1,0-0.3-0.1-0.1-0.3C94.7,129.6,95.7,130.3,94.8,130.3z"/>
	<path class="st3" d="M136.4,124.5c0,0.9-1.2-0.3-0.3-0.3C136.2,124.3,136.4,124.4,136.4,124.5z"/>
	<path class="st3" d="M77.9,178.8c-0.3,0.2-0.4,0.1-0.4-0.3c0.1,0,0.1-0.1,0.3-0.1C77.9,178.6,78,178.6,77.9,178.8z"/>
	<path class="st3" d="M123,165.4c-0.3,0.2-0.4,0.1-0.4-0.2c0-0.1,0.1-0.3,0.3-0.3C123,165.1,123.2,165.1,123,165.4z"/>
	<path class="st3" d="M122,161c-0.1,0.4-0.4,0.4-0.6,0.1C121.6,161,121.8,161,122,161z"/>
	<path class="st3" d="M107.5,105.7L107.5,105.7c0.2,0,0.2,0,0.4,0.2l-0.1,0.1C107.6,105.8,107.5,105.8,107.5,105.7z"/>
	<path class="st3" d="M119.5,110.4c-0.1,0-0.3,0-0.4-0.1C119.4,110.1,119.5,110.2,119.5,110.4L119.5,110.4z"/>
	<path class="st3" d="M104.7,158.7c0.5-0.2,0.5-0.1,0.1,0.3C104.8,158.8,104.7,158.7,104.7,158.7z"/>
	<path class="st3" d="M98.8,174.7c0-0.1,0.1-0.3,0.3-0.3l0.1,0.1C99,174.7,98.9,174.7,98.8,174.7L98.8,174.7z"/>
	<path class="st3" d="M122.3,160.6c0,0.1-0.1,0.3-0.3,0.3l0,0C122,160.7,122.2,160.7,122.3,160.6L122.3,160.6z"/>
	<path class="st3" d="M69.4,100.8L69.4,100.8C69.3,100.6,69.4,100.6,69.4,100.8C69.4,100.6,69.4,100.8,69.4,100.8L69.4,100.8z"/>
	<path class="st3" d="M113.4,107.2c0.1,0.1,0.1,0.1,0.3,0.3C113.6,107.4,113.5,107.3,113.4,107.2L113.4,107.2z"/>
	<path class="st3" d="M119.6,110.4c0.1,0,0.3,0,0.4,0.1C119.9,110.6,119.8,110.6,119.6,110.4L119.6,110.4z"/>
	<path class="st3" d="M88,129.9c0,0.1-0.1,0.3-0.3,0.3l0,0C87.8,130.1,87.9,130,88,129.9z"/>
	<path class="st3" d="M104.8,158.8c-0.1,0.1-0.1,0.1-0.3,0.3c-0.1-0.1-0.1-0.1-0.3-0.3c0.1-0.1,0.1-0.1,0.3-0.3
		C104.7,158.7,104.8,158.8,104.8,158.8z"/>
	<path class="st3" d="M127.9,162.9L127.9,162.9c-0.1,0.1-0.1,0.1-0.1,0.1C127.8,162.9,127.9,162.9,127.9,162.9z"/>
	<path class="st3" d="M136.4,152.2c0.1,0,0.3,0.1,0.1,0.3C136.4,152.5,136.4,152.4,136.4,152.2C136.4,152.3,136.4,152.3,136.4,152.2
		z"/>
	<path class="st3" d="M69.6,122.9c0,0.1-0.1,0.3-0.1,0.4l-0.1-0.1C69.5,123.1,69.5,123,69.6,122.9z"/>
</g>
</svg>
