<?xml version="1.0" encoding="utf-8"?>
<!-- Generator: Adobe Illustrator 23.0.1, SVG Export Plug-In . SVG Version: 6.00 Build 0)  -->
<svg version="1.1" id="Layer_1" xmlns="http://www.w3.org/2000/svg" xmlns:xlink="http://www.w3.org/1999/xlink" x="0px" y="0px"
	 viewBox="0 0 256 256" style="enable-background:new 0 0 256 256;" xml:space="preserve">
<style type="text/css">
	.st0{fill:#282508;}
	.st1{fill:#A01D1D;}
	.st2{fill:#FFFFFF;}
	.st3{fill:#D0D441;}
	.st4{fill:#B82205;}
</style>
<path class="st0" d="M252.8,117.1c-2.4-5.5-7.1-6.5-5.6-13.5c1.6-7.5,3.2-9.6-2.4-15.8c-4.1-4.6-3.9-6.5-3.8-12.5
	c0.1-6.2-2.7-7.4-7.4-10.6c-5.1-3.4-4.4-5.7-5.6-11.2c-1.5-7-5.9-6-11.2-8.6c-5.2-2.6-4.6-7.2-7.1-11.6c-3.8-6.7-8.3-3.1-14.1-5.8
	c-5.1-2.4-4.1-9.7-9.4-11.8c-5.2-2-10.6,1.7-15.9-1.7C166,11,165,6.5,159,6.8c-3,0.2-5.6,2.2-8.7,2.2c-4.1,0-5.3-2.6-8.4-4.5
	c-5.6-3.5-7.3-1.1-12.6,1.6c-6.8,3.5-8.9-2.8-15.2-3.2c-4.4-0.2-6.4,3.4-9.8,5.4C98.5,11.7,95.7,7.1,90,8c-5.9,0.9-8.2,8.4-15,9.2
	c-5.2,0.6-7.7-1.3-11.2,3.4c-2.1,2.8-2.7,6.1-6.1,7.8c-3.1,1.6-6.5,0.7-9.7,1.8c-7.3,2.6-3.7,11.4-9.7,15.2
	c-4.2,1.6-9.7,2.2-11.8,6.6c-2.3,4.6,0.4,9.8-4.1,13.8c-4.2,3.7-8.8,2.1-9.3,9.2c-0.3,3.3,1.7,6.7,0.7,10c-0.9,2.8-3.7,4.4-5.4,6.7
	c-4,7.2,3.7,12.8-1.3,20c-1.6,2.2-3.8,3.8-4.3,6.7C2,123,6,125.1,7.1,129.2c2,7.5-7.1,11.9-1.7,19.4c2,2.7,4.5,3.8,4.5,7.6
	c0,3.3-2.6,5.5-2.1,9.1c0.7,4.2,4.1,4.3,5.8,7.4c2.1,3.7-0.6,6.9-0.1,10.6c0.7,5.2,4.4,4.9,7.8,7.6c4,3.2,3.6,5.5,4.5,10.1
	c1.7,8.7,7.8,6,13.3,10.7c2.8,2.5,2.7,5.4,3.9,8.7c1.9,5.2,3.8,5,9,5.5c3.5,0.3,5.9,0.6,8.2,3.5c2.7,3.3,2.3,8,7,9.4
	c3.9,1.2,7.8-1.7,11.8,0.2c3.6,1.8,4.7,6.6,8.4,8.4c4.1,2,7.2-1.1,11.1-1.5c5.5-0.5,5.8,1.9,9.7,4.8c7.9,5.8,10.4-2.8,18.2-1.9
	c3.6,0.4,5.5,4,8.8,4.8c4.5,1,6.5-1.7,9.7-4.2c7.2-5.6,13.3,3.2,20.2-1.9c2.2-1.6,3.4-4.3,5.6-5.9c4.2-2.8,7.7-0.9,12.4-1.3
	c4.9-0.4,4.8-2.4,7.8-5.7c4.4-4.9,8.2-2.3,13.5-4.6c4.2-1.8,4-5.7,5.3-9.5c1.5-4.3,3.7-7.3,8-9.1c4.6-2,8.5-1.1,10.4-6.7
	c1.4-4-0.2-7.8,3.1-11.2c3.2-3.2,8.5-2.7,10.1-7.7c1.3-4-2.2-7.7,0.4-11.5c2.3-3.5,6.3-3.2,6.8-8.1c0.5-4.1-3-8.4-2-12.7
	c1.6-3.8,6.3-5,6.3-9.8c-0.1-4.1-4.1-6.8-4.2-10.9C248.5,127,255.3,123.1,252.8,117.1z"/>
<path class="st1" d="M127.7,23.6c-57.9,0-104.9,47-104.9,104.9s47,104.9,104.9,104.9s104.9-47,104.9-104.9S185.6,23.6,127.7,23.6z
	 M127.7,227.6c-54.7,0-99-44.4-99-99s44.4-99,99-99s99,44.4,99,99S182.4,227.6,127.7,227.6z"/>
<g>
	<path class="st2" d="M154.5,48.4c0.3,2.7-0.3,8.2-0.3,8.2l2.8,0.9l7.7-12.3l-2.8-0.9l-4.8,7.4l0.8-8.7l-2.5-0.9l-4.9,7.6l1-8.8
		l-3.1-0.9l-1.1,14.5l2.8,0.8C150.1,55.3,152.9,50.6,154.5,48.4z"/>
	<path class="st2" d="M77.4,57c-7.9-5.8-14.3,4.6-5.4,10.6c2.8,2.2,6.7,2.7,8.7-0.9C82.7,63,79.8,59.7,77.4,57z M78.2,65.7
		c-2.1,3.2-8-3.4-7-5.8C73.1,55.2,79.9,63.6,78.2,65.7z"/>
	<path class="st2" d="M127.1,45.1c2.1-1.2,2.2-4.5,0.6-6.2c-2.2-2.4-9.1-0.9-9.1-0.9l0.6,14.2l3-0.1c0,0,0-3.8,0-5.7
		c5.1,0,1.3,3.4,4.7,5.5c0.9,0,2.7,0,2.7,0s0.2-0.2,0.4-0.3C128.2,49.8,130.1,46,127.1,45.1z"/>
	<path class="st2" d="M172.6,59.6c0.8,1.1,0.6,2-0.6,2.6c-2,0.2-3-1.7-2.3-3.6c-0.8-0.5-1.6-1-2.4-1.4c-4.6,6.2,7.7,11.1,8.5,4.3
		c0.3-2.3-4.1-5.1-3.2-7.1c1.9-3.3,4.7,1,3,2.3c0.7,0.5,1.5,0.9,2.3,1.3c3.2-3.7-2-8.9-6-7.1C167.8,52.8,170.5,56.7,172.6,59.6z"/>
	<path class="st2" d="M111.9,50.5c-0.3-1-0.5-3.1-0.5-3.1l3.8-0.9l-0.4-2l-3.9,0.5l-0.4-2.9l5.4-1l-0.5-2.6l-8.8,1.5l2.5,13.9
		l8.7-1.5l-0.4-2.8C117.4,49.6,113.7,50.2,111.9,50.5z"/>
	<path class="st2" d="M104.1,55.4c0-5,0-15,0-15l-2.9,1l0.1,9.3l-5.2-7.8L93,44l8.4,12.1C101.4,56.1,103.2,55.7,104.1,55.4z"/>
	<path class="st2" d="M182.7,55.7c-0.5,0.7-1.8,2-1.8,2l2.6,2.4l-7,8.8l2.5,1.9l7-8.8l2.9,2l1.6-2.1
		C190.5,61.9,185.3,57.7,182.7,55.7z"/>
	<path class="st2" d="M142.3,42c1.1,0.1,3.4,0.4,3.4,0.4l0.3-2.8l-9.9-1.4l-0.3,2.6l3.4,0.8l-1.6,11.2l3.1,0.3
		C140.7,53.1,141.8,45.7,142.3,42z"/>
	<path class="st2" d="M92.5,59.8c-0.4-0.8-1.5-2.4-1.5-2.4l-4.9,2.8l-5.5-9.9l-2.8,1.5l6.9,12.4C84.7,64.2,89.9,61.2,92.5,59.8z"/>
	<path class="st2" d="M163.6,60.7c2.1-4.3,6.2-12.8,6.2-12.8l-2.9-1.3l-6.2,12.7C160.7,59.3,162.6,60.2,163.6,60.7z"/>
	<path class="st2" d="M96.4,58c-1.9-4.3-5.7-12.8-5.7-12.8l-2.9,1.4l5.7,12.8C93.5,59.4,95.5,58.6,96.4,58z"/>
</g>
<g>
	<path class="st2" d="M93.3,207.8c0.4-0.7,0.9-2.1,0.9-2.1l-4-2l1.4-2.8l5.9,2.6l1.1-2.6l-9.3-4.3L83,210.4l9.2,4.1l1.4-2.8
		l-5.9-2.8l1.5-3.1C89.2,205.8,91.9,207.2,93.3,207.8z"/>
	<path class="st2" d="M151.2,207.1c-1.4-5.4-9.8-3.7-10.5,1.2c-0.7,4.9,4.9,7.4,8.1,3.5c1,2.9-2.8,7.7-3.9,3.3
		c-1,0.2-1.9,0.4-2.9,0.6c0.2,4,5.5,4.9,8.2,2.9C153.7,215.9,152.3,210.6,151.2,207.1z"/>
	<path class="st2" d="M100.3,206c-6,1.1-0.6,6.7,1,7.7c0.5,3.3-4.7,0.4-3.3-1.1c-0.7-0.3-1.5-0.5-2.3-0.6c-1.2,3.6,4.4,6.9,7.1,4.4
		c4.4-3.9-4.3-5.2-2.7-7.9c1.8-1.1,2.6,0.4,2.9,1.8c0.7,0.3,1.4,0.5,2.1,0.6C106.9,208,102.5,205.8,100.3,206z"/>
	<path class="st2" d="M173.6,200.9c5.2-10.7-15.9-6.2-8,1.5c0.7,0.7,1.7-0.9,2.4-1.5c-0.8-1.9-0.4-2.8,1.6-3.4
		c3.2,1.1,1.2,3.2-0.4,4.6c0.3,0.7,0.7,1.3,1.1,1.9c0.9-0.6,1.8-0.9,2.9-0.8c2.6,2.6-0.5,5.8-2.8,2.6c-0.8,0.5-2.9,0.5-2.5,1.4
		C172.2,217,184.1,201.4,173.6,200.9z"/>
	<path class="st2" d="M134.2,205.9l1.5,14.9l3.4-0.4l-1.4-14.8L134.2,205.9z"/>
	<path class="st2" d="M113.6,209.5c-0.6-0.2-1.8-0.6-1.8-0.6l0.5-2.4h-2.8l-0.6,1.8h-1.6l-0.4,2c0,0,1.5,0,1.4,0.5
		c-1.4,5.3-1,8.4-1,8.4s2,0.6,3.1,0.6c-0.8-2.8,0.5-5.4,0.9-8.2c0.7,0,2.1-0.1,2.1-0.1S113.6,210.1,113.6,209.5z"/>
	<path class="st2" d="M163.6,203.3c-2.3-5.7-11.2-3.2-10.5,2.7c0.2,1.6,1.6,4.1,3.3,4.5c2.4,0.5,3.5-2.8,5.4-2.4
		c2.2,5.9-0.6,4.2-3.6,3.6c-0.8,0.3-1.7,0.6-2.5,0.9c0.9,4.2,6.4,4,8.7,1.3C167.2,210.7,165,206.6,163.6,203.3z"/>
</g>
<path class="st3" d="M148.3,158.5c5.2-1.3,20.4-50.9,15.4-53.7c-2.2,6.7-15.6,1.4-19.1,5.8c1.4,0.8,2.8,1.3,4.4,1.3
	c-32.2,2.5-15.4-18.8-8.4-20.9c2.1-5.5,12.8,1.4,6.6-2.7c10.6-8.4,84.6-9.5,82.2-1.2c-2.5,0.3-5,0.4-7.5,0.2c2,1.4,4.1,2.5,6.4,3.3
	c-1.9,0.9-3.7,1.7-5.6,2.6c0.9,0.4,1.1,1.1,1.6,1.8c-10.4,0-6.5,4.9-8.5,3.1c-4.8-3.2-5.8-3.2-2.9,0.1c-0.6,0.1-9.7-1-6.8,1.9
	c-2.3,0.4-17.4-5.8-18.4-0.8c4.5,0.7,9,1,13.5,0.9c-5.2,0.3-10.4,0.5-15.6,0.8c5.9,11.1-9.6,63.4-22,71.6c-2.3-5.9,2.1-7.2,1.7-13.2
	c-1.3,2.8-1.7,1.7-1.4-3.3c-0.8-0.8-5.4,17.7-0.4,16.8c-6.4,8.1,0.2-2.2-3.6-5.9c-0.5-0.5-0.5,6.7-3.2,9.9c1-9-0.3-3.6-2.1,1
	c0.2-1.6-0.3-2.9-1.5-3.9c-1.2,2-1.9,4.3-3.7,5.9c0.9-1.6,1.4-2,0.1-3c-1.3,0.6-1.7,0.6-3.5-3.9c-7.4,12.3-0.1-12-4.6,1.3
	c-0.1-5.3,1.7-5,3.5-10.2c-0.3,1,0.5,2.3-0.2,3C150.6,161.4,146.3,159.7,148.3,158.5z"/>
<path class="st4" d="M124.7,116.6c-2.6,0-3.2-9,6.6,2.9c4.2,5.1,10.5,13.9,10.5,20.6c-1.7-1.7-3.7,3.8-5.4,6
	c2.1-4.9,2.6-7.3-1.6-10.2c-1.7,0.3,0.1,15,1.4,16.7c-1.3,0.7-2.6,1.4-3.9,2.1c2.3-2.7,2.4-5.4,0.2-8.2l-0.8,6.2
	c-3.8-9.5-26.1,24.3-34.6,15.8c5.2-1.3,10-3.5,14.4-6.6c-4.9-3.6-12,4.7-19.3,4.7c4.2-2.8,1-0.3,1-3.6c3.4,6.2,26-15.7,26.4-17.6
	c4.6-27.9-22.5-3-29.6-6.5c-0.1-0.2,15.4-19.7,5.7-11.2c-9,2-12-5.7-15.8,11.2c2-9.4-0.2-5.1-1.6-5.3c0.7-2.3,5.5-7.1,2.2-10.2
	c-0.8-0.8-39,43.6,4,44c-2.8-3.6-2-5.1,2.5-4.5c-0.3-1.1-2.7,17,3.5,1.4c-0.2,0-12.7,6.3-12,10.6c-0.1-0.5,6.3,2.4,9.6-0.6
	c-7,6.3-13.1,2.3-15.8,5c-3.1-4.9-5.8-5.1-6.6-0.4c0.6-3.7-3.9-1.1-6.6-0.9c4.2-2.8-15.8-7-7.7-7.4c-4.1-0.6-5.3-6.1-9.8-6.6
	c-2.3-0.2,4.6-13.1-1.4-2.6c-0.2-1.6-4-23.7,0.3-22.2C33.2,129.1,71.3,95.9,81,99.2c-0.8,11.4,7.6-0.2,8.4,0.6
	c0.1,0.2,5.9,13.3,7.7,14.6c1-0.2,5.5-4.1,1.2-2.7c1.5-6.1,5.9,5.6,5.5-2.4c2.1,2.5,7.8,4.7,12.4,6
	C108.7,94.8,119.9,120.7,124.7,116.6z M69.6,122.9c-0.4-5.2-3.6,3.7-3.8,3.9c0-0.2-12.2,15.4-8.8,16.1c9.1-2.1,4.6-9,26.7-27
	C83,112.4,70.1,122.6,69.6,122.9z"/>
</svg>
