<?xml version="1.0" encoding="utf-8"?>
<!-- Generator: Adobe Illustrator 23.0.1, SVG Export Plug-In . SVG Version: 6.00 Build 0)  -->
<svg version="1.1" id="Layer_1" xmlns="http://www.w3.org/2000/svg" xmlns:xlink="http://www.w3.org/1999/xlink" x="0px" y="0px"
	 viewBox="0 0 256 256" style="enable-background:new 0 0 256 256;" xml:space="preserve">
<style type="text/css">
	.st0{fill:#49204A;}
	.st1{fill:#612356;}
	.st2{fill:#661642;}
	.st3{fill:#801D4A;}
	.st4{opacity:0.24;}
	.st5{fill:#66AA97;}
	.st6{fill:#F7EC35;}
</style>
<g>
	<path class="st0" d="M113,103.7l23.9-7.8l-23.8-75.5l15.7-17.1c-0.3,0-0.6,0-0.8,0C59.2,3.3,3.3,59.2,3.3,128
		c0,57.8,39.3,106.3,92.6,120.5l-11.5-10.4L113,103.7z"/>
	<path class="st1" d="M228.2,202.2l-79.4-53.4l2.9-42l-12.1-2.7l-2.6-8.2l-23.9,7.8L84.4,238.1l11.5,10.4c10.2,2.7,21,4.2,32.1,4.2
		C169.1,252.7,205.5,232.8,228.2,202.2z"/>
	<path class="st2" d="M137,95.9l2.6,8.2l12.1,2.7l5-73.4l30.7-15c-17.4-9.4-37.3-14.8-58.5-15l-15.7,17.1L137,95.9z"/>
	<path class="st3" d="M151.6,106.8l-2.9,42l79.4,53.4c15.4-20.7,24.5-46.4,24.5-74.2c0-47.4-26.4-88.6-65.3-109.7l-30.7,15
		L151.6,106.8z"/>
</g>
<g class="st4">
	<path class="st5" d="M62.6,93.2c0,1.7-0.3,3.2-0.9,4.6c-0.6,1.4-1.4,2.5-2.4,3.5c-1,1-2.2,1.7-3.6,2.3c-1.4,0.5-2.8,0.8-4.4,0.8
		h-7.1c-1.5,0-2.9-0.3-4.3-0.9c-1.4-0.6-2.6-1.4-3.6-2.4c-1-1-3.3-12.2-3.3-12.2H43v4.5l9.5,0.8l0.3-7.5c0,0,1.8-4.1-19.7-14.6
		c1.1-16.5,8.6-23.4,22.5-21.6c1.3,0.6,2.5,1.3,3.5,2.3c1.1,1,2,2.3,2.6,3.8c0.6,1.5,0.9,3,0.9,4.4v4.5h-9.9V61c0-0.3-0.1-0.7-0.4-1
		c-0.2-0.3-0.6-0.5-0.9-0.5h-7.1c-0.4,0-0.7,0.2-1,0.6c-0.3,0.4-0.4,0.7-0.4,1v6l19.7,14.6V93.2z"/>
	<path class="st5" d="M75.2,59.6h-9.6v-9.9h29.2v9.9h-9.7v44.8h-9.9V59.6z"/>
	<path class="st5" d="M117.3,104.4l-6.1-16.6h-3v16.6h-9.9V49.6h17.4c1.5,0,3,0.3,4.5,0.9c1.4,0.6,2.7,1.5,3.8,2.6
		c1.1,1.1,2,2.3,2.6,3.8c0.6,1.4,1,3,1,4.6v14.3c0,2.2-0.6,4.2-1.7,6c-1.2,1.8-2.7,3.3-4.5,4.4l6.7,18.1H117.3z M108.1,59.6v18.2
		h7.4V59.6H108.1z"/>
	<path class="st5" d="M141.9,104.4H132V49.6h9.9V104.4z"/>
	<path class="st5" d="M156.4,104.4h-9.9V49.6h9.9v25.1l11.8-25.1h11.4L166.8,77l12.8,27.4h-11.4L161,89.1l-4.6,9.8V104.4z"/>
	<path class="st5" d="M183.7,49.6h29.2v9.9h-19.3v10.8h15.6v9.9h-15.6v14.1h19.3v9.9h-29.2V49.6z"/>
	<path class="st5" d="M33.2,138.4c0,0,13.8-4,21.8-1.4c1.5,0.5,2.7,1.5,3.8,2.6c1.1,1.1,2,2.3,2.6,3.8s1,3,1,4.6v42.8h-9.9v-13h-9.4
		v13h-9.9V138.4z M43.2,167.9h7.3l0.1-21.9h-5.5c-0.5,0-1,0.2-1.4,0.6c-0.4,0.4-0.6,0.8-0.6,1.4V167.9z"/>
	<path class="st5" d="M85.9,136h9.9v44.8h19.3v9.9H85.9V136z"/>
	<path class="st5" d="M127.7,190.8h-9.9V136h9.9V190.8z"/>
	<path class="st5" d="M161.8,190.8h-9.9v-0.1c-0.2,0-0.5,0.1-0.6,0.1h-7.7c-1.6,0-3.1-0.3-4.4-0.8c-1.4-0.5-2.6-1.3-3.6-2.3
		c-1-1-2.5-48-2.5-48s20.3-3.4,21.7-2.8c1.3,0.6,2.5,1.3,3.5,2.3c1.1,1,2,2.3,2.6,3.8c0.6,1.5,0.9,3,0.9,4.4v4.5h-9.9v-4.5
		c0-0.3-0.1-0.7-0.4-1c-0.2-0.3-0.6-0.5-0.9-0.5h-7.1c-0.4,0-0.7,0.2-1,0.6c-0.3,0.4-0.4,0.7-0.4,1v32l6.5,0l0.2-6.9h-3.3v-9.9h16.3
		V190.8z"/>
	<path class="st5" d="M176,166.7v24h-9.9V136h9.9v20.7h9.4V136h9.9v54.7h-9.9v-24H176z"/>
	<path class="st5" d="M208.3,146h-9.6V136H228v9.9h-9.7v44.8h-9.9V146z"/>
</g>
<g>
	<path class="st6" d="M58.7,90.8c0,1.7-0.3,3.2-0.9,4.6c-0.6,1.4-1.4,2.5-2.4,3.5c-1,1-2.2,1.7-3.6,2.3c-1.4,0.5-2.8,0.8-4.4,0.8
		h-7.1c-1.5,0-2.9-0.3-4.3-0.9c-1.4-0.6-2.6-1.4-3.6-2.4c-1-1-1.8-2.2-2.4-3.5c-0.6-1.3-0.9-2.7-0.9-4.2v-4.5h9.9V91
		c0.1,0.2,0.3,0.5,0.5,0.7c0.3,0.2,0.5,0.4,0.8,0.4h7.1c0.6,0,0.9-0.1,1.1-0.3c0.2-0.2,0.3-0.5,0.3-1v-6.5L29.1,69.7V58.8
		c0-1.4,0.3-2.9,0.9-4.2c0.6-1.4,1.4-2.6,2.4-3.7c1-1.1,2.2-1.9,3.6-2.6c1.4-0.6,2.8-1,4.4-1h7.1c1.4,0,2.8,0.3,4.2,0.9
		c1.3,0.6,2.5,1.3,3.5,2.3c1.1,1,2,2.3,2.6,3.8c0.6,1.5,0.9,3,0.9,4.4v4.5h-9.9v-4.5c0-0.3-0.1-0.7-0.4-1c-0.2-0.3-0.6-0.5-0.9-0.5
		h-7.1c-0.4,0-0.7,0.2-1,0.6c-0.3,0.4-0.4,0.7-0.4,1v6l19.7,14.6V90.8z"/>
	<path class="st6" d="M71.3,57.2h-9.6v-9.9H91v9.9h-9.7V102h-9.9V57.2z"/>
	<path class="st6" d="M113.4,102l-6.1-16.6h-3V102h-9.9V47.3h17.4c1.5,0,3,0.3,4.5,0.9c1.4,0.6,2.7,1.5,3.8,2.6
		c1.1,1.1,2,2.3,2.6,3.8c0.6,1.4,1,3,1,4.6v14.3c0,2.2-0.6,4.2-1.7,6c-1.2,1.8-2.7,3.3-4.5,4.4L124,102H113.4z M104.2,57.2v18.2h7.4
		c0.5,0,1-0.2,1.4-0.6c0.4-0.4,0.6-0.8,0.6-1.4V59.2c0-0.5-0.2-1-0.6-1.4c-0.4-0.4-0.8-0.6-1.4-0.6H104.2z"/>
	<path class="st6" d="M138,102h-9.9V47.3h9.9V102z"/>
	<path class="st6" d="M152.5,102h-9.9V47.3h9.9v25.1l11.8-25.1h11.4l-12.8,27.4l12.8,27.4h-11.4l-7.2-15.3l-4.6,9.8V102z"/>
	<path class="st6" d="M179.8,47.3H209v9.9h-19.3V68h15.6V78h-15.6v14.1H209v9.9h-29.2V47.3z"/>
	<path class="st6" d="M29.3,145.6c0-1.6,0.3-3.1,0.9-4.5c0.6-1.4,1.5-2.7,2.5-3.8c1.1-1.1,2.3-2,3.7-2.6c1.4-0.6,3-1,4.7-1h5.5
		c1.5,0,3,0.3,4.5,0.9c1.4,0.6,2.7,1.5,3.8,2.6c1.1,1.1,2,2.3,2.6,3.8c0.6,1.4,1,3,1,4.6v42.8h-9.9v-13h-9.4v13h-9.9V145.6z
		 M39.3,165.5h9.4v-19.9c0-0.5-0.2-1-0.6-1.4c-0.4-0.4-0.8-0.6-1.4-0.6h-5.5c-0.5,0-1,0.2-1.4,0.6c-0.4,0.4-0.6,0.8-0.6,1.4V165.5z"
		/>
	<path class="st6" d="M82,133.7h9.9v44.8h19.3v9.9H82V133.7z"/>
	<path class="st6" d="M123.8,188.4h-9.9v-54.7h9.9V188.4z"/>
	<path class="st6" d="M157.9,188.4h-9.9v-0.1c-0.2,0-0.5,0.1-0.6,0.1h-7.7c-1.6,0-3.1-0.3-4.4-0.8c-1.4-0.5-2.6-1.3-3.6-2.3
		c-1-1-1.8-2.2-2.4-3.5c-0.6-1.4-0.9-2.9-0.9-4.6v-32c0-1.4,0.3-2.9,0.9-4.2c0.6-1.4,1.4-2.6,2.4-3.7c1-1.1,2.2-1.9,3.6-2.6
		c1.4-0.6,2.8-1,4.4-1h7.1c1.4,0,2.8,0.3,4.2,0.9s2.5,1.3,3.5,2.3c1.1,1,2,2.3,2.6,3.8c0.6,1.5,0.9,3,0.9,4.4v4.5h-9.9v-4.5
		c0-0.3-0.1-0.7-0.4-1c-0.2-0.3-0.6-0.5-0.9-0.5h-7.1c-0.4,0-0.7,0.2-1,0.6c-0.3,0.4-0.4,0.7-0.4,1v32c0,0.5,0.1,0.8,0.3,1
		c0.2,0.2,0.5,0.3,1.1,0.3h7.1c0.2,0,0.5-0.1,0.8-0.4c0.3-0.2,0.4-0.5,0.5-0.7v-7.1h-6.4v-9.9h16.3V188.4z"/>
	<path class="st6" d="M172.1,164.4v24h-9.9v-54.7h9.9v20.7h9.4v-20.7h9.9v54.7h-9.9v-24H172.1z"/>
	<path class="st6" d="M204.4,143.6h-9.6v-9.9h29.2v9.9h-9.7v44.8h-9.9V143.6z"/>
</g>
</svg>
