<?xml version="1.0" encoding="utf-8"?>
<!-- Generator: Adobe Illustrator 23.0.1, SVG Export Plug-In . SVG Version: 6.00 Build 0)  -->
<svg version="1.1" id="Bold" xmlns="http://www.w3.org/2000/svg" xmlns:xlink="http://www.w3.org/1999/xlink" x="0px" y="0px"
	 viewBox="0 0 400 400" style="enable-background:new 0 0 400 400;" xml:space="preserve">
<style type="text/css">
	.st0{fill:url(#SVGID_1_);}
</style>
<linearGradient id="SVGID_1_" gradientUnits="userSpaceOnUse" x1="115.4204" y1="61.84" x2="324.2715" y2="402.9962">
	<stop  offset="0" style="stop-color:#F1F1F1"/>
	<stop  offset="0.7963" style="stop-color:#A1A1A1"/>
</linearGradient>
<path class="st0" d="M200,400c110.4,0,200-89.6,200-200S310.4,0,200,0S0,89.6,0,200S89.6,400,200,400z M281.2,294.3L281.2,294.3
	c-13.4,0-55.9-47.1-175.3-22.7c-3.1,0.8-7.3,2.1-9.6,2.1c-15.2,0-18.2-22.8-1.8-26.3c66-14.6,133.5-13.3,191.1,21.2
	C299.4,277.3,293.5,294.3,281.2,294.3L281.2,294.3z M302.9,241.4c-1.9-0.5-1.3,1.2-9.9-3.4c-50.4-29.8-125.5-41.9-192.4-23.8
	c-3.8,1-5.9,2.1-9.6,2.1c-17.8,0-22.6-26.9-3.1-32.3c78.6-22.1,162.9-9.2,221.6,25.7c6.6,3.8,9.1,8.9,9.1,15.9
	C318.4,234.4,311.7,241.4,302.9,241.4z M75.8,116.6c75.4-22.1,189.5-15.1,260.4,26.3c18.2,10.5,11,37-8.3,37l0,0
	c-4.2,0-6.8-1-10.4-3.1C260.1,142.6,157.4,134.4,91,153c-2.9,0.8-6.6,2.1-10.4,2.1c-10.6,0-18.8-8.3-18.8-19.1
	C61.8,124.9,68.5,118.8,75.8,116.6L75.8,116.6z"/>
</svg>
