<?xml version="1.0" encoding="utf-8"?>
<!-- Generator: Adobe Illustrator 23.0.1, SVG Export Plug-In . SVG Version: 6.00 Build 0)  -->
<svg version="1.1" id="Bold" xmlns="http://www.w3.org/2000/svg" xmlns:xlink="http://www.w3.org/1999/xlink" x="0px" y="0px"
	 viewBox="0 0 333.3 400" style="enable-background:new 0 0 333.3 400;" xml:space="preserve">
<style type="text/css">
	.st0{fill:url(#SVGID_1_);}
	.st1{fill:url(#SVGID_2_);}
	.st2{fill:url(#SVGID_3_);}
	.st3{fill:#5E5E5E;}
	.st4{fill:url(#SVGID_4_);}
	.st5{fill:url(#SVGID_5_);}
	.st6{fill:url(#SVGID_6_);}
</style>
<linearGradient id="SVGID_1_" gradientUnits="userSpaceOnUse" x1="98.1438" y1="90.4431" x2="310.1438" y2="599.4431">
	<stop  offset="0" style="stop-color:#F1F1F1"/>
	<stop  offset="0.7963" style="stop-color:#A1A1A1"/>
</linearGradient>
<path class="st0" d="M74.1,247.3l172.3,36.6l7.2-34.8L81.3,212.2L74.1,247.3z"/>
<linearGradient id="SVGID_2_" gradientUnits="userSpaceOnUse" x1="71.2417" y1="101.6479" x2="283.2417" y2="610.6479">
	<stop  offset="0" style="stop-color:#F1F1F1"/>
	<stop  offset="0.7963" style="stop-color:#A1A1A1"/>
</linearGradient>
<path class="st1" d="M70.2,292.8h176.1v35.5H70.2V292.8z"/>
<linearGradient id="SVGID_3_" gradientUnits="userSpaceOnUse" x1="137.4094" y1="74.0888" x2="349.4094" y2="583.0888">
	<stop  offset="0" style="stop-color:#F1F1F1"/>
	<stop  offset="0.7963" style="stop-color:#A1A1A1"/>
</linearGradient>
<path class="st2" d="M96.6,163.8l159.5,75.5l14.8-32.4l-159.6-75.6L96.6,163.8z"/>
<path class="st3" d="M256.2,239.3L256.2,239.3L256.2,239.3L256.2,239.3z"/>
<linearGradient id="SVGID_4_" gradientUnits="userSpaceOnUse" x1="64.8777" y1="104.2985" x2="276.8777" y2="613.2985">
	<stop  offset="0" style="stop-color:#F1F1F1"/>
	<stop  offset="0.7963" style="stop-color:#A1A1A1"/>
</linearGradient>
<path class="st4" d="M0,257.2V400h316.6V257.2h-35.2v107.1H35.2V257.2H0z"/>
<linearGradient id="SVGID_5_" gradientUnits="userSpaceOnUse" x1="188.3931" y1="52.854" x2="400.3931" y2="561.8539">
	<stop  offset="0" style="stop-color:#F1F1F1"/>
	<stop  offset="0.7963" style="stop-color:#A1A1A1"/>
</linearGradient>
<path class="st5" d="M140.9,84.4L276,198.9l22.4-27.5L163.3,56.9L140.9,84.4z"/>
<linearGradient id="SVGID_6_" gradientUnits="userSpaceOnUse" x1="244.6903" y1="29.406" x2="456.6903" y2="538.406">
	<stop  offset="0" style="stop-color:#F1F1F1"/>
	<stop  offset="0.7963" style="stop-color:#A1A1A1"/>
</linearGradient>
<path class="st6" d="M333.3,143.1L228.3,0l-28.2,21.4l105,143.1L333.3,143.1z"/>
</svg>
