<?xml version="1.0" encoding="iso-8859-1"?>
<!-- Generator: Adobe Illustrator 23.0.1, SVG Export Plug-In . SVG Version: 6.00 Build 0)  -->
<svg version="1.1" id="Layer_1" xmlns="http://www.w3.org/2000/svg" xmlns:xlink="http://www.w3.org/1999/xlink" x="0px" y="0px"
	 viewBox="0 0 400 400" style="enable-background:new 0 0 400 400;" xml:space="preserve">
<path style="fill:#5E5E5E;" d="M125.5,358.9c151.1,0,233.7-125.2,233.7-233.7c0-3.6-0.1-7.1-0.2-10.6c16-11.6,30-26.1,41-42.5
	C385.3,78.6,369.4,83,352.8,85c17-10.2,30-26.3,36.1-45.4c-15.9,9.4-33.5,16.2-52.2,19.9c-15-16-36.3-26-60-26
	c-45.4,0-82.2,36.8-82.2,82.1c0,6.4,0.7,12.7,2.1,18.7C128.5,131,68,98.3,27.4,48.6c-7.1,12.1-11.1,26.2-11.1,41.3
	c0,28.5,14.5,53.7,36.6,68.4c-13.5-0.4-26.1-4.1-37.2-10.3c0,0.3,0,0.7,0,1c0,39.8,28.3,73,65.9,80.5c-6.9,1.9-14.2,2.9-21.7,2.9
	c-5.3,0-10.4-0.5-15.4-1.5c10.5,32.6,40.8,56.4,76.7,57.1c-28.1,22-63.5,35.2-102,35.2c-6.6,0-13.2-0.4-19.6-1.1
	C35.9,345.3,79.1,358.9,125.5,358.9"/>
</svg>
