<?xml version="1.0" encoding="iso-8859-1"?>
<!-- Generator: Adobe Illustrator 23.0.1, SVG Export Plug-In . SVG Version: 6.00 Build 0)  -->
<svg version="1.1" id="Layer_1" xmlns="http://www.w3.org/2000/svg" xmlns:xlink="http://www.w3.org/1999/xlink" x="0px" y="0px"
	 viewBox="0 0 256 256" enable-background="new 0 0 256 256" xml:space="preserve">
<g>
	<g>
		<path fill="#EEE5E5" d="M128,0C57.4,0,0,57.4,0,128s57.4,128,128,128c1.3,0,2.5-0.2,3.8-0.2l0.4,0.1c0.4,0.1,0.7,0.1,1,0.1
			c0.5,0,1-0.1,1.5-0.2l0.6-0.2C202.5,251.8,256,196.1,256,128C256,57.4,198.6,0,128,0z M204.1,217.2c-0.5-1.6-1.6-3-3.3-3.6
			l-28.1-9.3c-9.8-4.1-14.4-19.8-15.4-26.1c7.3-6.8,14-16.8,14-25.9c0-3.1,0.9-4.3,0.7-4.3c1.7-0.4,3-1.6,3.7-3.2
			c0.5-1.3,5.1-13,5.1-20.9c0-0.4-0.1-0.9-0.2-1.3c-0.7-2.7-2.2-5.4-4.6-7.1V90.7c0-15.3-4.7-21.8-9.6-25.5
			c-1.1-7.6-9.3-22.5-38.4-22.5c-29.7,0-48,28-48,48v24.8c-2.3,1.7-3.9,4.4-4.6,7.1c-0.1,0.4-0.2,0.9-0.2,1.3
			c0,7.9,4.6,19.6,5.1,20.9c0.6,1.6,1.5,2.6,3.1,3c0.3,0.2,1.2,1.4,1.2,4.5c0,9.1,6.7,19.1,14,25.9c-1.1,6.3-5.6,22-15.1,25.9
			l-28.4,9.5c-1.6,0.5-2.8,1.9-3.3,3.5c-25.2-21.5-41.2-53.5-41.2-89.1C10.6,63.3,63.3,10.7,128,10.7S245.3,63.3,245.3,128
			C245.3,163.7,229.3,195.6,204.1,217.2L204.1,217.2z"/>
	</g>
</g>
</svg>
