<?xml version="1.0" encoding="utf-8"?>
<!-- Generator: Adobe Illustrator 23.0.1, SVG Export Plug-In . SVG Version: 6.00 Build 0)  -->
<svg version="1.1" id="Layer_1" xmlns="http://www.w3.org/2000/svg" xmlns:xlink="http://www.w3.org/1999/xlink" x="0px" y="0px"
	 viewBox="0 0 360 227" style="enable-background:new 0 0 360 227;" xml:space="preserve">
<style type="text/css">
	.st0{fill:#B1B564;}
</style>
<path class="st0" d="M175.9,170.5c-0.4,2.8-1.8,14.4,1.9,21c1.2,2.2,3.5,5.2,8.5,7.7c3.5,1.8,1.3,9.9,15.4,12.2
	c16.1,2.6,15.5-6.1,19.7-6.8c5-0.9,7.7-2.9,9.4-4.5c5.6-5,7.8-16.1,8.4-19C217.7,179.8,196.6,176.2,175.9,170.5z"/>
<path class="st0" d="M231.4,30c-35.6-5.8-69.2,18.3-75.1,54c-3.7,22.7,4.8,44.7,20.7,59.1c1.9,1.8,2,5.7,1.4,10.9
	c20.7,6.6,41.9,10.2,63.6,10.9c1.1-5.3,2.4-9.2,4.9-10.3c19.7-8.6,34.7-26.7,38.4-49.4C291.2,69.4,267,35.8,231.4,30z M178.5,83.8
	l-8.8-12.3c11.3-18.8,26.5-31,47-33.8l8.8,12.3C200.9,54.3,186.5,66.6,178.5,83.8z"/>
<path class="st0" d="M43.7,143.6c1.3,0,2.3-0.2,3.2-0.5c0.9-0.4,1.6-1,2.3-1.8c0.6-0.8,1.2-1.9,1.6-3.1c0.4-1.3,0.8-2.8,1.2-4.7
	l0.7-4H60l-0.6,22.6H0v-5.1l36.8-53.2H18.6c-0.9,0-1.7,0.1-2.4,0.4c-0.7,0.3-1.3,0.7-1.9,1.4c-0.5,0.7-1,1.6-1.5,2.7
	c-0.4,1.1-0.9,2.5-1.3,4.2l-0.7,3H3.2l1.5-20.2h53.8v5.4l-36.9,53.1H43.7z"/>
<path class="st0" d="M117.2,179.2c-3.8,0-7.2-0.5-10.1-1.4c-2.9-0.9-5.4-2.3-7.3-4c-2-1.8-3.4-3.9-4.5-6.4c-1-2.5-1.5-5.3-1.5-8.4
	v-23.4c0-2.6-0.4-4.8-1.2-6.4c-0.8-1.6-2-2.9-3.4-3.8c-1.4-0.9-3.1-1.6-5.1-2c-1.9-0.4-4-0.6-6.3-0.7v-8.4c2.2-0.1,4.3-0.3,6.3-0.7
	c1.9-0.4,3.6-1,5.1-1.9c1.4-0.9,2.6-2.2,3.4-3.8c0.8-1.6,1.2-3.7,1.2-6.3V78c0-6.4,2-11.4,5.9-14.8c3.9-3.5,9.8-5.2,17.5-5.2h13v7.2
	h-5.4c-2,0-3.6,0.3-4.8,0.9c-1.3,0.6-2.2,1.4-3,2.5c-0.7,1.1-1.3,2.5-1.5,4.2c-0.3,1.7-0.4,3.6-0.4,5.7v23.3c0,4.1-1.2,7.6-3.5,10.2
	c-2.4,2.7-6.2,4.6-11.5,5.8v1.1c5.3,1.3,9.1,3.3,11.5,6c2.4,2.7,3.6,6.1,3.6,10.2v23.4c0,2.1,0.1,4,0.4,5.7c0.3,1.7,0.8,3.1,1.5,4.2
	c0.7,1.1,1.7,2,3,2.6c1.2,0.6,2.9,0.9,4.8,0.9h5.4v7.3H117.2z"/>
<path class="st0" d="M307.6,179.2V172h5.4c2,0,3.6-0.3,4.8-0.9c1.2-0.6,2.2-1.4,3-2.6c0.7-1.1,1.2-2.5,1.5-4.2
	c0.3-1.7,0.4-3.6,0.4-5.7v-23.4c0-4.1,1.2-7.6,3.6-10.2c2.4-2.7,6.2-4.7,11.5-6v-1.1c-5.3-1.2-9.1-3.1-11.5-5.8
	c-2.4-2.7-3.5-6.1-3.5-10.2V78.5c0-2.1-0.1-4-0.4-5.7c-0.3-1.7-0.8-3.1-1.5-4.2c-0.7-1.1-1.7-2-3-2.5c-1.3-0.6-2.9-0.9-4.8-0.9h-5.4
	V58h13c7.7,0,13.6,1.7,17.5,5.2c3.9,3.5,5.9,8.4,5.9,14.8v23.6c0,2.5,0.4,4.6,1.2,6.3c0.8,1.6,2,2.9,3.4,3.8
	c1.4,0.9,3.1,1.6,5.1,1.9c1.9,0.4,4,0.6,6.3,0.7v8.4c-2.2,0.1-4.3,0.3-6.3,0.7c-1.9,0.4-3.6,1-5.1,2c-1.4,0.9-2.6,2.2-3.4,3.8
	c-0.8,1.6-1.2,3.8-1.2,6.4V159c0,3.1-0.5,5.9-1.5,8.4c-1,2.5-2.5,4.6-4.5,6.4c-2,1.8-4.4,3.1-7.3,4c-2.9,0.9-6.3,1.4-10.1,1.4H307.6
	z"/>
</svg>
