<?xml version="1.0" encoding="utf-8"?>
<!-- Generator: Adobe Illustrator 23.0.1, SVG Export Plug-In . SVG Version: 6.00 Build 0)  -->
<svg version="1.1" id="Layer_1" xmlns="http://www.w3.org/2000/svg" xmlns:xlink="http://www.w3.org/1999/xlink" x="0px" y="0px"
	 viewBox="0 0 203.1 121.2" style="enable-background:new 0 0 203.1 121.2;" xml:space="preserve">
<style type="text/css">
	.st0{fill:#B1B564;}
</style>
<path class="st0" d="M43.7,85.6c1.3,0,2.3-0.2,3.2-0.5c0.9-0.4,1.6-1,2.3-1.8c0.6-0.8,1.2-1.9,1.6-3.1c0.4-1.3,0.8-2.8,1.2-4.7
	l0.7-4H60l-0.6,22.6H0V89l36.8-53.2H18.6c-0.9,0-1.7,0.1-2.4,0.4c-0.7,0.3-1.3,0.7-1.9,1.4c-0.5,0.7-1,1.6-1.5,2.7
	c-0.4,1.1-0.9,2.5-1.3,4.2l-0.7,3H3.2l1.5-20.2h53.8v5.4L21.6,85.8h22.1V85.6z"/>
<path class="st0" d="M117.2,121.2c-3.8,0-7.2-0.5-10.1-1.4s-5.4-2.3-7.3-4c-2-1.8-3.4-3.9-4.5-6.4c-1-2.5-1.5-5.3-1.5-8.4V77.6
	c0-2.6-0.4-4.8-1.2-6.4c-0.8-1.6-2-2.9-3.4-3.8s-3.1-1.6-5.1-2c-1.9-0.4-4-0.6-6.3-0.7v-8.4c2.2-0.1,4.3-0.3,6.3-0.7
	c1.9-0.4,3.6-1,5.1-1.9c1.4-0.9,2.6-2.2,3.4-3.8c0.8-1.6,1.2-3.7,1.2-6.3V20c0-6.4,2-11.4,5.9-14.8c3.9-3.5,9.8-5.2,17.5-5.2h13v7.2
	h-5.4c-2,0-3.6,0.3-4.8,0.9c-1.3,0.6-2.2,1.4-3,2.5c-0.7,1.1-1.3,2.5-1.5,4.2c-0.3,1.7-0.4,3.6-0.4,5.7v23.3c0,4.1-1.2,7.6-3.5,10.2
	c-2.4,2.7-6.2,4.6-11.5,5.8v1.1c5.3,1.3,9.1,3.3,11.5,6s3.6,6.1,3.6,10.2v23.4c0,2.1,0.1,4,0.4,5.7s0.8,3.1,1.5,4.2
	c0.7,1.1,1.7,2,3,2.6c1.2,0.6,2.9,0.9,4.8,0.9h5.4v7.3L117.2,121.2L117.2,121.2z"/>
<path class="st0" d="M150.6,121.2V114h5.4c2,0,3.6-0.3,4.8-0.9c1.2-0.6,2.2-1.4,3-2.6c0.7-1.1,1.2-2.5,1.5-4.2s0.4-3.6,0.4-5.7V77.2
	c0-4.1,1.2-7.6,3.6-10.2c2.4-2.7,6.2-4.7,11.5-6v-1.1c-5.3-1.2-9.1-3.1-11.5-5.8c-2.4-2.7-3.5-6.1-3.5-10.2V20.5
	c0-2.1-0.1-4-0.4-5.7s-0.8-3.1-1.5-4.2s-1.7-2-3-2.5c-1.3-0.6-2.9-0.9-4.8-0.9h-5.4V0h13c7.7,0,13.6,1.7,17.5,5.2
	c3.9,3.5,5.9,8.4,5.9,14.8v23.6c0,2.5,0.4,4.6,1.2,6.3c0.8,1.6,2,2.9,3.4,3.8s3.1,1.6,5.1,1.9c1.9,0.4,4,0.6,6.3,0.7v8.4
	c-2.2,0.1-4.3,0.3-6.3,0.7c-1.9,0.4-3.6,1-5.1,2c-1.4,0.9-2.6,2.2-3.4,3.8c-0.8,1.6-1.2,3.8-1.2,6.4V101c0,3.1-0.5,5.9-1.5,8.4
	s-2.5,4.6-4.5,6.4c-2,1.8-4.4,3.1-7.3,4s-6.3,1.4-10.1,1.4L150.6,121.2L150.6,121.2z"/>
</svg>
